<?xml version="1.0" encoding="UTF-8" standalone="no"?>
<svg
   xmlns:dc="http://purl.org/dc/elements/1.1/"
   xmlns:cc="http://creativecommons.org/ns#"
   xmlns:rdf="http://www.w3.org/1999/02/22-rdf-syntax-ns#"
   xmlns:svg="http://www.w3.org/2000/svg"
   xmlns="http://www.w3.org/2000/svg"
   xmlns:sodipodi="http://sodipodi.sourceforge.net/DTD/sodipodi-0.dtd"
   xmlns:inkscape="http://www.inkscape.org/namespaces/inkscape"
   version="1.1"
   x="0px"
   y="0px"
   viewBox="0 0 945.97601 945.97601"
   xml:space="preserve"
   id="svg86"
   sodipodi:docname="debug_icon.svg"
   width="945.97601"
   height="945.97601"
   inkscape:version="0.92.5 (2060ec1f9f, 2020-04-08)"><metadata
     id="metadata92"><rdf:RDF><cc:Work
         rdf:about=""><dc:format>image/svg+xml</dc:format><dc:type
           rdf:resource="http://purl.org/dc/dcmitype/StillImage" /><dc:title></dc:title></cc:Work></rdf:RDF></metadata><defs
     id="defs90" /><sodipodi:namedview
     pagecolor="#ffffff"
     bordercolor="#666666"
     borderopacity="1"
     objecttolerance="10"
     gridtolerance="10"
     guidetolerance="10"
     inkscape:pageopacity="0"
     inkscape:pageshadow="2"
     inkscape:window-width="874"
     inkscape:window-height="480"
     id="namedview88"
     showgrid="false"
     fit-margin-top="0"
     fit-margin-left="0"
     fit-margin-right="0"
     fit-margin-bottom="0"
     inkscape:zoom="0.184375"
     inkscape:cx="450.83582"
     inkscape:cy="345.00973"
     inkscape:window-x="0"
     inkscape:window-y="27"
     inkscape:window-maximized="0"
     inkscape:current-layer="svg86" /><g
     id="g8"
     transform="translate(-41.16418,-39.033749)"
     style="fill:#ffffff"><g
       id="g6"
       style="fill:#ffffff"><path
         d="m 308.1,791.3 c -7.5,-12.2 -14,-24.9 -19.6,-38.1 1.3,3.2 2.7,6.4 4,9.6 -7.6,-18.3 -13.4,-37.3 -17.2,-56.8 -1.3,-3.2 -2.7,-6.4 -4,-9.6 -2.5,-4.7 -5.9,-8.4 -10.3,-11.2 -7,-5.4 -15.2,-8.6 -24.2,-8.6 0,0 -0.1,0 -0.1,0 -12.7,0 -23.8,5.9 -31.4,15.8 -8.2,10.6 -9.7,22 -7.2,34.9 3.7,18.9 9.2,37.3 16.5,55.1 4.7,11.5 9.7,22.9 15.5,33.9 2.2,4.2 4.6,8.3 7,12.4 8,13.4 20.1,23 36.6,23 16,0 30.4,-10.1 36.6,-24.6 6.3,-14.9 2.9,-31.9 -8.3,-43.7 0,0 -0.1,-0.1 -0.1,-0.1 -14.5,-15.2 -42.2,-15.7 -56.6,0 -15,16.3 -15.4,40.4 0,56.6 0,0 0.1,0.1 0.1,0.1 9.4,-22.8 18.9,-45.5 28.3,-68.3 0,0 0,0 0,0 9.4,3.9 18.9,7.8 28.3,11.7 -0.1,0 -0.1,-0.1 -0.2,-0.1 2.1,2.6 4.2,5.3 6.3,8 -7.5,-12.2 -14.1,-24.9 -19.7,-38.1 1.3,3.2 2.7,6.4 4,9.6 -7.7,-18.3 -13.4,-37.3 -17.2,-56.8 -12.9,16.9 -25.7,33.8 -38.6,50.6 0,0 0.1,0 0.1,0 -12.9,-9.8 -25.7,-19.6 -38.6,-29.4 7.1,36.7 21.3,72.6 40.8,104.4 5.3,8.7 14,15.7 23.9,18.4 9.6,2.6 22.3,1.4 30.8,-4 18.1,-11.5 26.2,-35.6 14.5,-54.7 z"
         id="path2"
         inkscape:connector-curvature="0"
         style="fill:#ffffff" /><path
         d="m 234.8,459.6 c 0.1,0 0.2,0 0.3,0 3.5,-0.5 7.1,-1 10.6,-1.4 5.2,-1.2 9.7,-3.6 13.6,-7.2 3,-1.8 5.4,-4.2 7.2,-7.2 3.5,-3.9 5.9,-8.4 7.2,-13.6 0,-0.1 0,-0.2 0.1,-0.3 1.7,-5.3 1.9,-10.6 0.7,-16 -0.2,-5.3 -1.8,-10.3 -4.7,-14.9 -2.1,-2.7 -4.2,-5.4 -6.3,-8.1 -3.6,-3.9 -7.9,-6.7 -12.9,-8.3 -3.1,-1.8 -6.5,-2.7 -10.1,-2.7 -5.3,-1.2 -10.6,-1 -16,0.7 -3.2,1.3 -6.4,2.7 -9.6,4 -6,3.6 -10.8,8.3 -14.4,14.4 0,0 0,0 0,0.1 2.1,-2.7 4.2,-5.4 6.3,-8.1 -0.1,0.1 -0.1,0.1 -0.2,0.2 -0.2,0.1 -6.2,8 -6.3,8.2 -2.9,4.6 -4.5,9.5 -4.7,14.9 -1.2,5.3 -1,10.6 0.7,16 1.2,5.2 3.6,9.7 7.2,13.6 2.8,4.4 6.6,7.8 11.2,10.3 3.2,1.3 6.4,2.7 9.6,4 7.1,1.9 14.2,1.9 21.3,0 3.2,-1.3 6.4,-2.7 9.6,-4 6,-3.6 10.8,-8.3 14.4,-14.4 0,0 0,0 0,-0.1 -2.1,2.7 -4.2,5.4 -6.3,8.1 0.1,-0.1 0.1,-0.1 0.2,-0.2 0.2,-0.1 6.2,-8 6.3,-8.2 -24.4,-10.3 -48.7,-20.5 -73.1,-30.8 0,0.1 0,0.2 -0.1,0.3 12.9,-9.8 25.7,-19.6 38.6,-29.4 -0.1,0 -0.2,0 -0.3,0 -5.5,-0.2 -10.6,0.9 -15.4,3.4 -5,1.6 -9.3,4.4 -12.9,8.3 -3.9,3.6 -6.7,7.9 -8.3,12.9 -2.5,4.8 -3.7,9.9 -3.4,15.4 0.5,3.5 1,7.1 1.4,10.6 1.9,6.8 5.3,12.7 10.3,17.7 2.7,2.1 5.4,4.2 8.1,6.3 6.1,3.6 12.8,5.4 20.1,5.5 z"
         id="path4"
         inkscape:connector-curvature="0"
         style="fill:#ffffff" /></g></g><g
     id="g14"
     transform="translate(-41.16418,-39.033749)"
     style="fill:#ffffff"><g
       id="g12"
       style="fill:#ffffff"><path
         d="m 827.2,430.2 c 3,-11.7 0,-24.2 -2.4,-35.9 -1.4,-7 -3.1,-14 -5,-20.9 -4.5,-15.9 -10.5,-31.1 -17.2,-46.2 -11.9,-27.1 -28.3,-51.6 -47.2,-74.3 -37.9,-45.7 -89.7,-79.4 -145.9,-98 -58.6,-19.3 -124,-20.3 -183.4,-3.6 -55.1,15.5 -106.3,46.3 -145.6,87.9 -44.4,46.9 -73.6,106 -84.1,169.7 12.9,-9.8 25.7,-19.6 38.6,-29.4 -0.1,0 -0.2,0 -0.3,0 -8.9,0 -17.3,3.2 -24.2,8.6 -6.2,4.8 -13.2,12.7 -14.3,20.8 -3,21.6 -4.6,42.7 -4.6,64.4 0,18.4 0,36.7 0,55.1 0,41.4 0,82.7 0,124.1 0,4.2 0,8.3 0,12.5 0,8.1 0.4,16.1 1.1,24.1 0.9,9.2 2.1,18.4 3.5,27.5 0.5,3.1 0.9,6.2 1.5,9.2 3.2,14.8 14.8,24 28.2,28.9 -5.9,-3.4 -11.8,-6.9 -17.7,-10.3 0,0 0,0 0.1,0.1 -3.9,-9.4 -7.8,-18.9 -11.7,-28.3 0,0.2 0,0.4 0,0.5 0.9,10.3 3.7,21 11.7,28.3 7.8,7.2 17.4,11.7 28.3,11.7 0,0 0.1,0 0.1,0 -12.9,-9.8 -25.7,-19.6 -38.6,-29.4 3.4,17.7 8.4,35 15.1,51.8 4.4,11 9,21.9 14.4,32.4 4.9,9.7 10.2,20.5 17.7,28.4 9.4,-22.8 18.9,-45.5 28.3,-68.3 0,0 0,0 0,0 -29.7,0 -50.7,34.2 -34.5,60.2 26.2,42.2 61.6,78.1 103.7,104.7 42.7,27 91.2,42.2 141.3,47.1 97.3,9.6 197.6,-30.4 263.1,-102.6 18.7,-20.7 35.4,-43.8 48.2,-68.6 8,-15.5 14.9,-31.8 20.5,-48.4 2.4,-7 4.5,-14.1 6.3,-21.3 0.9,-3.5 1.7,-7 2.4,-10.5 0.4,-1.8 0.7,-3.5 1,-5.3 2.1,-12 0.9,-20.2 -4.2,-31.3 1.3,10.3 2.7,20.5 4,30.8 7.4,-40.8 6,-81.7 6,-122.9 0,-42 0,-84 0,-126 0,-5.4 0,-10.9 0,-16.3 0,-17.6 -1.8,-34.9 -4.2,-52.3 -1.3,-9.2 -10.8,-19.5 -18.4,-23.9 -8.6,-5 -21.2,-7.1 -30.8,-4 -9.7,3.1 -19,9.1 -23.9,18.4 -1.3,3.2 -2.7,6.4 -4,9.6 -1.9,7.1 -1.9,14.2 0,21.3 0.1,0.6 0.2,1.2 0.3,1.9 -0.5,-3.5 -1,-7.1 -1.4,-10.6 4.5,33.9 2.5,69.1 2.5,103.2 0,40.8 0,81.5 0,122.3 0,18.8 -0.1,37.4 -2.5,56 0.5,-3.5 1,-7.1 1.4,-10.6 -0.5,3.4 -1,6.8 -1.6,10.1 -0.7,4.3 -2.1,9.5 -1.9,13.4 0.3,7.7 2.4,13.6 5.7,20.6 -1.3,-10.3 -2.7,-20.5 -4,-30.8 -3.7,19.3 -9.3,38 -16.9,56.1 1.3,-3.2 2.7,-6.4 4,-9.6 -9.6,22.5 -21.9,43.7 -36.8,63.1 2.1,-2.7 4.2,-5.4 6.3,-8.1 -14.9,19.2 -32.1,36.4 -51.3,51.3 2.7,-2.1 5.4,-4.2 8.1,-6.3 -19.4,14.9 -40.5,27.2 -63,36.7 3.2,-1.3 6.4,-2.7 9.6,-4 -22.6,9.4 -46.2,15.8 -70.4,19.1 3.5,-0.5 7.1,-1 10.6,-1.4 -24.5,3.2 -49.2,3.2 -73.6,0 3.5,0.5 7.1,1 10.6,1.4 -24.7,-3.3 -48.8,-9.9 -71.8,-19.6 3.2,1.3 6.4,2.7 9.6,4 -22,-9.4 -42.7,-21.5 -61.7,-36 2.7,2.1 5.4,4.2 8.1,6.3 -19.2,-14.9 -36.4,-32.1 -51.3,-51.3 2.1,2.7 4.2,5.4 6.3,8.1 -5.9,-7.7 -11.4,-15.7 -16.6,-24 -11.5,20.1 -23,40.1 -34.5,60.2 0,0 0,0 0,0 16,0 30.4,-10.1 36.6,-24.6 6.3,-14.9 2.9,-31.9 -8.3,-43.7 0,0 -0.1,-0.1 -0.1,-0.1 2.1,2.7 4.2,5.4 6.3,8.1 -7.5,-12.2 -14,-24.9 -19.6,-38.1 1.3,3.2 2.7,6.4 4,9.6 -7.6,-18.3 -13.4,-37.3 -17.2,-56.8 -1.3,-3.2 -2.7,-6.4 -4,-9.6 -2.5,-4.7 -5.9,-8.4 -10.3,-11.2 -7,-5.4 -15.2,-8.6 -24.2,-8.6 0,0 -0.1,0 -0.1,0 13.3,13.3 26.7,26.7 40,40 -1,-11.2 -3.6,-20.6 -11.8,-28.8 -5.9,-5.9 -10.1,-7.6 -17.8,-10.4 9.3,9.3 18.6,18.6 27.9,27.9 -0.9,-4.9 -1.7,-9.8 -2.4,-14.7 0.5,3.5 1,7.1 1.4,10.6 -4.5,-33.5 -2.6,-68.2 -2.6,-101.9 0,-40.5 0,-81 0,-121.5 0,-18.3 0.2,-36.4 2.6,-54.6 -0.5,3.5 -1,7.1 -1.4,10.6 0.2,-1.2 0.3,-2.5 0.5,-3.7 -12.9,9.8 -25.7,19.6 -38.6,29.4 0.1,0 0.2,0 0.3,0 8.9,0 17.3,-3.2 24.2,-8.6 6.3,-4.9 13,-12.6 14.3,-20.8 3.8,-23.2 9.6,-45.5 18.6,-67.2 -1.3,3.2 -2.7,6.4 -4,9.6 9.6,-22.7 22,-43.9 36.9,-63.4 -2.1,2.7 -4.2,5.4 -6.3,8.1 14.9,-19.2 32.1,-36.4 51.3,-51.2 -2.7,2.1 -5.4,4.2 -8.1,6.3 19.1,-14.6 39.8,-26.7 61.9,-36.2 -3.2,1.3 -6.4,2.7 -9.6,4 22.6,-9.5 46.2,-15.9 70.5,-19.3 -3.5,0.5 -7.1,1 -10.6,1.4 25,-3.3 50.3,-3.3 75.3,0 -3.5,-0.5 -7.1,-1 -10.6,-1.4 24.3,3.4 47.9,9.9 70.5,19.4 -3.2,-1.3 -6.4,-2.7 -9.6,-4 22,9.4 42.6,21.5 61.6,36 -2.7,-2.1 -5.4,-4.2 -8.1,-6.3 19.5,15.1 36.9,32.5 52,52 -2.1,-2.7 -4.2,-5.4 -6.3,-8.1 14.4,18.9 26.4,39.3 35.7,61.2 -1.3,-3.2 -2.7,-6.4 -4,-9.6 9.3,22 15.7,45 19.2,68.6 0,-7.1 0,-14.2 0,-21.3 0,0.1 -0.1,0.2 -0.1,0.3 -2.6,10.2 -1.3,21.7 4,30.8 4.9,8.3 14.4,16.2 23.9,18.4 21.1,4.5 43.9,-6.5 49.5,-28.2 z"
         id="path10"
         inkscape:connector-curvature="0"
         style="fill:#ffffff" /></g></g><g
     id="g20"
     transform="translate(-41.16418,-39.033749)"
     style="fill:#ffffff"><g
       id="g18"
       style="fill:#ffffff"><path
         d="m 390.9,626.7 c 27.1,0 54.2,0 81.3,0 43.2,0 86.3,0 129.5,0 9.8,0 19.7,0 29.5,0 20.9,0 41,-18.4 40,-40 -1,-21.7 -17.6,-40 -40,-40 -27.1,0 -54.2,0 -81.3,0 -43.2,0 -86.3,0 -129.5,0 -9.8,0 -19.7,0 -29.5,0 -20.9,0 -41,18.4 -40,40 1,21.7 17.6,40 40,40 z"
         id="path16"
         inkscape:connector-curvature="0"
         style="fill:#ffffff" /></g></g><g
     id="g26"
     transform="translate(-41.16418,-39.033749)"
     style="fill:#ffffff"><g
       id="g24"
       style="fill:#ffffff"><path
         d="m 631.2,686.6 c -27.1,0 -54.2,0 -81.3,0 -43.2,0 -86.3,0 -129.5,0 -9.8,0 -19.7,0 -29.5,0 -20.9,0 -41,18.4 -40,40 1,21.7 17.6,40 40,40 27.1,0 54.2,0 81.3,0 43.2,0 86.3,0 129.5,0 9.8,0 19.7,0 29.5,0 20.9,0 41,-18.4 40,-40 -1,-21.7 -17.6,-40 -40,-40 z"
         id="path22"
         inkscape:connector-curvature="0"
         style="fill:#ffffff" /></g></g><g
     id="g32"
     transform="translate(-41.16418,-39.033749)"
     style="fill:#ffffff"><g
       id="g30"
       style="fill:#ffffff"><path
         d="m 390.9,486.8 c 27.1,0 54.2,0 81.3,0 43.2,0 86.3,0 129.5,0 9.8,0 19.7,0 29.5,0 20.9,0 41,-18.4 40,-40 -1,-21.7 -17.6,-40 -40,-40 -27.1,0 -54.2,0 -81.3,0 -43.2,0 -86.3,0 -129.5,0 -9.8,0 -19.7,0 -29.5,0 -20.9,0 -41,18.4 -40,40 1,21.6 17.6,40 40,40 z"
         id="path28"
         inkscape:connector-curvature="0"
         style="fill:#ffffff" /></g></g><g
     id="g38"
     transform="translate(-41.16418,-39.033749)"
     style="fill:#ffffff"><g
       id="g36"
       style="fill:#ffffff"><path
         d="m 196.5,408.6 c 0,0.1 0,0.2 -0.1,0.3 16.4,-9.3 32.8,-18.6 49.2,-27.9 -39.1,-8.2 -78.2,-16.3 -117.3,-24.5 -5.5,-1.1 -11,-2.3 -16.5,-3.4 -10.6,-2.2 -21.3,-1.5 -30.8,4 -8.3,4.9 -16.2,14.4 -18.4,23.9 -2.3,10.2 -1.8,21.7 4,30.8 5.4,8.4 13.7,16.3 23.9,18.4 39.1,8.2 78.2,16.3 117.3,24.5 5.5,1.1 11,2.3 16.5,3.4 10.1,2.1 21.8,1.8 30.8,-4 8.4,-5.4 16.4,-13.8 18.4,-23.9 0,-0.1 0,-0.2 0.1,-0.3 2.1,-10.7 1.6,-21.2 -4,-30.8 -4.9,-8.3 -14.4,-16.2 -23.9,-18.4 -10.2,-2.3 -21.7,-1.8 -30.8,4 -8.4,5.4 -16.4,13.8 -18.4,23.9 z"
         id="path34"
         inkscape:connector-curvature="0"
         style="fill:#ffffff" /></g></g><g
     id="g44"
     transform="translate(-41.16418,-39.033749)"
     style="fill:#ffffff"><g
       id="g42"
       style="fill:#ffffff"><path
         d="m 911.1,353 c -38.8,8.2 -77.6,16.3 -116.3,24.5 -5.5,1.2 -11,2.3 -16.5,3.5 16.4,9.3 32.8,18.6 49.2,27.9 0,-0.1 0,-0.2 -0.1,-0.3 -1.5,-9.3 -10.6,-19.3 -18.4,-23.9 -8.6,-5 -21.2,-7.1 -30.8,-4 -9.7,3.1 -19,9.1 -23.9,18.4 -1.3,3.2 -2.7,6.4 -4,9.6 -1.9,7.1 -1.9,14.2 0,21.3 0,0.1 0,0.2 0.1,0.3 1.5,8.9 10.6,19.8 18.4,23.9 9.9,5.2 19.9,6.3 30.8,4 38.8,-8.2 77.6,-16.3 116.3,-24.5 5.5,-1.2 11,-2.3 16.5,-3.5 9.5,-2 19.1,-10.2 23.9,-18.4 5,-8.6 7.1,-21.2 4,-30.8 -7,-21.7 -27.2,-32.6 -49.2,-28 z"
         id="path40"
         inkscape:connector-curvature="0"
         style="fill:#ffffff" /></g></g><g
     id="g50"
     transform="translate(-41.16418,-39.033749)"
     style="fill:#ffffff"><g
       id="g48"
       style="fill:#ffffff"><path
         d="m 231.6,575.1 c -38.1,0 -76.2,0 -114.3,0 -5.4,0 -10.7,0 -16.1,0 -20.9,0 -41,18.4 -40,40 1,21.7 17.6,40 40,40 38.1,0 76.2,0 114.3,0 5.4,0 10.7,0 16.1,0 20.9,0 41,-18.4 40,-40 -0.9,-21.7 -17.6,-40 -40,-40 z"
         id="path46"
         inkscape:connector-curvature="0"
         style="fill:#ffffff" /></g></g><g
     id="g56"
     transform="translate(-41.16418,-39.033749)"
     style="fill:#ffffff"><g
       id="g54"
       style="fill:#ffffff"><path
         d="m 921.8,575.1 c -38.1,0 -76.2,0 -114.3,0 -5.4,0 -10.7,0 -16.1,0 -20.9,0 -41,18.4 -40,40 1,21.7 17.6,40 40,40 38.1,0 76.2,0 114.3,0 5.4,0 10.7,0 16.1,0 20.9,0 41,-18.4 40,-40 -1,-21.7 -17.6,-40 -40,-40 z"
         id="path52"
         inkscape:connector-curvature="0"
         style="fill:#ffffff" /></g></g><g
     id="g62"
     transform="translate(-41.16418,-39.033749)"
     style="fill:#ffffff"><g
       id="g60"
       style="fill:#ffffff"><path
         d="m 244.2,767.8 c -42.3,19.1 -84.6,38.1 -126.9,57.2 -5.9,2.7 -11.8,5.3 -17.7,8 -8.6,3.9 -16,15.2 -18.4,23.9 -2.6,9.6 -1.4,22.3 4,30.8 5.5,8.5 13.7,16.1 23.9,18.4 3.5,0.5 7.1,1 10.6,1.4 7.2,0 13.9,-1.8 20.2,-5.5 42.3,-19.1 84.6,-38.1 126.9,-57.2 5.9,-2.7 11.8,-5.3 17.7,-8 8.6,-3.9 16,-15.2 18.4,-23.9 2.6,-9.6 1.4,-22.3 -4,-30.8 -5.5,-8.5 -13.7,-16.1 -23.9,-18.4 -3.5,-0.5 -7.1,-1 -10.6,-1.4 -7.2,0 -13.9,1.8 -20.2,5.5 z"
         id="path58"
         inkscape:connector-curvature="0"
         style="fill:#ffffff" /></g></g><g
     id="g68"
     transform="translate(-41.16418,-39.033749)"
     style="fill:#ffffff"><g
       id="g66"
       style="fill:#ffffff"><path
         d="m 923.3,833 c -42,-19.1 -84.1,-38.1 -126.1,-57.2 -5.9,-2.7 -11.8,-5.4 -17.7,-8 -10.1,-4.6 -19.7,-7.1 -30.8,-4 -9.3,2.6 -19.3,9.7 -23.9,18.4 -4.9,9.3 -7.4,20.5 -4,30.8 3,9.3 9.1,19.7 18.4,23.9 42,19.1 84.1,38.1 126.1,57.2 5.9,2.7 11.8,5.4 17.7,8 10.1,4.6 19.7,7.1 30.8,4 9.3,-2.6 19.3,-9.7 23.9,-18.4 4.9,-9.3 7.4,-20.5 4,-30.8 -3,-9.4 -9.1,-19.7 -18.4,-23.9 z"
         id="path64"
         inkscape:connector-curvature="0"
         style="fill:#ffffff" /></g></g><g
     id="g74"
     transform="translate(-41.16418,-39.033749)"
     style="fill:#ffffff"><g
       id="g72"
       style="fill:#ffffff"><path
         d="m 302.1,99.3 c 23.5,31.7 47,63.3 70.5,95 3.4,4.5 6.8,9.1 10.1,13.6 6.4,8.7 13.1,15.4 23.9,18.4 9.6,2.6 22.3,1.4 30.8,-4 8.5,-5.5 16.1,-13.7 18.4,-23.9 2.2,-9.8 2.3,-22.4 -4,-30.8 -23.5,-31.7 -47,-63.3 -70.5,-95 -3.4,-4.5 -6.8,-9.1 -10.1,-13.6 -6.4,-8.7 -13.1,-15.4 -23.9,-18.4 -9.6,-2.6 -22.3,-1.4 -30.8,4 -8.5,5.5 -16.1,13.7 -18.4,23.9 -2.2,9.8 -2.3,22.3 4,30.8 z"
         id="path70"
         inkscape:connector-curvature="0"
         style="fill:#ffffff" /></g></g><g
     id="g80"
     transform="translate(-41.16418,-39.033749)"
     style="fill:#ffffff"><g
       id="g78"
       style="fill:#ffffff"><path
         d="m 641.1,207.9 c 23.6,-31.7 47.1,-63.4 70.7,-95.1 3.4,-4.5 6.7,-9 10.1,-13.5 5.8,-7.8 6.5,-21.9 4,-30.8 -2.6,-9.3 -9.7,-19.3 -18.4,-23.9 -9.3,-4.9 -20.5,-7.4 -30.8,-4 -3.2,1.3 -6.4,2.7 -9.6,4 -6,3.6 -10.8,8.3 -14.4,14.4 -23.6,31.7 -47.1,63.4 -70.7,95.1 -3.4,4.5 -6.7,9 -10.1,13.5 -5.8,7.8 -6.5,21.9 -4,30.8 2.6,9.3 9.7,19.3 18.4,23.9 9.3,4.9 20.5,7.4 30.8,4 3.2,-1.3 6.4,-2.7 9.6,-4 6.1,-3.6 10.9,-8.4 14.4,-14.4 z"
         id="path76"
         inkscape:connector-curvature="0"
         style="fill:#ffffff" /></g></g></svg>