<?xml version="1.0" encoding="UTF-8" standalone="no"?>
<svg
   xmlns:dc="http://purl.org/dc/elements/1.1/"
   xmlns:cc="http://creativecommons.org/ns#"
   xmlns:rdf="http://www.w3.org/1999/02/22-rdf-syntax-ns#"
   xmlns:svg="http://www.w3.org/2000/svg"
   xmlns="http://www.w3.org/2000/svg"
   xmlns:sodipodi="http://sodipodi.sourceforge.net/DTD/sodipodi-0.dtd"
   xmlns:inkscape="http://www.inkscape.org/namespaces/inkscape"
   xml:space="preserve"
   version="1.1"
   style="clip-rule:evenodd;fill-rule:evenodd;image-rendering:optimizeQuality;shape-rendering:geometricPrecision;text-rendering:geometricPrecision"
   viewBox="0 0 1.094 1.094"
   x="0px"
   y="0px"
   id="svg14"
   sodipodi:docname="error_icon.svg"
   width="1.094"
   height="1.094"
   inkscape:version="0.92.5 (2060ec1f9f, 2020-04-08)"><metadata
     id="metadata18"><rdf:RDF><cc:Work
         rdf:about=""><dc:format>image/svg+xml</dc:format><dc:type
           rdf:resource="http://purl.org/dc/dcmitype/StillImage" /><dc:title></dc:title></cc:Work></rdf:RDF></metadata><sodipodi:namedview
     pagecolor="#ffffff"
     bordercolor="#666666"
     borderopacity="1"
     objecttolerance="10"
     gridtolerance="10"
     guidetolerance="10"
     inkscape:pageopacity="0"
     inkscape:pageshadow="2"
     inkscape:window-width="1920"
     inkscape:window-height="1016"
     id="namedview16"
     showgrid="false"
     fit-margin-top="0"
     fit-margin-left="0"
     fit-margin-right="0"
     fit-margin-bottom="0"
     inkscape:zoom="122.03086"
     inkscape:cx="2.409396"
     inkscape:cy="0.41024987"
     inkscape:window-x="0"
     inkscape:window-y="27"
     inkscape:window-maximized="1"
     inkscape:current-layer="svg14" /><defs
     id="defs4"><style
       type="text/css"
       id="style2">
   
    .fil0 {fill:black;fill-rule:nonzero}
   
  </style></defs><g
     id="g8"
     style="fill:#ffffff"><path
       class="fil0"
       d="m 0.547,0 c 0.151,0 0.288,0.061 0.387,0.16 0.099,0.099 0.16,0.236 0.16,0.387 0,0.151 -0.061,0.288 -0.16,0.387 C 0.835,1.033 0.698,1.094 0.547,1.094 0.396,1.094 0.259,1.033 0.16,0.934 0.061,0.835 0,0.698 0,0.547 0,0.396 0.061,0.259 0.16,0.16 0.259,0.061 0.396,0 0.547,0 Z m 0,0.684 c 0.041,0 0.074,0.033 0.074,0.074 0,0.041 -0.033,0.075 -0.074,0.075 -0.041,0 -0.075,-0.034 -0.075,-0.075 0,-0.041 0.034,-0.074 0.075,-0.074 z m 0,-0.075 C 0.519,0.609 0.5,0.586 0.497,0.559 L 0.472,0.336 C 0.468,0.297 0.509,0.261 0.547,0.261 c 0.038,0 0.079,0.036 0.074,0.075 L 0.597,0.559 C 0.594,0.586 0.575,0.609 0.547,0.609 Z M 0.863,0.23 C 0.782,0.15 0.67,0.099 0.547,0.099 0.423,0.099 0.311,0.15 0.23,0.23 0.15,0.311 0.099,0.423 0.099,0.547 0.099,0.67 0.15,0.782 0.23,0.863 0.311,0.944 0.423,0.994 0.547,0.994 0.67,0.994 0.782,0.944 0.863,0.863 0.944,0.782 0.994,0.67 0.994,0.547 0.994,0.423 0.944,0.311 0.863,0.23 Z"
       id="path6"
       inkscape:connector-curvature="0"
       style="fill:#ffffff;fill-rule:nonzero" /></g></svg>