<?xml version="1.0" encoding="UTF-8" standalone="no"?>
<svg
   xmlns:dc="http://purl.org/dc/elements/1.1/"
   xmlns:cc="http://creativecommons.org/ns#"
   xmlns:rdf="http://www.w3.org/1999/02/22-rdf-syntax-ns#"
   xmlns:svg="http://www.w3.org/2000/svg"
   xmlns="http://www.w3.org/2000/svg"
   xmlns:sodipodi="http://sodipodi.sourceforge.net/DTD/sodipodi-0.dtd"
   xmlns:inkscape="http://www.inkscape.org/namespaces/inkscape"
   viewBox="0 0 16.933331 16.93333"
   version="1.1"
   x="0px"
   y="0px"
   id="svg10"
   sodipodi:docname="exclamation_sentence_icon.svg"
   width="16.933331"
   height="16.933331"
   inkscape:version="0.92.5 (2060ec1f9f, 2020-04-08)">
  <metadata
     id="metadata16">
    <rdf:RDF>
      <cc:Work
         rdf:about="">
        <dc:format>image/svg+xml</dc:format>
        <dc:type
           rdf:resource="http://purl.org/dc/dcmitype/StillImage" />
        <dc:title></dc:title>
      </cc:Work>
    </rdf:RDF>
  </metadata>
  <defs
     id="defs14" />
  <sodipodi:namedview
     pagecolor="#ffffff"
     bordercolor="#666666"
     borderopacity="1"
     objecttolerance="10"
     gridtolerance="10"
     guidetolerance="10"
     inkscape:pageopacity="0"
     inkscape:pageshadow="2"
     inkscape:window-width="1920"
     inkscape:window-height="1016"
     id="namedview12"
     showgrid="false"
     inkscape:zoom="11.149606"
     inkscape:cx="8.4666662"
     inkscape:cy="10.583334"
     inkscape:window-x="0"
     inkscape:window-y="27"
     inkscape:window-maximized="1"
     inkscape:current-layer="svg10" />
  <g
     id="g4"
     transform="translate(0.08968927,0.12541918)"
     style="fill:#ffffff">
    <path
       style="color:#000000;font-style:normal;font-variant:normal;font-weight:normal;font-stretch:normal;font-size:medium;line-height:normal;font-family:sans-serif;font-variant-ligatures:normal;font-variant-position:normal;font-variant-caps:normal;font-variant-numeric:normal;font-variant-alternates:normal;font-feature-settings:normal;text-indent:0;text-align:start;text-decoration:none;text-decoration-line:none;text-decoration-style:solid;text-decoration-color:#000000;letter-spacing:normal;word-spacing:normal;text-transform:none;writing-mode:lr-tb;direction:ltr;text-orientation:mixed;dominant-baseline:auto;baseline-shift:baseline;text-anchor:start;white-space:normal;shape-padding:0;clip-rule:nonzero;display:inline;overflow:visible;visibility:visible;opacity:1;isolation:auto;mix-blend-mode:normal;color-interpolation:sRGB;color-interpolation-filters:linearRGB;solid-color:#000000;solid-opacity:1;vector-effect:none;fill:#ffffff;fill-opacity:1;fill-rule:nonzero;stroke:none;stroke-width:1.05833352;stroke-linecap:round;stroke-linejoin:round;stroke-miterlimit:4;stroke-dasharray:none;stroke-dashoffset:0;stroke-opacity:1;color-rendering:auto;image-rendering:auto;shape-rendering:auto;text-rendering:auto;enable-background:accumulate"
       d="m 5.8159718,1.0582419 c -0.58676,-2.4e-4 -1.17897,0.1397 -1.65416,0.48628 -0.47519,0.34655 -0.8004,0.96713 -0.70538,1.65828 l -0.004,-0.031 0.51211,6.69314 c 0.0727,0.9530201 0.83933,1.7776801 1.8495,1.7776801 1.00469,-0.0473 1.77252,-1.0283 1.85157,-1.7756201 l 0.52916,-6.69158 -0.004,0.0254 c 0.0888,-0.69228 -0.24009,-1.30818 -0.71676,-1.65415 -0.47667,-0.34599 -1.07103,-0.48813 -1.65778,-0.48834 z m 0,1.05884 c 0.40312,1.6e-4 0.80123,0.11501 1.03508,0.28474 0.23385,0.16976 0.3344,0.32711 0.29094,0.66612 -0.002,0.008 -0.003,0.0169 -0.004,0.0254 l -0.52916,6.68951 c -0.0373,0.4710901 -0.33924,0.8009801 -0.79479,0.8009801 -0.4556,0 -0.75899,-0.32962 -0.79478,-0.7989101 l -0.51005,-6.69314 c -0.001,-0.0106 -0.002,-0.0212 -0.004,-0.0315 -0.0466,-0.33864 0.051,-0.49168 0.28163,-0.65993 0.23066,-0.16822 0.62627,-0.28334 1.0294,-0.28318 z m 3.97237,0.78703 c -0.72127,-0.0159 -0.72127,1.07421 0,1.05833 h 3.1641502 c 0.72125,0.0159 0.72125,-1.07421 0,-1.05833 z m -3.95687,9.2578501 c -1.0169,0 -1.85156,0.83465 -1.85156,1.85155 v 0.01 c 0,1.0169 0.83466,1.85158 1.85156,1.85158 1.0169,0 1.85157,-0.83468 1.85157,-1.85158 v -0.01 c 0,-1.0169 -0.83467,-1.85155 -1.85157,-1.85155 z m 0,1.05833 c 0.44889,0 0.79324,0.34433 0.79324,0.79322 v 0.01 c 0,0.44889 -0.34435,0.79325 -0.79324,0.79325 -0.4489,0 -0.79478,-0.34436 -0.79478,-0.79325 v -0.01 c 0,-0.44889 0.34588,-0.79322 0.79478,-0.79322 z"
       id="path2"
       inkscape:connector-curvature="0" />
  </g>
</svg>
