<?xml version="1.0" encoding="UTF-8" standalone="no"?>
<svg
   xmlns:dc="http://purl.org/dc/elements/1.1/"
   xmlns:cc="http://creativecommons.org/ns#"
   xmlns:rdf="http://www.w3.org/1999/02/22-rdf-syntax-ns#"
   xmlns:svg="http://www.w3.org/2000/svg"
   xmlns="http://www.w3.org/2000/svg"
   xmlns:sodipodi="http://sodipodi.sourceforge.net/DTD/sodipodi-0.dtd"
   xmlns:inkscape="http://www.inkscape.org/namespaces/inkscape"
   version="1.1"
   x="0px"
   y="0px"
   viewBox="0 0 32 32"
   xml:space="preserve"
   id="svg14"
   sodipodi:docname="noun_Information_311550.svg"
   width="32"
   height="32"
   inkscape:version="0.92.5 (2060ec1f9f, 2020-04-08)"><metadata
     id="metadata20"><rdf:RDF><cc:Work
         rdf:about=""><dc:format>image/svg+xml</dc:format><dc:type
           rdf:resource="http://purl.org/dc/dcmitype/StillImage" /><dc:title></dc:title></cc:Work></rdf:RDF></metadata><defs
     id="defs18" /><sodipodi:namedview
     pagecolor="#ffffff"
     bordercolor="#666666"
     borderopacity="1"
     objecttolerance="10"
     gridtolerance="10"
     guidetolerance="10"
     inkscape:pageopacity="0"
     inkscape:pageshadow="2"
     inkscape:window-width="1920"
     inkscape:window-height="1016"
     id="namedview16"
     showgrid="false"
     fit-margin-top="0"
     fit-margin-left="0"
     fit-margin-right="0"
     fit-margin-bottom="0"
     inkscape:zoom="5.9"
     inkscape:cx="16"
     inkscape:cy="12"
     inkscape:window-x="0"
     inkscape:window-y="27"
     inkscape:window-maximized="1"
     inkscape:current-layer="svg14" /><g
     id="g8"
     style="fill:#ffffff"><path
       d="M 16,0 C 7.2,0 0,7.2 0,16 0,24.8 7.2,32 16,32 24.8,32 32,24.8 32,16 32,7.2 24.8,0 16,0 Z m 0,29 C 8.8,29 3,23.2 3,16 3,8.8 8.8,3 16,3 c 7.2,0 13,5.8 13,13 0,7.2 -5.8,13 -13,13 z"
       id="path2"
       inkscape:connector-curvature="0"
       style="fill:#ffffff" /><rect
       x="14"
       y="14"
       width="4"
       height="10"
       id="rect4"
       style="fill:#ffffff" /><circle
       cx="16"
       cy="10"
       r="2"
       id="circle6"
       style="fill:#ffffff" /></g></svg>