<?xml version="1.0" encoding="UTF-8" standalone="no"?>
<svg
   xmlns:dc="http://purl.org/dc/elements/1.1/"
   xmlns:cc="http://creativecommons.org/ns#"
   xmlns:rdf="http://www.w3.org/1999/02/22-rdf-syntax-ns#"
   xmlns:svg="http://www.w3.org/2000/svg"
   xmlns="http://www.w3.org/2000/svg"
   xmlns:sodipodi="http://sodipodi.sourceforge.net/DTD/sodipodi-0.dtd"
   xmlns:inkscape="http://www.inkscape.org/namespaces/inkscape"
   version="1.1"
   x="0px"
   y="0px"
   viewBox="0 0 94.900002 94.800001"
   xml:space="preserve"
   id="svg40"
   sodipodi:docname="predictive-icon.svg"
   width="94.900002"
   height="94.800003"
   inkscape:version="0.92.5 (2060ec1f9f, 2020-04-08)"><metadata
     id="metadata46"><rdf:RDF><cc:Work
         rdf:about=""><dc:format>image/svg+xml</dc:format><dc:type
           rdf:resource="http://purl.org/dc/dcmitype/StillImage" /><dc:title></dc:title></cc:Work></rdf:RDF></metadata><defs
     id="defs44" /><sodipodi:namedview
     pagecolor="#ffffff"
     bordercolor="#666666"
     borderopacity="1"
     objecttolerance="10"
     gridtolerance="10"
     guidetolerance="10"
     inkscape:pageopacity="0"
     inkscape:pageshadow="2"
     inkscape:window-width="1920"
     inkscape:window-height="1016"
     id="namedview42"
     showgrid="false"
     fit-margin-top="0"
     fit-margin-left="0"
     fit-margin-right="0"
     fit-margin-bottom="0"
     inkscape:zoom="0.118"
     inkscape:cx="47.4"
     inkscape:cy="34.900005"
     inkscape:window-x="0"
     inkscape:window-y="27"
     inkscape:window-maximized="1"
     inkscape:current-layer="svg40" /><path
     inkscape:connector-curvature="0"
     id="path12"
     d="m 47.4,14.6 c 1.8,0 3.3,-1.5 3.3,-3.3 v -8 C 50.7,1.5 49.2,0 47.4,0 45.6,0 44.1,1.4 44.1,3.2 v 8 c 0,1.9 1.5,3.4 3.3,3.4 z"
     style="fill:#ffffff" /><path
     inkscape:connector-curvature="0"
     id="path14"
     d="m 19.5,24.2 c 0.6,0.6 1.5,1 2.4,1 0.9,0 1.7,-0.3 2.4,-1 1.3,-1.3 1.3,-3.4 0,-4.7 l -5.7,-5.7 c -1.3,-1.3 -3.4,-1.3 -4.7,0 -1.3,1.3 -1.3,3.4 0,4.7 z"
     style="fill:#ffffff" /><path
     inkscape:connector-curvature="0"
     id="path16"
     d="m 14.6,47.4 c 0,-1.8 -1.5,-3.3 -3.3,-3.3 h -8 c -1.8,0 -3.3,1.5 -3.3,3.3 0,1.8 1.5,3.3 3.3,3.3 h 8 c 1.8,0 3.3,-1.5 3.3,-3.3 z"
     style="fill:#ffffff" /><path
     inkscape:connector-curvature="0"
     id="path18"
     d="m 19.5,70.6 -5.7,5.7 c -1.3,1.3 -1.3,3.4 0,4.7 0.6,0.6 1.5,1 2.4,1 0.9,0 1.7,-0.3 2.4,-1 l 5.7,-5.7 c 1.3,-1.3 1.3,-3.4 0,-4.7 -1.4,-1.3 -3.5,-1.3 -4.8,0 z"
     style="fill:#ffffff" /><path
     inkscape:connector-curvature="0"
     id="path20"
     d="m 47.4,80.2 c -1.8,0 -3.3,1.5 -3.3,3.3 v 8 c 0,1.8 1.5,3.3 3.3,3.3 1.8,0 3.3,-1.5 3.3,-3.3 v -8 c 0,-1.8 -1.5,-3.3 -3.3,-3.3 z"
     style="fill:#ffffff" /><path
     inkscape:connector-curvature="0"
     id="path22"
     d="m 75.3,70.6 c -1.3,-1.3 -3.4,-1.3 -4.7,0 -1.3,1.3 -1.3,3.4 0,4.7 l 5.7,5.7 c 0.6,0.6 1.5,1 2.4,1 0.9,0 1.7,-0.3 2.4,-1 1.3,-1.3 1.3,-3.4 0,-4.7 z"
     style="fill:#ffffff" /><path
     inkscape:connector-curvature="0"
     id="path24"
     d="m 91.6,44.1 h -8 c -1.8,0 -3.3,1.5 -3.3,3.3 0,1.8 1.5,3.3 3.3,3.3 h 8 c 1.8,0 3.3,-1.5 3.3,-3.3 0,-1.8 -1.5,-3.3 -3.3,-3.3 z"
     style="fill:#ffffff" /><path
     inkscape:connector-curvature="0"
     id="path26"
     d="m 72.9,25.2 c 0.9,0 1.7,-0.3 2.4,-1 L 81,18.5 c 1.3,-1.3 1.3,-3.4 0,-4.7 -1.3,-1.3 -3.4,-1.3 -4.7,0 l -5.7,5.7 c -1.3,1.3 -1.3,3.4 0,4.7 0.6,0.7 1.5,1 2.3,1 z"
     style="fill:#ffffff" /><path
     inkscape:connector-curvature="0"
     id="path28"
     d="M 73.1,45.2 C 72.7,44.7 61.6,31.8 47.4,31.8 c -14.2,0 -25.3,12.9 -25.7,13.5 -1,1.2 -1,3.1 0,4.3 0.5,0.5 11.5,13.5 25.7,13.5 14.2,0 25.3,-12.9 25.7,-13.5 1.1,-1.3 1.1,-3.1 0,-4.4 z m -28,-6.7 c 1.7,0 3.1,1.4 3.1,3.1 0,1.7 -1.4,3.1 -3.1,3.1 -1.7,0 -3.1,-1.4 -3.1,-3.1 0,-1.7 1.4,-3.1 3.1,-3.1 z m 2.3,17.9 c -8,0 -15.2,-5.8 -18.5,-9 1.9,-1.8 5.1,-4.5 9,-6.4 -0.1,0.6 -0.2,1.3 -0.2,2 0,5.4 4.4,9.8 9.8,9.8 5.4,0 9.8,-4.4 9.8,-9.8 0,-0.7 -0.1,-1.4 -0.2,-2 3.8,1.9 7.1,4.6 9,6.4 -3.6,3.2 -10.7,9 -18.7,9 z"
     style="fill:#ffffff" /></svg>