<?xml version="1.0" encoding="UTF-8" standalone="no"?>
<svg
   xmlns:dc="http://purl.org/dc/elements/1.1/"
   xmlns:cc="http://creativecommons.org/ns#"
   xmlns:rdf="http://www.w3.org/1999/02/22-rdf-syntax-ns#"
   xmlns:svg="http://www.w3.org/2000/svg"
   xmlns="http://www.w3.org/2000/svg"
   xmlns:sodipodi="http://sodipodi.sourceforge.net/DTD/sodipodi-0.dtd"
   xmlns:inkscape="http://www.inkscape.org/namespaces/inkscape"
   version="1.1"
   x="0px"
   y="0px"
   viewBox="0 0 85.408501 85.412003"
   enable-background="new 0 0 100 100"
   xml:space="preserve"
   id="svg8"
   sodipodi:docname="noun_Band Aid_48168.svg"
   width="85.408501"
   height="85.412003"
   inkscape:version="0.92.5 (2060ec1f9f, 2020-04-08)"><metadata
     id="metadata14"><rdf:RDF><cc:Work
         rdf:about=""><dc:format>image/svg+xml</dc:format><dc:type
           rdf:resource="http://purl.org/dc/dcmitype/StillImage" /><dc:title></dc:title></cc:Work></rdf:RDF></metadata><defs
     id="defs12" /><sodipodi:namedview
     pagecolor="#ffffff"
     bordercolor="#666666"
     borderopacity="1"
     objecttolerance="10"
     gridtolerance="10"
     guidetolerance="10"
     inkscape:pageopacity="0"
     inkscape:pageshadow="2"
     inkscape:window-width="874"
     inkscape:window-height="480"
     id="namedview10"
     showgrid="false"
     fit-margin-top="0"
     fit-margin-left="0"
     fit-margin-right="0"
     fit-margin-bottom="0"
     inkscape:zoom="1.888"
     inkscape:cx="42.76325"
     inkscape:cy="30.258"
     inkscape:window-x="0"
     inkscape:window-y="27"
     inkscape:window-maximized="0"
     inkscape:current-layer="svg8" /><path
     d="m 79.65525,8.819 c 7.671,7.675 7.671,20.226 0,27.901 l -42.939,42.935 c -7.67,7.676 -20.226,7.676 -27.896,0 l -3.067,-3.062 c -7.671,-7.676 -7.671,-20.226 0,-27.901 l 42.939,-42.935 c 7.671,-7.676 20.227,-7.676 27.896,0 z m -60.29,32.092 c -0.99,0.997 -0.99,2.601 0.002,3.588 0.99,0.997 2.596,0.997 3.588,0 0.99,-0.987 0.99,-2.591 0,-3.588 -0.992,-0.996 -2.598,-0.987 -3.59,0 z m 7.181,-7.176 c -0.992,0.988 -0.992,2.601 0,3.588 0.99,0.988 2.599,0.988 3.591,0 0.99,-0.988 0.99,-2.601 0,-3.588 -0.992,-0.997 -2.601,-0.997 -3.591,0 z m 7.179,-7.186 c -0.992,0.997 -0.992,2.601 0,3.598 0.99,0.988 2.599,0.988 3.591,0 0.99,-0.997 0.99,-2.601 0,-3.588 -0.992,-0.998 -2.6,-0.998 -3.591,-0.01 z m 7.18,-7.177 c -0.99,0.997 -0.992,2.601 0.002,3.588 0.99,0.997 2.598,0.997 3.588,0 0.992,-0.988 0.992,-2.592 0,-3.588 -0.992,-0.988 -2.598,-0.988 -3.59,0 z m -14.359,21.539 c -0.992,0.997 -0.992,2.601 0,3.598 0.99,0.987 2.599,0.987 3.591,-0.01 0.99,-0.987 0.99,-2.591 0,-3.588 -0.992,-0.996 -2.601,-0.987 -3.591,0 z m 7.179,-7.176 c -0.992,0.988 -0.992,2.601 0,3.588 0.99,0.988 2.599,0.988 3.591,0 0.992,-0.988 0.99,-2.601 0,-3.588 -0.992,-0.997 -2.598,-0.997 -3.591,0 z m 7.18,-7.186 c -0.99,0.997 -0.992,2.601 0.002,3.598 0.99,0.988 2.598,0.988 3.588,0 0.992,-0.997 0.992,-2.601 0,-3.588 -0.992,-0.998 -2.598,-0.998 -3.59,-0.01 z m -14.359,21.548 c -0.992,0.988 -0.992,2.592 0,3.589 0.992,0.987 2.599,0.987 3.591,0 0.992,-0.988 0.992,-2.601 0,-3.589 -0.992,-0.997 -2.601,-0.997 -3.591,0 z m 7.179,-7.186 c -0.992,0.997 -0.992,2.601 0,3.598 0.992,0.987 2.601,0.987 3.593,0 0.99,-0.997 0.99,-2.601 -0.002,-3.598 -0.992,-0.987 -2.598,-0.987 -3.591,0 z m 7.18,-7.176 c -0.99,0.988 -0.99,2.601 0.002,3.588 0.99,0.997 2.598,0.997 3.59,0 0.99,-0.988 0.99,-2.601 -0.002,-3.588 -0.99,-0.988 -2.598,-0.997 -3.59,0 z m 7.179,-7.186 c -0.988,0.997 -0.988,2.601 0.004,3.598 0.992,0.988 2.597,0.988 3.589,0 0.992,-0.997 0.992,-2.601 0,-3.588 -0.992,-0.998 -2.597,-0.998 -3.593,-0.01 z m -14.356,21.548 c -0.992,0.988 -0.995,2.601 -0.002,3.589 0.992,0.987 2.601,0.987 3.593,0 0.99,-0.988 0.99,-2.601 -0.002,-3.589 -0.993,-0.997 -2.599,-0.997 -3.589,0 z m 7.181,-7.186 c -0.992,0.997 -0.994,2.601 -0.002,3.598 0.99,0.987 2.598,0.987 3.59,0 0.992,-0.997 0.99,-2.601 0,-3.598 -0.992,-0.987 -2.598,-0.987 -3.588,0 z m 7.179,-7.176 c -0.992,0.988 -0.992,2.601 0,3.588 0.992,0.997 2.597,0.997 3.589,0 0.992,-0.988 0.992,-2.601 0,-3.588 -0.992,-0.987 -2.597,-0.988 -3.589,0 z m -14.36,21.539 c -0.992,0.997 -0.992,2.601 0,3.589 0.99,0.997 2.598,0.997 3.591,0 0.99,-0.988 0.99,-2.601 0,-3.589 -0.995,-0.987 -2.601,-0.987 -3.591,0 z m 7.181,-7.177 c -0.992,0.988 -0.994,2.601 0,3.589 0.988,0.987 2.596,0.987 3.588,0 0.992,-0.988 0.99,-2.601 0,-3.589 -0.992,-0.997 -2.598,-0.997 -3.588,0 z m 7.179,-7.186 c -0.992,0.997 -0.992,2.601 0,3.598 0.992,0.987 2.597,0.987 3.589,0 0.992,-0.997 0.992,-2.601 0.004,-3.598 -0.996,-0.987 -2.601,-0.987 -3.593,0 z m 7.182,-7.176 c -0.997,0.988 -0.997,2.601 0,3.588 0.987,0.997 2.601,0.997 3.589,0 0.992,-0.988 0.987,-2.601 0,-3.588 -0.993,-0.988 -2.602,-0.988 -3.589,0 z m -14.361,21.539 c -0.992,0.997 -0.994,2.601 0,3.589 0.992,0.997 2.596,0.997 3.588,0 0.992,-0.988 0.992,-2.592 0,-3.589 -0.992,-0.987 -2.598,-0.987 -3.588,0 z m 7.179,-7.177 c -0.992,0.988 -0.992,2.601 0,3.589 0.992,0.987 2.597,0.987 3.593,0 0.988,-0.988 0.988,-2.601 0,-3.589 -0.996,-0.997 -2.601,-0.997 -3.593,0 z m 7.182,-7.186 c -0.997,0.997 -0.997,2.601 0,3.598 0.987,0.987 2.601,0.987 3.589,0 0.992,-0.997 0.992,-2.601 0,-3.598 -0.993,-0.987 -2.602,-0.987 -3.589,0 z m -14.361,21.541 c -0.992,0.996 -0.992,2.601 0,3.597 0.992,0.988 2.599,0.988 3.588,0 0.992,-0.996 0.992,-2.601 0,-3.588 -0.992,-0.997 -2.598,-0.997 -3.588,-0.009 z m 7.179,-7.178 c -0.992,0.997 -0.99,2.601 0,3.589 0.992,0.997 2.597,0.997 3.593,0 0.988,-0.988 0.988,-2.592 0,-3.589 -0.996,-0.987 -2.601,-0.987 -3.593,0 z m 7.182,-7.177 c -0.997,0.988 -0.992,2.601 0,3.589 0.987,0.996 2.601,0.996 3.589,0 0.992,-0.988 0.992,-2.601 0,-3.589 -0.989,-0.997 -2.602,-0.997 -3.589,0 z m 7.177,-7.186 c -0.987,0.997 -0.987,2.601 0,3.598 0.997,0.987 2.601,0.987 3.593,0 0.992,-0.997 0.992,-2.601 0,-3.598 -0.993,-0.987 -2.601,-0.987 -3.593,0 z"
     id="path2"
     inkscape:connector-curvature="0"
     style="fill:#ffffff" /></svg>