<?xml version="1.0" encoding="UTF-8" standalone="no"?>
<svg
   xmlns:dc="http://purl.org/dc/elements/1.1/"
   xmlns:cc="http://creativecommons.org/ns#"
   xmlns:rdf="http://www.w3.org/1999/02/22-rdf-syntax-ns#"
   xmlns:svg="http://www.w3.org/2000/svg"
   xmlns="http://www.w3.org/2000/svg"
   xmlns:sodipodi="http://sodipodi.sourceforge.net/DTD/sodipodi-0.dtd"
   xmlns:inkscape="http://www.inkscape.org/namespaces/inkscape"
   version="1.1"
   x="0px"
   y="0px"
   viewBox="0 0 100 99.999999"
   xml:space="preserve"
   id="svg10"
   sodipodi:docname="right_most.svg"
   width="100"
   height="100"
   inkscape:version="0.92.5 (2060ec1f9f, 2020-04-08)"><metadata
     id="metadata16"><rdf:RDF><cc:Work
         rdf:about=""><dc:format>image/svg+xml</dc:format><dc:type
           rdf:resource="http://purl.org/dc/dcmitype/StillImage" /><dc:title /></cc:Work></rdf:RDF></metadata><defs
     id="defs14" /><sodipodi:namedview
     pagecolor="#ffffff"
     bordercolor="#666666"
     borderopacity="1"
     objecttolerance="10"
     gridtolerance="10"
     guidetolerance="10"
     inkscape:pageopacity="0"
     inkscape:pageshadow="2"
     inkscape:window-width="1920"
     inkscape:window-height="1043"
     id="namedview12"
     showgrid="false"
     fit-margin-top="0"
     fit-margin-left="0"
     fit-margin-right="0"
     fit-margin-bottom="0"
     inkscape:zoom="1.888"
     inkscape:cx="-69.96822"
     inkscape:cy="30.920695"
     inkscape:window-x="1920"
     inkscape:window-y="0"
     inkscape:window-maximized="1"
     inkscape:current-layer="svg10" /><g
     id="g4"
     transform="matrix(-1,0,0,1,100,-0.0690005)"
     style="fill:#ffffff"><path
       d="M 42.17,70.782 H 80.9 V 80.03 H 42.17 l 10.08,6.047 v 9.992 L 23.901,79.06 V 71.752 L 52.25,54.743 v 9.991 z M 100,3.931 V 51.38 H 52.551 V 3.931 Z m -7.012,7.011 H 59.563 V 44.368 H 92.989 V 10.942 Z m -45.513,28.64 h -7.023 v 4.786 H 35.681 V 51.38 H 47.474 V 39.582 Z M 40.452,15.707 h 7.023 V 3.931 H 35.681 v 7.012 h 4.771 z m -40.427,0 h 7.012 v -4.764 h 4.73 V 3.931 H 0.025 Z M 7.037,39.582 H 0.025 V 51.38 h 11.742 v -7.012 h -4.73 z m 8.027,11.798 h 7.012 v -7.012 h -7.012 z m 17.32,-7.012 h -7.011 v 7.012 h 7.011 z M 15.064,10.942 h 7.012 V 3.931 h -7.012 z m 17.32,-7.011 h -7.011 v 7.012 h 7.011 z m 8.053,32.384 h 7.012 v -7.012 h -7.012 z m 7.012,-17.32 h -7.012 v 7.012 h 7.012 z M 7.012,29.304 H 0 v 7.012 h 7.012 z m 0,-10.309 H 0 v 7.012 h 7.012 z"
       id="path2"
       inkscape:connector-curvature="0"
       style="fill:#ffffff" /></g></svg>