<?xml version="1.0" encoding="UTF-8" standalone="no"?>
<svg
   xmlns:dc="http://purl.org/dc/elements/1.1/"
   xmlns:cc="http://creativecommons.org/ns#"
   xmlns:rdf="http://www.w3.org/1999/02/22-rdf-syntax-ns#"
   xmlns:svg="http://www.w3.org/2000/svg"
   xmlns="http://www.w3.org/2000/svg"
   xmlns:sodipodi="http://sodipodi.sourceforge.net/DTD/sodipodi-0.dtd"
   xmlns:inkscape="http://www.inkscape.org/namespaces/inkscape"
   version="1.1"
   x="0px"
   y="0px"
   viewBox="0 0 89.999999 90"
   xml:space="preserve"
   id="svg12"
   sodipodi:docname="noun_shift_3536462.svg"
   width="90"
   height="90"
   inkscape:version="0.92.5 (2060ec1f9f, 2020-04-08)"><metadata
     id="metadata18"><rdf:RDF><cc:Work
         rdf:about=""><dc:format>image/svg+xml</dc:format><dc:type
           rdf:resource="http://purl.org/dc/dcmitype/StillImage" /><dc:title></dc:title></cc:Work></rdf:RDF></metadata><defs
     id="defs16" /><sodipodi:namedview
     pagecolor="#ffffff"
     bordercolor="#666666"
     borderopacity="1"
     objecttolerance="10"
     gridtolerance="10"
     guidetolerance="10"
     inkscape:pageopacity="0"
     inkscape:pageshadow="2"
     inkscape:window-width="1920"
     inkscape:window-height="1016"
     id="namedview14"
     showgrid="false"
     fit-margin-top="0"
     fit-margin-left="0"
     fit-margin-right="0"
     fit-margin-bottom="0"
     inkscape:zoom="1.888"
     inkscape:cx="39.475"
     inkscape:cy="32.5"
     inkscape:window-x="0"
     inkscape:window-y="27"
     inkscape:window-maximized="1"
     inkscape:current-layer="svg12" /><g
     id="g6"
     transform="translate(-4.525,-5)"
     style="fill:#ffffff"><path
       d="m 17.3,52 h 47.2 c 1.1,0 2,-0.9 2,-2 0,-1.1 -0.9,-2 -2,-2 H 17.3 l 9.5,-9.6 c 0.8,-0.8 0.8,-2 0,-2.8 -0.8,-0.8 -2,-0.8 -2.8,0 l -12.9,13 c 0,0 0,0 0,0 v 0 c 0,0 0,0 0,0 -0.1,0.1 -0.2,0.2 -0.2,0.3 0,0.1 -0.1,0.1 -0.1,0.2 0,0.1 -0.1,0.1 -0.1,0.2 0,0.1 0,0.1 -0.1,0.2 0,0.1 0,0.1 0,0.2 -0.1,0.3 -0.1,0.5 0,0.8 0,0.1 0,0.1 0,0.2 0,0.1 0,0.1 0.1,0.2 0,0.1 0.1,0.1 0.1,0.2 0,0.1 0.1,0.1 0.1,0.2 0.1,0.1 0.1,0.2 0.2,0.2 0,0 0,0 0.1,0.1 l 12.9,13 c 0.4,0.4 0.9,0.6 1.4,0.6 0.5,0 1,-0.2 1.4,-0.6 0.8,-0.8 0.8,-2 0,-2.8 z"
       id="path2"
       inkscape:connector-curvature="0"
       style="fill:#ffffff" /><path
       d="m 87.5,5 h -46 c -1.1,0 -2,0.9 -2,2 v 31 c 0,1.1 0.9,2 2,2 1.1,0 2,-0.9 2,-2 V 9 h 42 v 82 h -42 V 62 c 0,-1.1 -0.9,-2 -2,-2 -1.1,0 -2,0.9 -2,2 v 31 c 0,1.1 0.9,2 2,2 h 46 c 1.1,0 2,-0.9 2,-2 V 7 c 0,-1.1 -0.9,-2 -2,-2 z"
       id="path4"
       inkscape:connector-curvature="0"
       style="fill:#ffffff" /></g></svg>