<?xml version="1.0" encoding="UTF-8" standalone="no"?>
<svg
   xmlns:dc="http://purl.org/dc/elements/1.1/"
   xmlns:cc="http://creativecommons.org/ns#"
   xmlns:rdf="http://www.w3.org/1999/02/22-rdf-syntax-ns#"
   xmlns:svg="http://www.w3.org/2000/svg"
   xmlns="http://www.w3.org/2000/svg"
   xmlns:sodipodi="http://sodipodi.sourceforge.net/DTD/sodipodi-0.dtd"
   xmlns:inkscape="http://www.inkscape.org/namespaces/inkscape"
   version="1.1"
   x="0px"
   y="0px"
   viewBox="0 0 87.470154 87.470154"
   enable-background="new 0 0 100 100"
   xml:space="preserve"
   id="svg8"
   sodipodi:docname="top_down.svg"
   width="87.470154"
   height="87.470154"
   inkscape:version="0.92.5 (2060ec1f9f, 2020-04-08)"><metadata
     id="metadata14"><rdf:RDF><cc:Work
         rdf:about=""><dc:format>image/svg+xml</dc:format><dc:type
           rdf:resource="http://purl.org/dc/dcmitype/StillImage" /><dc:title></dc:title></cc:Work></rdf:RDF></metadata><defs
     id="defs12" /><sodipodi:namedview
     pagecolor="#ffffff"
     bordercolor="#666666"
     borderopacity="1"
     objecttolerance="10"
     gridtolerance="10"
     guidetolerance="10"
     inkscape:pageopacity="0"
     inkscape:pageshadow="2"
     inkscape:window-width="1920"
     inkscape:window-height="1016"
     id="namedview10"
     showgrid="false"
     fit-margin-top="0"
     fit-margin-left="0"
     fit-margin-right="0"
     fit-margin-bottom="0"
     inkscape:zoom="1.888"
     inkscape:cx="-88.173542"
     inkscape:cy="31.235"
     inkscape:window-x="0"
     inkscape:window-y="27"
     inkscape:window-maximized="1"
     inkscape:current-layer="svg8" /><path
     d="M 12.39,0.44600045 C 12.792,4.4760299e-7 13.309,4.4760299e-7 13.309,4.4760299e-7 h 63.022 c 0,0 0.56,-0.002999997603 1.02,0.48700000239701 0.357,0.38 0.357,0.91999995 0.357,0.91999995 V 10.947 c 0,0 -0.001,0.403 -0.39,0.834 -0.402,0.446 -0.919,0.446 -0.919,0.446 H 50.943 v 52.674 l 9.663,-9.663 c 0.614,-0.614 1.62,-0.614 2.234,0 l 6.377,6.377 c 0.614,0.614 0.614,1.62 0,2.234 L 46.052,87.015001 c -0.327,0.328 -0.766,0.475 -1.198,0.453 -0.432,0.022 -0.871,-0.125 -1.198,-0.453 L 20.491,63.85 c -0.614,-0.614 -0.614,-1.62 0,-2.234 l 6.377,-6.377 c 0.614,-0.614 1.62,-0.614 2.234,0 l 9.663,9.663 V 12.227 H 13.377 c 0,0 -0.56,0.003 -1.02,-0.487 C 12,11.36 12,10.82 12,10.82 V 1.2800004 c 0,0 10e-4,-0.40299995 0.39,-0.83399995 z"
     id="path2"
     inkscape:connector-curvature="0"
     style="fill:#ffffff" /></svg>