<?xml version="1.0" encoding="UTF-8" standalone="no"?>
<svg
   xmlns:dc="http://purl.org/dc/elements/1.1/"
   xmlns:cc="http://creativecommons.org/ns#"
   xmlns:rdf="http://www.w3.org/1999/02/22-rdf-syntax-ns#"
   xmlns:svg="http://www.w3.org/2000/svg"
   xmlns="http://www.w3.org/2000/svg"
   xmlns:sodipodi="http://sodipodi.sourceforge.net/DTD/sodipodi-0.dtd"
   xmlns:inkscape="http://www.inkscape.org/namespaces/inkscape"
   version="1.1"
   x="0px"
   y="0px"
   viewBox="0 0 89.938004 89.939003"
   enable-background="new 0 0 100 100"
   xml:space="preserve"
   id="svg72"
   sodipodi:docname="universal.svg"
   width="89.938004"
   height="89.939003"
   inkscape:version="0.92.5 (2060ec1f9f, 2020-04-08)"><metadata
     id="metadata78"><rdf:RDF><cc:Work
         rdf:about=""><dc:format>image/svg+xml</dc:format><dc:type
           rdf:resource="http://purl.org/dc/dcmitype/StillImage" /><dc:title></dc:title></cc:Work></rdf:RDF></metadata><defs
     id="defs76" /><sodipodi:namedview
     pagecolor="#ffffff"
     bordercolor="#666666"
     borderopacity="1"
     objecttolerance="10"
     gridtolerance="10"
     guidetolerance="10"
     inkscape:pageopacity="0"
     inkscape:pageshadow="2"
     inkscape:window-width="874"
     inkscape:window-height="480"
     id="namedview74"
     showgrid="false"
     fit-margin-top="0"
     fit-margin-left="0"
     fit-margin-right="0"
     fit-margin-bottom="0"
     inkscape:zoom="1.888"
     inkscape:cx="44.97"
     inkscape:cy="32.469001"
     inkscape:window-x="0"
     inkscape:window-y="27"
     inkscape:window-maximized="0"
     inkscape:current-layer="svg72" /><circle
     cx="44.970001"
     cy="44.970001"
     r="2.763"
     id="circle2"
     style="fill:#ffffff" /><circle
     cx="44.970001"
     cy="33.637001"
     r="3.5"
     id="circle4"
     style="fill:#ffffff" /><circle
     cx="44.970001"
     cy="20.470001"
     r="4.5"
     id="circle6"
     style="fill:#ffffff" /><circle
     cx="32.636002"
     cy="14.727"
     r="4.5"
     id="circle8"
     style="fill:#ffffff" /><circle
     cx="14.863999"
     cy="32.306"
     r="4.5"
     id="circle10"
     style="fill:#ffffff" /><circle
     cx="14.727"
     cy="57.304001"
     r="4.5"
     id="circle12"
     style="fill:#ffffff" /><circle
     cx="32.306"
     cy="75.077003"
     r="4.5"
     id="circle14"
     style="fill:#ffffff" /><circle
     cx="57.304001"
     cy="75.214005"
     r="4.5"
     id="circle16"
     style="fill:#ffffff" /><path
     d="m 78.26,54.452 c 1.757,1.759 1.757,4.606 -0.002,6.365 -1.756,1.754 -4.604,1.757 -6.363,-0.002 -1.757,-1.757 -1.757,-4.607 -0.002,-6.363 1.76,-1.758 4.608,-1.756 6.367,0 z"
     id="path18"
     inkscape:connector-curvature="0"
     style="fill:#ffffff" /><path
     d="m 75.215,28.136 c 2.485,0.001 4.499,2.015 4.499,4.502 -0.001,2.482 -2.014,4.498 -4.501,4.498 -2.484,0 -4.5,-2.016 -4.501,-4.498 10e-4,-2.488 2.017,-4.501 4.503,-4.502 z"
     id="path20"
     inkscape:connector-curvature="0"
     style="fill:#ffffff" /><path
     d="m 54.452,11.68 c 1.759,-1.7569997 4.606,-1.7569997 6.365,0.002 1.754,1.756 1.757,4.604 -0.002,6.363 -1.757,1.757 -4.607,1.757 -6.363,0.002 -1.758,-1.76 -1.756,-4.608 0,-6.367 z"
     id="path22"
     inkscape:connector-curvature="0"
     style="fill:#ffffff" /><circle
     cx="44.970001"
     cy="6"
     r="6"
     id="circle24"
     style="fill:#ffffff" /><circle
     cx="36.955002"
     cy="36.956001"
     r="3.5"
     id="circle26"
     style="fill:#ffffff" /><circle
     cx="27.645"
     cy="27.645"
     r="4.5"
     id="circle28"
     style="fill:#ffffff" /><circle
     cx="17.414001"
     cy="17.414001"
     r="6"
     id="circle30"
     style="fill:#ffffff" /><circle
     cx="33.636002"
     cy="44.970001"
     r="3.5"
     id="circle32"
     style="fill:#ffffff" /><circle
     cx="20.469002"
     cy="44.970001"
     r="4.5"
     id="circle34"
     style="fill:#ffffff" /><circle
     cx="6"
     cy="44.970001"
     r="6"
     id="circle36"
     style="fill:#ffffff" /><circle
     cx="36.955002"
     cy="52.985001"
     r="3.4990001"
     id="circle38"
     style="fill:#ffffff" /><circle
     cx="27.645"
     cy="62.294998"
     r="4.5"
     id="circle40"
     style="fill:#ffffff" /><circle
     cx="17.414001"
     cy="72.526001"
     r="6"
     id="circle42"
     style="fill:#ffffff" /><circle
     cx="44.970001"
     cy="56.304001"
     r="3.4990001"
     id="circle44"
     style="fill:#ffffff" /><circle
     cx="44.970001"
     cy="69.470001"
     r="4.5"
     id="circle46"
     style="fill:#ffffff" /><circle
     cx="44.970001"
     cy="83.940002"
     r="5.9990001"
     id="circle48"
     style="fill:#ffffff" /><circle
     cx="52.985001"
     cy="52.985001"
     r="3.4990001"
     id="circle50"
     style="fill:#ffffff" /><path
     d="m 65.477,59.113 c 1.759,1.759 1.758,4.607 0,6.364 -1.757,1.758 -4.606,1.759 -6.365,0 -1.757,-1.757 -1.754,-4.607 0,-6.363 1.759,-1.757 4.607,-1.759 6.365,-10e-4 z"
     id="path52"
     inkscape:connector-curvature="0"
     style="fill:#ffffff" /><circle
     cx="72.526001"
     cy="72.526001"
     r="5.9990001"
     id="circle54"
     style="fill:#ffffff" /><circle
     cx="56.304001"
     cy="44.970001"
     r="3.4990001"
     id="circle56"
     style="fill:#ffffff" /><circle
     cx="69.470001"
     cy="44.970001"
     r="4.5009999"
     id="circle58"
     style="fill:#ffffff" /><circle
     cx="83.939003"
     cy="44.970001"
     r="5.9990001"
     id="circle60"
     style="fill:#ffffff" /><circle
     cx="52.985001"
     cy="36.956001"
     r="3.4990001"
     id="circle62"
     style="fill:#ffffff" /><path
     d="m 59.112,24.463 c 1.759,-1.758 4.607,-1.757 6.365,0 1.757,1.757 1.759,4.606 0,6.365 -1.757,1.757 -4.607,1.754 -6.363,0 -1.757,-1.759 -1.76,-4.607 -0.002,-6.365 z"
     id="path64"
     inkscape:connector-curvature="0"
     style="fill:#ffffff" /><path
     d="m 68.283,13.173 c 2.343,-2.345 6.141,-2.345 8.485,0 2.342,2.342 2.342,6.143 -0.002,8.484 -2.341,2.343 -6.142,2.343 -8.484,0 -2.341,-2.342 -2.342,-6.141 0.001,-8.484 z"
     id="path66"
     inkscape:connector-curvature="0"
     style="fill:#ffffff" /></svg>