<?xml version="1.0" encoding="UTF-8" standalone="no"?>
<svg
   xmlns:dc="http://purl.org/dc/elements/1.1/"
   xmlns:cc="http://creativecommons.org/ns#"
   xmlns:rdf="http://www.w3.org/1999/02/22-rdf-syntax-ns#"
   xmlns:svg="http://www.w3.org/2000/svg"
   xmlns="http://www.w3.org/2000/svg"
   xmlns:sodipodi="http://sodipodi.sourceforge.net/DTD/sodipodi-0.dtd"
   xmlns:inkscape="http://www.inkscape.org/namespaces/inkscape"
   viewBox="0 0 8.4677405 8.4666754"
   version="1.1"
   x="0px"
   y="0px"
   id="svg10"
   sodipodi:docname="danger.svg"
   width="8.467741"
   height="8.4666758"
   inkscape:version="0.92.5 (2060ec1f9f, 2020-04-08)">
  <metadata
     id="metadata16">
    <rdf:RDF>
      <cc:Work
         rdf:about="">
        <dc:format>image/svg+xml</dc:format>
        <dc:type
           rdf:resource="http://purl.org/dc/dcmitype/StillImage" />
        <dc:title></dc:title>
      </cc:Work>
    </rdf:RDF>
  </metadata>
  <defs
     id="defs14" />
  <sodipodi:namedview
     pagecolor="#ffffff"
     bordercolor="#666666"
     borderopacity="1"
     objecttolerance="10"
     gridtolerance="10"
     guidetolerance="10"
     inkscape:pageopacity="0"
     inkscape:pageshadow="2"
     inkscape:window-width="1920"
     inkscape:window-height="1016"
     id="namedview12"
     showgrid="false"
     fit-margin-top="0"
     fit-margin-left="0"
     fit-margin-right="0"
     fit-margin-bottom="0"
     inkscape:zoom="11.149606"
     inkscape:cx="40.109579"
     inkscape:cy="3.1750052"
     inkscape:window-x="0"
     inkscape:window-y="27"
     inkscape:window-maximized="1"
     inkscape:current-layer="svg10" />
  <g
     id="g4"
     transform="translate(5.3727688e-4,4.7396671e-6)"
     style="fill:#ffffff">
    <path
       style="color:#000000;font-style:normal;font-variant:normal;font-weight:normal;font-stretch:normal;font-size:medium;line-height:normal;font-family:sans-serif;font-variant-ligatures:normal;font-variant-position:normal;font-variant-caps:normal;font-variant-numeric:normal;font-variant-alternates:normal;font-feature-settings:normal;text-indent:0;text-align:start;text-decoration:none;text-decoration-line:none;text-decoration-style:solid;text-decoration-color:#000000;letter-spacing:normal;word-spacing:normal;text-transform:none;writing-mode:lr-tb;direction:ltr;text-orientation:mixed;dominant-baseline:auto;baseline-shift:baseline;text-anchor:start;white-space:normal;shape-padding:0;clip-rule:nonzero;display:inline;overflow:visible;visibility:visible;opacity:1;isolation:auto;mix-blend-mode:normal;color-interpolation:sRGB;color-interpolation-filters:linearRGB;solid-color:#000000;solid-opacity:1;vector-effect:none;fill:#ffffff;fill-opacity:1;fill-rule:nonzero;stroke:none;stroke-width:0.52916664;stroke-linecap:round;stroke-linejoin:round;stroke-miterlimit:4;stroke-dasharray:none;stroke-dashoffset:0;stroke-opacity:1;color-rendering:auto;image-rendering:auto;shape-rendering:auto;text-rendering:auto;enable-background:accumulate"
       d="M 4.2343653,-1.025327e-7 A 0.26460979,0.26460979 0 0 0 3.9961371,0.1462429 l -3.96874996,7.9375 a 0.26460979,0.26460979 0 0 0 0.23616125,0.382924 H 8.2010494 a 0.26460979,0.26460979 0 0 0 0.2382281,-0.382924 l -3.968751,-7.9375 A 0.26460979,0.26460979 0 0 0 4.2343653,-1.025327e-7 Z m 0,0.8573110025327 3.5388025,7.080189 H 0.69349631 Z m -0.00413,2.474786 a 0.26460984,0.26460984 0 0 0 -0.027388,0.0016 0.26460984,0.26460984 0 0 0 -0.2340943,0.267684 v 2.429825 a 0.2646485,0.2646485 0 1 0 0.5291666,0 V 3.6013309 A 0.26460984,0.26460984 0 0 0 4.2302312,3.3320969 Z m 0.0031,3.320727 a 0.31059643,0.31059643 0 0 0 -0.3105788,0.310576 0.31059643,0.31059643 0 0 0 0.3105753,0.310576 0.31059643,0.31059643 0 0 0 0.3105753,-0.310576 0.31059643,0.31059643 0 0 0 -0.3105753,-0.310576 z"
       id="path2"
       inkscape:connector-curvature="0" />
  </g>
</svg>
