<?xml version="1.0" encoding="UTF-8" standalone="no"?>
<svg
   xmlns:ns="http://ns.adobe.com/SaveForWeb/1.0/"
   xmlns:dc="http://purl.org/dc/elements/1.1/"
   xmlns:cc="http://creativecommons.org/ns#"
   xmlns:rdf="http://www.w3.org/1999/02/22-rdf-syntax-ns#"
   xmlns:svg="http://www.w3.org/2000/svg"
   xmlns="http://www.w3.org/2000/svg"
   xmlns:sodipodi="http://sodipodi.sourceforge.net/DTD/sodipodi-0.dtd"
   xmlns:inkscape="http://www.inkscape.org/namespaces/inkscape"
   version="1.1"
   x="0px"
   y="0px"
   viewBox="0 0 50 50"
   enable-background="new 0 0 64 64"
   xml:space="preserve"
   id="svg22"
   sodipodi:docname="efficiency.svg"
   width="50"
   height="50"
   inkscape:version="0.92.5 (2060ec1f9f, 2020-04-08)"><defs
     id="defs26" /><sodipodi:namedview
     pagecolor="#ffffff"
     bordercolor="#666666"
     borderopacity="1"
     objecttolerance="10"
     gridtolerance="10"
     guidetolerance="10"
     inkscape:pageopacity="0"
     inkscape:pageshadow="2"
     inkscape:window-width="769"
     inkscape:window-height="480"
     id="namedview24"
     showgrid="false"
     fit-margin-top="0"
     fit-margin-left="0"
     fit-margin-right="0"
     fit-margin-bottom="0"
     inkscape:zoom="2.95"
     inkscape:cx="25"
     inkscape:cy="9"
     inkscape:window-x="0"
     inkscape:window-y="27"
     inkscape:window-maximized="0"
     inkscape:current-layer="svg22" /><metadata
     id="metadata2"><ns:sfw><ns:slices /><ns:sliceSourceBounds
         y="-8160"
         x="-8165"
         width="16389"
         height="16384"
         bottomLeftOrigin="true" /><ns:optimizationSettings><ns:targetSettings
           targetSettingsID="0"
           fileFormat="PNG24Format"><ns:PNG24Format
             transparency="true"
             filtered="false"
             interlaced="false"
             noMatteColor="false"
             matteColor="#FFFFFF" /></ns:targetSettings></ns:optimizationSettings></ns:sfw><rdf:RDF><cc:Work
         rdf:about=""><dc:format>image/svg+xml</dc:format><dc:type
           rdf:resource="http://purl.org/dc/dcmitype/StillImage" /><dc:title></dc:title></cc:Work></rdf:RDF></metadata><g
     id="g16"
     transform="translate(-7,-7)"
     style="fill:#ffffff"><g
       id="g14"
       style="fill:#ffffff"><path
         d="m 32,25 c 0.552,0 1,-0.448 1,-1 v -2 c 0,-0.552 -0.448,-1 -1,-1 -0.552,0 -1,0.448 -1,1 v 2 c 0,0.552 0.448,1 1,1 z"
         id="path4"
         inkscape:connector-curvature="0"
         style="fill:#ffffff" /><path
         d="m 41.293,25.293 -6.541,6.54 C 33.962,31.309 33.018,31 32,31 c -2.757,0 -5,2.243 -5,5 0,2.757 2.243,5 5,5 2.757,0 5,-2.243 5,-5 0,-1.018 -0.309,-1.963 -0.833,-2.754 l 6.54,-6.539 c 0.391,-0.39 0.391,-1.023 0,-1.414 -0.391,-0.391 -1.023,-0.391 -1.414,0 z M 32,39 c -1.654,0 -3,-1.346 -3,-3 0,-1.654 1.346,-3 3,-3 1.654,0 3,1.346 3,3 0,1.654 -1.346,3 -3,3 z"
         id="path6"
         inkscape:connector-curvature="0"
         style="fill:#ffffff" /><path
         d="M 32,15 C 18.215,15 7,26.215 7,40 v 8 c 0,0.553 0.448,1 1,1 h 48 c 0.553,0 1,-0.447 1,-1 V 40 C 57,26.215 45.785,15 32,15 Z M 55,47 H 9 V 40 C 9,27.318 19.318,17 32,17 44.683,17 55,27.318 55,40 Z"
         id="path8"
         inkscape:connector-curvature="0"
         style="fill:#ffffff" /><path
         d="m 47,36 c 0,0.553 0.447,1 1,1 h 2 c 0.553,0 1,-0.447 1,-1 0,-0.553 -0.447,-1 -1,-1 h -2 c -0.553,0 -1,0.447 -1,1 z"
         id="path10"
         inkscape:connector-curvature="0"
         style="fill:#ffffff" /><path
         d="m 16,35 h -2 c -0.552,0 -1,0.447 -1,1 0,0.553 0.448,1 1,1 h 2 c 0.552,0 1,-0.447 1,-1 0,-0.553 -0.448,-1 -1,-1 z"
         id="path12"
         inkscape:connector-curvature="0"
         style="fill:#ffffff" /></g></g></svg>