<?xml version="1.0" encoding="UTF-8" standalone="no"?>
<svg
   xmlns:dc="http://purl.org/dc/elements/1.1/"
   xmlns:cc="http://creativecommons.org/ns#"
   xmlns:rdf="http://www.w3.org/1999/02/22-rdf-syntax-ns#"
   xmlns:svg="http://www.w3.org/2000/svg"
   xmlns="http://www.w3.org/2000/svg"
   xmlns:sodipodi="http://sodipodi.sourceforge.net/DTD/sodipodi-0.dtd"
   xmlns:inkscape="http://www.inkscape.org/namespaces/inkscape"
   viewBox="0 0 96 96"
   x="0px"
   y="0px"
   version="1.1"
   id="svg10"
   sodipodi:docname="first_in_list.svg"
   width="96"
   height="96"
   inkscape:version="0.92.5 (2060ec1f9f, 2020-04-08)">
  <metadata
     id="metadata16">
    <rdf:RDF>
      <cc:Work
         rdf:about="">
        <dc:format>image/svg+xml</dc:format>
        <dc:type
           rdf:resource="http://purl.org/dc/dcmitype/StillImage" />
        <dc:title>where</dc:title>
      </cc:Work>
    </rdf:RDF>
  </metadata>
  <defs
     id="defs14" />
  <sodipodi:namedview
     pagecolor="#ffffff"
     bordercolor="#666666"
     borderopacity="1"
     objecttolerance="10"
     gridtolerance="10"
     guidetolerance="10"
     inkscape:pageopacity="0"
     inkscape:pageshadow="2"
     inkscape:window-width="874"
     inkscape:window-height="480"
     id="namedview12"
     showgrid="false"
     fit-margin-top="0"
     fit-margin-left="0"
     fit-margin-right="0"
     fit-margin-bottom="0"
     inkscape:zoom="1.888"
     inkscape:cx="48.000003"
     inkscape:cy="20.5"
     inkscape:window-x="0"
     inkscape:window-y="27"
     inkscape:window-maximized="0"
     inkscape:current-layer="svg10" />
  <title
     id="title2">where</title>
  <path
     d="m 96.000003,53.000001 a 2.99984,2.99984 0 0 1 -3,3 h -90 a 3,3 0 0 1 0,-6 h 90 a 2.99984,2.99984 0 0 1 3,3 z m -3,27 h -90 a 3,3 0 0 0 0,6 h 90 a 3,3 0 0 0 0,-6 z m -93.0000000085269,-57 a 17.98958,17.98958 0 0 1 35.7290000085269,-3 h 57.271 a 3,3 0 0 1 0,6 h -57.271 a 17.98958,17.98958 0 0 1 -35.7290000085269,-3 z m 6.0000000085269,0 a 12,12 0 1 0 12,-12.000001 12.01344,12.01344 0 0 0 -12,12.000001 z"
     id="path4"
     inkscape:connector-curvature="0"
     style="fill:#ffffff" />
</svg>
