<?xml version="1.0" encoding="UTF-8" standalone="no"?>
<svg
   xmlns:dc="http://purl.org/dc/elements/1.1/"
   xmlns:cc="http://creativecommons.org/ns#"
   xmlns:rdf="http://www.w3.org/1999/02/22-rdf-syntax-ns#"
   xmlns:svg="http://www.w3.org/2000/svg"
   xmlns="http://www.w3.org/2000/svg"
   xmlns:sodipodi="http://sodipodi.sourceforge.net/DTD/sodipodi-0.dtd"
   xmlns:inkscape="http://www.inkscape.org/namespaces/inkscape"
   version="1.1"
   x="0px"
   y="0px"
   viewBox="0 0 95.800003 95.800003"
   xml:space="preserve"
   id="svg16"
   sodipodi:docname="goal.svg"
   width="95.800003"
   height="95.800003"
   inkscape:version="0.92.5 (2060ec1f9f, 2020-04-08)"><metadata
     id="metadata22"><rdf:RDF><cc:Work
         rdf:about=""><dc:format>image/svg+xml</dc:format><dc:type
           rdf:resource="http://purl.org/dc/dcmitype/StillImage" /><dc:title></dc:title></cc:Work></rdf:RDF></metadata><defs
     id="defs20" /><sodipodi:namedview
     pagecolor="#ffffff"
     bordercolor="#666666"
     borderopacity="1"
     objecttolerance="10"
     gridtolerance="10"
     guidetolerance="10"
     inkscape:pageopacity="0"
     inkscape:pageshadow="2"
     inkscape:window-width="874"
     inkscape:window-height="480"
     id="namedview18"
     showgrid="false"
     fit-margin-top="0"
     fit-margin-left="0"
     fit-margin-right="0"
     fit-margin-bottom="0"
     inkscape:zoom="1.888"
     inkscape:cx="47.8"
     inkscape:cy="35.3"
     inkscape:window-x="0"
     inkscape:window-y="27"
     inkscape:window-maximized="0"
     inkscape:current-layer="svg16" /><g
     id="g10"
     transform="translate(-2.2,-2.0000031)"
     style="fill:#ffffff"><polygon
       points="98,20 81,20 81,3 66,17 66,28.2 46.8,47.9 44,45 44,55.9 55.7,55.8 52.6,52.4 71.3,33.9 81.5,34.7 "
       id="polygon2"
       style="fill:#ffffff" /><path
       d="m 86.5,37.1 c 1.7,4.5 2.7,9.5 2.7,14.6 0,22.6 -18.4,41 -41,41 -22.6,0 -41,-18.4 -41,-41 0,-22.6 18.4,-41 41,-41 5.2,0 10.2,1 14.8,2.8 V 8.2 C 58.4,6.6 53.4,5.8 48.2,5.8 c -25.4,0 -46,20.6 -46,46 0,25.4 20.6,46 46,46 25.4,0 46,-20.6 46,-46 0,-5.3 -0.9,-10.4 -2.6,-15.2 z"
       id="path4"
       inkscape:connector-curvature="0"
       style="fill:#ffffff" /><path
       d="M 56.9,23.3 C 54.1,22.4 51.2,22 48.1,22 31.6,22 18.2,35.4 18.2,51.9 18.2,68.4 31.6,81.8 48.1,81.8 64.6,81.8 78,68.4 78,51.9 78,48 77.2,44.2 75.9,40.8 l -4.1,3.5 c 0.8,2.4 1.2,5 1.2,7.6 C 73,65.6 61.8,76.8 48.1,76.8 34.4,76.8 23.3,65.6 23.3,51.9 23.3,38.2 34.4,27 48.1,27 c 1.7,0 3.3,0.2 4.8,0.5 z"
       id="path6"
       inkscape:connector-curvature="0"
       style="fill:#ffffff" /><path
       d="m 48.2,41 4.3,-4.4 C 51.2,36.2 49.8,36 48.3,36 c -8.4,0 -15.1,6.8 -15.1,15.1 0,8.4 6.8,15.1 15.1,15.1 8.4,0 15.1,-6.8 15.1,-15.1 0,-1.4 -0.2,-2.8 -0.6,-4.1 l -4.4,4.3 c -0.1,5.5 -4.6,9.9 -10.1,9.9 -5.6,0 -10.1,-4.5 -10.1,-10.1 0.1,-5.5 4.5,-10 10,-10.1 z"
       id="path8"
       inkscape:connector-curvature="0"
       style="fill:#ffffff" /></g></svg>