<?xml version="1.0" encoding="UTF-8" standalone="no"?>
<svg
   xmlns:dc="http://purl.org/dc/elements/1.1/"
   xmlns:cc="http://creativecommons.org/ns#"
   xmlns:rdf="http://www.w3.org/1999/02/22-rdf-syntax-ns#"
   xmlns:svg="http://www.w3.org/2000/svg"
   xmlns="http://www.w3.org/2000/svg"
   xmlns:sodipodi="http://sodipodi.sourceforge.net/DTD/sodipodi-0.dtd"
   xmlns:inkscape="http://www.inkscape.org/namespaces/inkscape"
   version="1.1"
   x="0px"
   y="0px"
   viewBox="0 0 94.900002 94.900001"
   xml:space="preserve"
   id="svg26"
   sodipodi:docname="insert-icon.svg"
   width="94.900002"
   height="94.900002"
   inkscape:version="0.92.5 (2060ec1f9f, 2020-04-08)"><metadata
     id="metadata32"><rdf:RDF><cc:Work
         rdf:about=""><dc:format>image/svg+xml</dc:format><dc:type
           rdf:resource="http://purl.org/dc/dcmitype/StillImage" /><dc:title></dc:title></cc:Work></rdf:RDF></metadata><defs
     id="defs30" /><sodipodi:namedview
     pagecolor="#ffffff"
     bordercolor="#666666"
     borderopacity="1"
     objecttolerance="10"
     gridtolerance="10"
     guidetolerance="10"
     inkscape:pageopacity="0"
     inkscape:pageshadow="2"
     inkscape:window-width="1920"
     inkscape:window-height="1016"
     id="namedview28"
     showgrid="false"
     fit-margin-top="0"
     fit-margin-left="0"
     fit-margin-right="0"
     fit-margin-bottom="0"
     inkscape:zoom="0.944"
     inkscape:cx="527.30408"
     inkscape:cy="-214.53341"
     inkscape:window-x="0"
     inkscape:window-y="27"
     inkscape:window-maximized="1"
     inkscape:current-layer="svg26" /><path
     inkscape:connector-curvature="0"
     id="path12"
     d="m 44.7,57.999997 c 0.6,1 1.7,1.5 2.8,1.5 v 0 c 1.1,0 2.2,-0.6 2.8,-1.5 l 12.6,-19.3 c 0.7,-1 0.7,-2.3 0.1,-3.4 -0.6,-1.1 -1.7,-1.7 -2.9,-1.7 h -7.2 v -21.1 c 0,-1.6 -1.3,-2.9 -2.9,-2.9 h -4.7 c -1.6,0 -2.9,1.3 -2.9,2.9 v 21.1 h -7.2 c -1.2,0 -2.3,0.7 -2.9,1.7 -0.6,1.1 -0.5,2.4 0.1,3.4 z"
     style="fill:#ffffff" /><path
     inkscape:connector-curvature="0"
     id="path14"
     d="M 89.6,42.399997 H 75.1 c -3,0 -5.4,2.4 -5.4,5.4 v 20.2 H 25.3 v -20.1 c 0,-3 -2.4,-5.4 -5.4,-5.4 H 5.4 c -3,0 -5.4,2.4 -5.4,5.4 0,3 2.4,5.4 5.4,5.4 h 9 v 20.2 c 0,3 2.4,5.4 5.4,5.4 h 55.3 c 3,0 5.4,-2.4 5.4,-5.4 v -20.2 h 9 c 3,0 5.4,-2.4 5.4,-5.4 0,-3 -2.3,-5.5 -5.3,-5.5 z"
     style="fill:#ffffff" /></svg>