<?xml version="1.0" encoding="UTF-8" standalone="no"?>
<svg
   xmlns:dc="http://purl.org/dc/elements/1.1/"
   xmlns:cc="http://creativecommons.org/ns#"
   xmlns:rdf="http://www.w3.org/1999/02/22-rdf-syntax-ns#"
   xmlns:svg="http://www.w3.org/2000/svg"
   xmlns="http://www.w3.org/2000/svg"
   xmlns:sodipodi="http://sodipodi.sourceforge.net/DTD/sodipodi-0.dtd"
   xmlns:inkscape="http://www.inkscape.org/namespaces/inkscape"
   viewBox="0 0 30.014162 30"
   x="0px"
   y="0px"
   version="1.1"
   id="svg10"
   sodipodi:docname="memory_space.svg"
   width="30.014162"
   height="30"
   inkscape:version="0.92.5 (2060ec1f9f, 2020-04-08)">
  <metadata
     id="metadata16">
    <rdf:RDF>
      <cc:Work
         rdf:about="">
        <dc:format>image/svg+xml</dc:format>
        <dc:type
           rdf:resource="http://purl.org/dc/dcmitype/StillImage" />
        <dc:title></dc:title>
      </cc:Work>
    </rdf:RDF>
  </metadata>
  <defs
     id="defs14" />
  <sodipodi:namedview
     pagecolor="#ffffff"
     bordercolor="#666666"
     borderopacity="1"
     objecttolerance="10"
     gridtolerance="10"
     guidetolerance="10"
     inkscape:pageopacity="0"
     inkscape:pageshadow="2"
     inkscape:window-width="1920"
     inkscape:window-height="1016"
     id="namedview12"
     showgrid="false"
     fit-margin-top="0"
     fit-margin-left="0"
     fit-margin-right="0"
     fit-margin-bottom="0"
     inkscape:zoom="5.9"
     inkscape:cx="69.251409"
     inkscape:cy="10.737993"
     inkscape:window-x="0"
     inkscape:window-y="27"
     inkscape:window-maximized="1"
     inkscape:current-layer="svg10" />
  <g
     data-name="Low Space"
     id="g4"
     transform="translate(-0.98587894,-0.73799335)"
     style="fill:#ffffff">
    <path
       d="M 16,0.738 A 15,15 0 1 0 24.3,28.223 1,1 0 1 0 23.189,26.561 12.993,12.993 0 1 1 15,2.789 v 5.173 a 7.844,7.844 0 1 0 8.777,8.776 h 5.183 c -0.022,0.288 -0.051,0.574 -0.092,0.858 a 1.0000611,1.0000611 0 1 0 1.98,0.283 A 15.01,15.01 0 0 0 16,0.738 Z m 12.949,14 H 23.777 A 7.854,7.854 0 0 0 17,7.962 V 2.789 A 13,13 0 0 1 28.949,14.738 Z M 16,21.586 A 5.848,5.848 0 1 1 21.848,15.738 5.854,5.854 0 0 1 16,21.586 Z m 11.707,6.969 a 1,1 0 1 1 -1.414,0 1,1 0 0 1 1.414,0 z M 28,19.955 v 6.6 a 1,1 0 1 1 -2,0 v -6.6 a 1,1 0 0 1 2,0 z"
       id="path2"
       inkscape:connector-curvature="0"
       style="fill:#ffffff" />
  </g>
</svg>
