<?xml version="1.0" encoding="UTF-8" standalone="no"?>
<svg
   xmlns:dc="http://purl.org/dc/elements/1.1/"
   xmlns:cc="http://creativecommons.org/ns#"
   xmlns:rdf="http://www.w3.org/1999/02/22-rdf-syntax-ns#"
   xmlns:svg="http://www.w3.org/2000/svg"
   xmlns="http://www.w3.org/2000/svg"
   xmlns:sodipodi="http://sodipodi.sourceforge.net/DTD/sodipodi-0.dtd"
   xmlns:inkscape="http://www.inkscape.org/namespaces/inkscape"
   data-name="Layer 1"
   viewBox="0 0 128 128"
   x="0px"
   y="0px"
   version="1.1"
   id="svg38"
   sodipodi:docname="portability.svg"
   width="128"
   height="128"
   inkscape:version="0.92.5 (2060ec1f9f, 2020-04-08)">
  <metadata
     id="metadata44">
    <rdf:RDF>
      <cc:Work
         rdf:about="">
        <dc:format>image/svg+xml</dc:format>
        <dc:type
           rdf:resource="http://purl.org/dc/dcmitype/StillImage" />
        <dc:title>Miscellaneous 71 expandlines</dc:title>
      </cc:Work>
    </rdf:RDF>
  </metadata>
  <defs
     id="defs42" />
  <sodipodi:namedview
     pagecolor="#ffffff"
     bordercolor="#666666"
     borderopacity="1"
     objecttolerance="10"
     gridtolerance="10"
     guidetolerance="10"
     inkscape:pageopacity="0"
     inkscape:pageshadow="2"
     inkscape:window-width="769"
     inkscape:window-height="480"
     id="namedview40"
     showgrid="false"
     fit-margin-top="0"
     fit-margin-left="0"
     fit-margin-right="0"
     fit-margin-bottom="0"
     inkscape:zoom="1.475"
     inkscape:cx="53.269774"
     inkscape:cy="27"
     inkscape:window-x="0"
     inkscape:window-y="27"
     inkscape:window-maximized="0"
     inkscape:current-layer="svg38" />
  <title
     id="title2">Miscellaneous 71 expandlines</title>
  <path
     d="m 20,98 h 10 a 2,2 0 0 0 0,-4 H 20 a 2,2 0 0 0 0,4 z"
     id="path4"
     inkscape:connector-curvature="0"
     style="fill:#ffffff" />
  <path
     d="m 30,32 a 2,2 0 0 0 0,-4 H 20 a 2,2 0 0 0 0,4 z"
     id="path6"
     inkscape:connector-curvature="0"
     style="fill:#ffffff" />
  <path
     d="m 9,58 v 8 a 3.00328,3.00328 0 0 0 3,3 h 8 a 3.00328,3.00328 0 0 0 3,-3 v -8 a 3.00328,3.00328 0 0 0 -3,-3 h -8 a 3.00328,3.00328 0 0 0 -3,3 z m 4,1 h 6 v 6 h -6 z"
     id="path8"
     inkscape:connector-curvature="0"
     style="fill:#ffffff" />
  <path
     d="m 41,54 a 3.00328,3.00328 0 0 0 -3,-3 h -8 a 3.00328,3.00328 0 0 0 -3,3 v 8 a 3.00328,3.00328 0 0 0 3,3 h 8 a 3.00328,3.00328 0 0 0 3,-3 z m -4,7 h -6 v -6 h 6 z"
     id="path10"
     inkscape:connector-curvature="0"
     style="fill:#ffffff" />
  <path
     d="m 9,84 a 3.00328,3.00328 0 0 0 3,3 h 8 a 3.00328,3.00328 0 0 0 3,-3 v -8 a 3.00328,3.00328 0 0 0 -3,-3 h -8 a 3.00328,3.00328 0 0 0 -3,3 z m 4,-7 h 6 v 6 h -6 z"
     id="path12"
     inkscape:connector-curvature="0"
     style="fill:#ffffff" />
  <path
     d="m 41,84 v -8 a 3.00328,3.00328 0 0 0 -3,-3 h -8 a 3.00328,3.00328 0 0 0 -3,3 v 8 a 3.00328,3.00328 0 0 0 3,3 h 8 a 3.00328,3.00328 0 0 0 3,-3 z m -4,-1 h -6 v -6 h 6 z"
     id="path14"
     inkscape:connector-curvature="0"
     style="fill:#ffffff" />
  <path
     d="m 98,98 h 10 a 2,2 0 0 0 0,-4 H 98 a 2,2 0 0 0 0,4 z"
     id="path16"
     inkscape:connector-curvature="0"
     style="fill:#ffffff" />
  <path
     d="M 108,28 H 98 a 2,2 0 0 0 0,4 h 10 a 2,2 0 0 0 0,-4 z"
     id="path18"
     inkscape:connector-curvature="0"
     style="fill:#ffffff" />
  <path
     d="m 90,68 h 8 a 3.00328,3.00328 0 0 0 3,-3 v -8 a 3.00328,3.00328 0 0 0 -3,-3 h -8 a 3.00328,3.00328 0 0 0 -3,3 v 8 a 3.00328,3.00328 0 0 0 3,3 z m 1,-10 h 6 v 6 h -6 z"
     id="path20"
     inkscape:connector-curvature="0"
     style="fill:#ffffff" />
  <path
     d="m 119,53 a 3.00328,3.00328 0 0 0 -3,-3 h -8 a 3.00328,3.00328 0 0 0 -3,3 v 8 a 3.00328,3.00328 0 0 0 3,3 h 8 a 3.00328,3.00328 0 0 0 3,-3 z m -4,7 h -6 v -6 h 6 z"
     id="path22"
     inkscape:connector-curvature="0"
     style="fill:#ffffff" />
  <path
     d="m 87,83 a 3.00328,3.00328 0 0 0 3,3 h 8 a 3.00328,3.00328 0 0 0 3,-3 v -8 a 3.00328,3.00328 0 0 0 -3,-3 h -8 a 3.00328,3.00328 0 0 0 -3,3 z m 4,-7 h 6 v 6 h -6 z"
     id="path24"
     inkscape:connector-curvature="0"
     style="fill:#ffffff" />
  <path
     d="m 119,83 v -8 a 3.00328,3.00328 0 0 0 -3,-3 h -8 a 3.00328,3.00328 0 0 0 -3,3 v 8 a 3.00328,3.00328 0 0 0 3,3 h 8 a 3.00328,3.00328 0 0 0 3,-3 z m -4,-1 h -6 v -6 h 6 z"
     id="path26"
     inkscape:connector-curvature="0"
     style="fill:#ffffff" />
  <path
     d="M 120,20 H 86 a 8.02349,8.02349 0 0 0 -8,8 v 7 h 4 v -7 a 4.0045,4.0045 0 0 1 4,-4 h 34 a 4.0045,4.0045 0 0 1 4,4 v 70 a 4.0045,4.0045 0 0 1 -4,4 H 86 A 4.0045,4.0045 0 0 1 82,98 V 47 h -4 v 51 a 8.02349,8.02349 0 0 0 8,8 h 34 a 8.02349,8.02349 0 0 0 8,-8 V 28 a 8.02349,8.02349 0 0 0 -8,-8 z"
     id="path28"
     inkscape:connector-curvature="0"
     style="fill:#ffffff" />
  <path
     d="m 46,98 a 4.0045,4.0045 0 0 1 -4,4 H 8 A 4.0045,4.0045 0 0 1 4,98 V 28 a 4.0045,4.0045 0 0 1 4,-4 h 34 a 4.0045,4.0045 0 0 1 4,4 v 7 h 4 V 28 A 8.02349,8.02349 0 0 0 42,20 H 8 a 8.02349,8.02349 0 0 0 -8,8 v 70 a 8.02349,8.02349 0 0 0 8,8 h 34 a 8.02349,8.02349 0 0 0 8,-8 V 47 h -4 z"
     id="path30"
     inkscape:connector-curvature="0"
     style="fill:#ffffff" />
  <path
     d="M 32.5,42.2002 V 45 a 2,2 0 0 0 4,0 v -2 h 53.07178 a 1.99493,1.99493 0 0 0 2.82275,2.28906 l 5,-2.5 a 2.00042,2.00042 0 0 0 0,-3.57812 l -5,-2.5 A 1.99116,1.99116 0 0 0 89.57178,39 H 35.5 a 3.10838,3.10838 0 0 0 -3,3.2002 z"
     id="path32"
     inkscape:connector-curvature="0"
     style="fill:#ffffff" />
</svg>
