<?xml version="1.0" encoding="UTF-8" standalone="no"?>
<svg
   xmlns:dc="http://purl.org/dc/elements/1.1/"
   xmlns:cc="http://creativecommons.org/ns#"
   xmlns:rdf="http://www.w3.org/1999/02/22-rdf-syntax-ns#"
   xmlns:svg="http://www.w3.org/2000/svg"
   xmlns="http://www.w3.org/2000/svg"
   xmlns:sodipodi="http://sodipodi.sourceforge.net/DTD/sodipodi-0.dtd"
   xmlns:inkscape="http://www.inkscape.org/namespaces/inkscape"
   version="1.1"
   x="0px"
   y="0px"
   viewBox="0 0 60 60"
   xml:space="preserve"
   id="svg42"
   sodipodi:docname="software_design.svg"
   width="60"
   height="60"
   inkscape:version="0.92.5 (2060ec1f9f, 2020-04-08)"><metadata
     id="metadata48"><rdf:RDF><cc:Work
         rdf:about=""><dc:format>image/svg+xml</dc:format><dc:type
           rdf:resource="http://purl.org/dc/dcmitype/StillImage" /><dc:title></dc:title></cc:Work></rdf:RDF></metadata><defs
     id="defs46" /><sodipodi:namedview
     pagecolor="#ffffff"
     bordercolor="#666666"
     borderopacity="1"
     objecttolerance="10"
     gridtolerance="10"
     guidetolerance="10"
     inkscape:pageopacity="0"
     inkscape:pageshadow="2"
     inkscape:window-width="769"
     inkscape:window-height="480"
     id="namedview44"
     showgrid="false"
     fit-margin-top="0"
     fit-margin-left="0"
     fit-margin-right="0"
     fit-margin-bottom="0"
     inkscape:zoom="2.95"
     inkscape:cx="20.556009"
     inkscape:cy="22"
     inkscape:window-x="0"
     inkscape:window-y="27"
     inkscape:window-maximized="0"
     inkscape:current-layer="svg42" /><style
     type="text/css"
     id="style2">
	.st0{display:none;}
	.st1{display:inline;}
	.st2{fill:none;stroke:#B3B3B3;stroke-width:0.1;stroke-miterlimit:10;}
</style><g
     class="st0"
     id="g28"
     style="display:none"
     transform="translate(-2,-2)"><g
       class="st1"
       id="g26"
       style="display:inline"><rect
         x="2"
         y="2"
         class="st2"
         width="60"
         height="60"
         id="rect4"
         style="fill:none;stroke:#b3b3b3;stroke-width:0.1;stroke-miterlimit:10" /><line
         class="st2"
         x1="32"
         y1="2"
         x2="32"
         y2="62"
         id="line6"
         style="fill:none;stroke:#b3b3b3;stroke-width:0.1;stroke-miterlimit:10" /><line
         class="st2"
         x1="62"
         y1="32"
         x2="2"
         y2="32"
         id="line8"
         style="fill:none;stroke:#b3b3b3;stroke-width:0.1;stroke-miterlimit:10" /><line
         class="st2"
         x1="2"
         y1="2"
         x2="62"
         y2="62"
         id="line10"
         style="fill:none;stroke:#b3b3b3;stroke-width:0.1;stroke-miterlimit:10" /><rect
         x="10"
         y="10"
         class="st2"
         width="44"
         height="44"
         id="rect12"
         style="fill:none;stroke:#b3b3b3;stroke-width:0.1;stroke-miterlimit:10" /><line
         class="st2"
         x1="62"
         y1="2"
         x2="2"
         y2="62"
         id="line14"
         style="fill:none;stroke:#b3b3b3;stroke-width:0.1;stroke-miterlimit:10" /><line
         class="st2"
         x1="2"
         y1="32"
         x2="32"
         y2="2"
         id="line16"
         style="fill:none;stroke:#b3b3b3;stroke-width:0.1;stroke-miterlimit:10" /><line
         class="st2"
         x1="32"
         y1="2"
         x2="62"
         y2="32"
         id="line18"
         style="fill:none;stroke:#b3b3b3;stroke-width:0.1;stroke-miterlimit:10" /><line
         class="st2"
         x1="62"
         y1="32"
         x2="32"
         y2="62"
         id="line20"
         style="fill:none;stroke:#b3b3b3;stroke-width:0.1;stroke-miterlimit:10" /><line
         class="st2"
         x1="32"
         y1="62"
         x2="2"
         y2="32"
         id="line22"
         style="fill:none;stroke:#b3b3b3;stroke-width:0.1;stroke-miterlimit:10" /><circle
         class="st2"
         cx="32"
         cy="32"
         r="21"
         id="circle24"
         style="fill:none;stroke:#b3b3b3;stroke-width:0.1;stroke-miterlimit:10" /></g></g><path
     d="M 40,0 H 20 c -1.7,0 -3,1.3 -3,3 v 16 c 0,1.7 1.3,3 3,3 h 20 c 1.7,0 3,-1.3 3,-3 V 3 C 43,1.3 41.7,0 40,0 Z M 28,6 h -2 c -0.6,0 -1,0.4 -1,1 v 1.8 c 0,0.9 -0.4,1.7 -1,2.2 0.6,0.6 1,1.4 1,2.2 V 15 c 0,0.6 0.4,1 1,1 h 2 v 2 h -2 c -1.7,0 -3,-1.3 -3,-3 v -1 c 0,-1.1 -0.9,-2 -2,-2 v -2 c 1.1,0 2,-0.9 2,-2 V 7 c 0,-1.7 1.3,-3 3,-3 h 2 z m 11,6 c -1.1,0 -2,0.9 -2,2 v 1 c 0,1.7 -1.3,3 -3,3 h -2 v -2 h 2 c 0.6,0 1,-0.4 1,-1 V 13.2 C 35,12.3 35.4,11.5 36,11 35.4,10.4 35,9.6 35,8.8 V 7 C 35,6.4 34.6,6 34,6 H 32 V 4 h 2 c 1.7,0 3,1.3 3,3 v 1 c 0,1.1 0.9,2 2,2 z"
     id="path30"
     inkscape:connector-curvature="0"
     style="fill:#ffffff" /><path
     d="M 46,36 H 38.4 L 31,28.6 V 24 h -2 v 4.6 L 21.6,36 H 14 c -1.7,0 -3,1.3 -3,3 v 9 h 2 v -9 c 0,-0.6 0.4,-1 1,-1 h 7.6 L 30,46.4 38.4,38 H 46 c 0.6,0 1,0.4 1,1 v 9 h 2 v -9 c 0,-1.7 -1.3,-3 -3,-3 z"
     id="path32"
     inkscape:connector-curvature="0"
     style="fill:#ffffff" /><path
     d="M 22,50 H 2 c -1.1,0 -2,0.9 -2,2 v 6 c 0,1.1 0.9,2 2,2 h 20 c 1.1,0 2,-0.9 2,-2 v -6 c 0,-1.1 -0.9,-2 -2,-2 z"
     id="path34"
     inkscape:connector-curvature="0"
     style="fill:#ffffff" /><path
     d="M 58,50 H 38 c -1.1,0 -2,0.9 -2,2 v 6 c 0,1.1 0.9,2 2,2 h 20 c 1.1,0 2,-0.9 2,-2 v -6 c 0,-1.1 -0.9,-2 -2,-2 z"
     id="path36"
     inkscape:connector-curvature="0"
     style="fill:#ffffff" /></svg>