<?xml version="1.0" encoding="UTF-8" standalone="no"?>
<svg
   xmlns:dc="http://purl.org/dc/elements/1.1/"
   xmlns:cc="http://creativecommons.org/ns#"
   xmlns:rdf="http://www.w3.org/1999/02/22-rdf-syntax-ns#"
   xmlns:svg="http://www.w3.org/2000/svg"
   xmlns="http://www.w3.org/2000/svg"
   xmlns:sodipodi="http://sodipodi.sourceforge.net/DTD/sodipodi-0.dtd"
   xmlns:inkscape="http://www.inkscape.org/namespaces/inkscape"
   version="1.1"
   x="0px"
   y="0px"
   viewBox="0 0 124.5 124.5"
   xml:space="preserve"
   id="svg20"
   sodipodi:docname="solution.svg"
   width="124.5"
   height="124.5"
   inkscape:version="0.92.5 (2060ec1f9f, 2020-04-08)"><metadata
     id="metadata26"><rdf:RDF><cc:Work
         rdf:about=""><dc:format>image/svg+xml</dc:format><dc:type
           rdf:resource="http://purl.org/dc/dcmitype/StillImage" /><dc:title></dc:title></cc:Work></rdf:RDF></metadata><defs
     id="defs24" /><sodipodi:namedview
     pagecolor="#ffffff"
     bordercolor="#666666"
     borderopacity="1"
     objecttolerance="10"
     gridtolerance="10"
     guidetolerance="10"
     inkscape:pageopacity="0"
     inkscape:pageshadow="2"
     inkscape:window-width="874"
     inkscape:window-height="480"
     id="namedview22"
     showgrid="false"
     fit-margin-top="0"
     fit-margin-left="0"
     fit-margin-right="0"
     fit-margin-bottom="0"
     inkscape:zoom="1.475"
     inkscape:cx="45.276704"
     inkscape:cy="46.2"
     inkscape:window-x="0"
     inkscape:window-y="27"
     inkscape:window-maximized="0"
     inkscape:current-layer="svg20" /><g
     id="g14"
     transform="translate(-2.723296,-1.7)"
     style="fill:#ffffff"><g
       id="g12"
       style="fill:#ffffff"><g
         id="g4"
         style="fill:#ffffff"><path
           d="m 82.3,36.2 c -1.6,-1.6 -4.1,-1.6 -5.7,0 L 59.2,53.5 51.4,45.7 c -1.6,-1.6 -4.1,-1.6 -5.7,0 -1.6,1.6 -1.6,4.1 0,5.7 l 13.5,13.5 23,-23 c 1.6,-1.6 1.6,-4.2 0.1,-5.7 z"
           id="path2"
           inkscape:connector-curvature="0"
           style="fill:#ffffff" /></g><g
         id="g10"
         style="fill:#ffffff"><g
           id="g8"
           style="fill:#ffffff"><path
             d="M 105.1,26.5 105,26.3 C 92.9,3.5 71.5,1.7 65.2,1.7 c -0.6,0 -1,0 -1.2,0 -0.3,0 -0.7,0 -1.2,0 -6.3,0 -27.6,1.8 -39.8,24.6 l -0.1,0.2 c -0.4,0.9 -10.9,23.7 3,46.4 V 73 c 0.3,0.5 8.2,12.6 9.1,14 1,1.5 1.6,5.3 1.7,8.1 v 9.6 c 0,0.7 0,1.3 0,1.9 0,1.5 0,3 0.1,4.6 0.2,3.2 2.4,5.7 5.5,6.1 1.9,0.3 3.9,0.5 6.5,0.6 1.8,0.1 2.1,0.7 2.3,1.1 2.1,4.4 7.2,7.2 13,7.2 2.8,0 5.4,-0.7 7.5,-1.8 2.2,-1.2 3.9,-2.9 5,-5.1 0.2,-0.5 0.7,-1.3 2.8,-1.4 2,0 3.6,-0.1 5,-0.3 4.5,-0.5 7,-3.4 6.8,-8 0,-0.9 -0.1,-1.7 -0.2,-2.5 -0.1,-1 -0.2,-1.9 -0.2,-2.8 0.1,-1.4 0.2,-9.1 0.3,-10.4 0.3,-2.5 0.7,-5.3 1.8,-7 0.9,-1.4 8.8,-13.5 9.1,-14 v -0.1 c 14.1,-22.5 3.6,-45.3 3.1,-46.3 z M 95.8,69 c -0.5,0.8 -8.2,12.6 -9,13.9 -0.4,0.6 -0.7,1.2 -1,1.8 -1.6,3.4 -5,5.6 -8.8,5.6 H 50.2 c -3.5,0 -6.6,-2.1 -7.9,-5.4 C 42,84.1 41.6,83.4 41.2,82.8 40.3,81.5 32.6,69.7 32.2,68.9 20.8,50.3 29,30.9 29.6,29.7 44.2,2.6 84,2.9 98.4,29.8 99,31.1 107.2,50.4 95.8,69 Z"
             id="path6"
             inkscape:connector-curvature="0"
             style="fill:#ffffff" /></g></g></g></g></svg>