<?xml version="1.0" encoding="UTF-8" standalone="no"?>
<svg
   xmlns:dc="http://purl.org/dc/elements/1.1/"
   xmlns:cc="http://creativecommons.org/ns#"
   xmlns:rdf="http://www.w3.org/1999/02/22-rdf-syntax-ns#"
   xmlns:svg="http://www.w3.org/2000/svg"
   xmlns="http://www.w3.org/2000/svg"
   xmlns:sodipodi="http://sodipodi.sourceforge.net/DTD/sodipodi-0.dtd"
   xmlns:inkscape="http://www.inkscape.org/namespaces/inkscape"
   data-name="Layer 1"
   viewBox="0 0 60.007812 60.033157"
   x="0px"
   y="0px"
   version="1.1"
   id="svg56"
   sodipodi:docname="dynamic.svg"
   width="60.007812"
   height="60.033157"
   inkscape:version="0.92.5 (2060ec1f9f, 2020-04-08)">
  <metadata
     id="metadata62">
    <rdf:RDF>
      <cc:Work
         rdf:about="">
        <dc:format>image/svg+xml</dc:format>
        <dc:type
           rdf:resource="http://purl.org/dc/dcmitype/StillImage" />
        <dc:title>zoom-industrial-dynamic-management-inspection</dc:title>
      </cc:Work>
    </rdf:RDF>
  </metadata>
  <defs
     id="defs60" />
  <sodipodi:namedview
     pagecolor="#ffffff"
     bordercolor="#666666"
     borderopacity="1"
     objecttolerance="10"
     gridtolerance="10"
     guidetolerance="10"
     inkscape:pageopacity="0"
     inkscape:pageshadow="2"
     inkscape:window-width="1920"
     inkscape:window-height="1016"
     id="namedview58"
     showgrid="false"
     fit-margin-top="0"
     fit-margin-left="0"
     fit-margin-right="0"
     fit-margin-bottom="0"
     inkscape:zoom="2.95"
     inkscape:cx="30.007811"
     inkscape:cy="22"
     inkscape:window-x="0"
     inkscape:window-y="27"
     inkscape:window-maximized="1"
     inkscape:current-layer="svg56" />
  <title
     id="title44">zoom-industrial-dynamic-management-inspection</title>
  <path
     d="M 16.007811,5.0331578 A 10,10 0 0 0 6.0078106,15.033158 a 1,1 0 0 0 2,0 8,8 0 0 1 8.0000004,-8.0000002 1,1 0 0 0 0,-2 z"
     id="path46"
     inkscape:connector-curvature="0"
     style="fill:#ffffff" />
  <path
     d="m 59.007811,14.033158 h -1.52 q -0.16,-0.45 -0.36,-0.87 l 1.07,-1.08 a 1,1 0 0 0 0.3,-0.71 1,1 0 0 0 -0.3,-0.7 l -2.83,-2.8300002 a 1,1 0 0 0 -1.41,0 l -1.08,1.07 q -0.42,-0.2 -0.87,-0.36 v -1.52 a 1,1 0 0 0 -1,-1 h -1 v -3 a 1,1 0 0 0 -1,-1 h -14.76 l 0.21,-0.11 a 1,1 0 1 0 -0.9,-1.78000004 l -4,2.00000004 -0.12,0.08 -0.11,0.08 a 1.3,1.3 0 0 0 -0.18,0.23 v 0 0 a 1.06,1.06 0 0 0 -0.09,0.36 0.41,0.41 0 0 0 -0.05,0.14 1.36,1.36 0 0 0 0,0.2 c 0,0 0,0 0,0 a 0.61,0.61 0 0 0 0.05,0.12 0.78,0.78 0 0 0 0.11,0.2 l 0.09,0.1 a 0.85,0.85 0 0 0 0.19,0.14 h 0.06 l 4,2 a 0.93,0.93 0 0 0 0.5,0.24 1,1 0 0 0 0.89,-0.55 1,1 0 0 0 -0.44,-1.34 l -0.21,-0.11 h 13.76 v 2 h -1 a 1,1 0 0 0 -1,1 v 1.52 q -0.45,0.17 -0.87,0.36 l -1.08,-1.07 a 1,1 0 0 0 -1.41,0 l -2.83,2.8300002 a 1,1 0 0 0 -0.3,0.7 1,1 0 0 0 0.3,0.71 l 1.07,1.08 q -0.2,0.42 -0.36,0.87 h -1.52 a 1,1 0 0 0 -1,1 v 1 h -6 a 16.007811,16.007811 0 0 0 -32.00000041,1 15.78,15.78 0 0 0 0.92,5.3 l 0.05,0.14 a 16.06,16.06 0 0 0 12.03000041,10.27 v 9.29 h -1 a 1,1 0 0 0 -1,1 v 14.21 c 0,1.57 1.49,2.79 3.38,2.79 h 3.24 c 1.89,0 3.38,-1.22 3.38,-2.79 v -14.21 a 1,1 0 0 0 -1,-1 h -1 v -9.29 a 16,16 0 0 0 13,-14.71 h 6 v 1 a 1,1 0 0 0 1,1 h 1.52 q 0.16,0.45 0.36,0.87 l -1.07,1.13 a 1,1 0 0 0 -0.3,0.71 1,1 0 0 0 0.3,0.7 l 2.83,2.83 a 1,1 0 0 0 1.41,0 l 1.08,-1.07 q 0.42,0.19 0.87,0.36 v 1.47 a 1,1 0 0 0 1,1 h 1 v 2 h -13.76 l 0.21,-0.11 a 1,1 0 1 0 -0.9,-1.78 l -4,2 h -0.06 a 0.85,0.85 0 0 0 -0.19,0.14 l -0.09,0.1 a 0.78,0.78 0 0 0 -0.11,0.2 0.61,0.61 0 0 0 -0.05,0.12 c 0,0 0,0 0,0.05 a 1.36,1.36 0 0 0 0,0.2 0.41,0.41 0 0 0 0,0.11 1.06,1.06 0 0 0 0.09,0.36 v 0 a 0.81,0.81 0 0 0 0.17,0.24 v 0 a 1,1 0 0 0 0.2,0.15 v 0 l 4,2 a 0.93,0.93 0 0 0 0.49,0.22 1,1 0 0 0 0.89,-0.55 1,1 0 0 0 -0.44,-1.34 l -0.21,-0.11 h 14.76 a 1,1 0 0 0 1,-1 v -3 h 1 a 1,1 0 0 0 1,-1 v -1.52 q 0.45,-0.16 0.87,-0.36 l 1.13,1.07 a 1,1 0 0 0 1.41,0 l 2.83,-2.83 a 1,1 0 0 0 0.3,-0.7 1,1 0 0 0 -0.3,-0.71 l -1.07,-1.08 q 0.2,-0.42 0.36,-0.87 h 1.47 a 1,1 0 0 0 1,-1 v -4 a 1,1 0 0 0 -1,-1 z m -40,43.21 c 0,0.37 -0.6,0.79 -1.38,0.79 h -3.24 c -0.78,0 -1.38,-0.42 -1.38,-0.79 v -13.21 h 6 z m -4,-15.21 v -9 c 0.33,0 0.66,0 1,0 0.34,0 0.67,0 1,0 v 9 z m 1,-11 a 14,14 0 0 1 -12.6300004,-8 h 4.63 a 1,1 0 0 0 0.87,-0.51 l 4.1300004,-7.35 5.16,10.31 a 1,1 0 0 0 0.84,0.55 v 0 a 1,1 0 0 0 0.85,-0.47 l 4.7,-7.53 h 5.45 a 14,14 0 0 1 -14,13 z m 8,-15 a 1,1 0 0 0 -0.85,0.47 l -4.05,6.53 -5.21,-10.45 a 1,1 0 0 0 -1.76,0 l -4.7200004,8.45 h -4.82 a 14,14 0 1 1 27.4100004,-5 z m 34,2 h -1.26 a 1,1 0 0 0 -1,0.75 6.6,6.6 0 0 1 -0.75,1.8 1,1 0 0 0 0.16,1.21 l 0.89,0.9 -1.41,1.41 -0.9,-0.89 a 1,1 0 0 0 -1.18,-0.18 6.9,6.9 0 0 1 -1.8,0.74 1,1 0 0 0 -0.75,1 v 1.26 h -2 v -1.26 a 1,1 0 0 0 -0.75,-1 6.9,6.9 0 0 1 -1.8,-0.74 1,1 0 0 0 -1.21,0.15 l -0.9,0.89 -1.41,-1.41 0.89,-0.9 a 1,1 0 0 0 0.18,-1.18 6.6,6.6 0 0 1 -0.75,-1.8 1,1 0 0 0 -1,-0.75 h -1.25 v -2 h 1.26 a 1,1 0 0 0 1,-0.75 6.6,6.6 0 0 1 0.75,-1.8 1,1 0 0 0 -0.16,-1.21 l -0.89,-0.9 1.41,-1.4100002 0.9,0.8900002 a 1,1 0 0 0 1.21,0.15 6.9,6.9 0 0 1 1.8,-0.74 1,1 0 0 0 0.75,-1.0000002 v -1.23 h 2 v 1.26 a 1,1 0 0 0 0.75,1.0000002 6.9,6.9 0 0 1 1.8,0.74 1,1 0 0 0 1.21,-0.15 l 0.9,-0.8900002 1.41,1.4100002 -0.89,0.9 a 1,1 0 0 0 -0.21,1.18 6.6,6.6 0 0 1 0.75,1.8 1,1 0 0 0 1,0.75 h 1.25 z"
     id="path48"
     inkscape:connector-curvature="0"
     style="fill:#ffffff" />
  <path
     d="m 49.007811,12.033158 a 5,5 0 1 0 5,5 5,5 0 0 0 -5,-5 z m 0,8 a 3,3 0 1 1 3,-3 3,3 0 0 1 -3,3 z"
     id="path50"
     inkscape:connector-curvature="0"
     style="fill:#ffffff" />
</svg>
