<?xml version="1.0" encoding="UTF-8" standalone="no"?>
<svg
   xmlns:dc="http://purl.org/dc/elements/1.1/"
   xmlns:cc="http://creativecommons.org/ns#"
   xmlns:rdf="http://www.w3.org/1999/02/22-rdf-syntax-ns#"
   xmlns:svg="http://www.w3.org/2000/svg"
   xmlns="http://www.w3.org/2000/svg"
   xmlns:sodipodi="http://sodipodi.sourceforge.net/DTD/sodipodi-0.dtd"
   xmlns:inkscape="http://www.inkscape.org/namespaces/inkscape"
   version="1.1"
   x="0px"
   y="0px"
   viewBox="0 0 32 32"
   enable-background="new 0 0 32 32"
   xml:space="preserve"
   id="svg108"
   sodipodi:docname="indirect_triple.svg"
   width="32"
   height="32"
   inkscape:version="0.92.5 (2060ec1f9f, 2020-04-08)"><metadata
     id="metadata114"><rdf:RDF><cc:Work
         rdf:about=""><dc:format>image/svg+xml</dc:format><dc:type
           rdf:resource="http://purl.org/dc/dcmitype/StillImage" /><dc:title /></cc:Work></rdf:RDF></metadata><defs
     id="defs112" /><sodipodi:namedview
     pagecolor="#ffffff"
     bordercolor="#666666"
     borderopacity="1"
     objecttolerance="10"
     gridtolerance="10"
     guidetolerance="10"
     inkscape:pageopacity="0"
     inkscape:pageshadow="2"
     inkscape:window-width="1920"
     inkscape:window-height="1016"
     id="namedview110"
     showgrid="false"
     fit-margin-top="0"
     fit-margin-left="0"
     fit-margin-right="0"
     fit-margin-bottom="0"
     inkscape:zoom="16.68772"
     inkscape:cx="0.090175304"
     inkscape:cy="11.306034"
     inkscape:window-x="0"
     inkscape:window-y="27"
     inkscape:window-maximized="1"
     inkscape:current-layer="svg108" /><g
     display="none"
     id="g4"
     style="display:none"
     transform="translate(0,0.016)"><rect
       x="-373.33301"
       y="-102.667"
       display="inline"
       width="473.33301"
       height="236"
       id="rect2"
       style="display:inline;fill:#000000" /></g><g
     display="none"
     id="g30"
     style="display:none"
     transform="translate(0,0.016)"><g
       display="inline"
       id="g10"
       style="display:inline"><g
         id="g8"><path
           d="m 30,1.984 v 28 H 2 v -28 h 28 m 2,-2 H 0 v 32 h 32 z"
           id="path6"
           inkscape:connector-curvature="0"
           style="fill:#000000" /></g></g><g
       display="inline"
       id="g28"
       style="display:inline"><g
         id="g14"><circle
           cx="10.416"
           cy="21.856001"
           r="4.5040002"
           id="circle12"
           style="fill:#000000" /></g><g
         id="g18"><circle
           cx="21.598"
           cy="21.856001"
           r="4.5040002"
           id="circle16"
           style="fill:#000000" /></g><g
         id="g22"><circle
           cx="10.402"
           cy="10.144"
           r="4.5040002"
           id="circle20"
           style="fill:#000000" /></g><g
         id="g26"><circle
           cx="21.584"
           cy="10.144"
           r="4.5040002"
           id="circle24"
           style="fill:#000000" /></g></g></g><g
     id="g107"
     transform="matrix(1.3610468,0,0,1.3610468,-11.553498,0.9587888)"
     style="fill:#ffffff"><g
       transform="matrix(0.54978814,0,0,0.54978814,14.40678,0.00879661)"
       style="fill:#ffffff"
       id="g34"><path
         style="fill:#ffffff"
         inkscape:connector-curvature="0"
         id="path32"
         d="m 31,0.984 v 30 H 1 v -30 h 30 m 1,-1 H 0 v 32 h 32 z" /></g><g
       transform="matrix(0.54978814,0,0,0.54978814,11.201236,0.00879661)"
       style="fill:#ffffff"
       id="g44"><path
         style="fill:#ffffff"
         inkscape:connector-curvature="0"
         id="path42"
         d="m 21.598,18.351 c 1.932,0 3.504,1.572 3.504,3.504 0,1.932 -1.572,3.504 -3.504,3.504 -1.932,0 -3.504,-1.572 -3.504,-3.504 0,-1.932 1.572,-3.504 3.504,-3.504 m 0,-1 c -2.488,0 -4.504,2.017 -4.504,4.504 0,2.487 2.017,4.504 4.504,4.504 2.487,0 4.504,-2.017 4.504,-4.504 0,-2.487 -2.016,-4.504 -4.504,-4.504 z" /></g><g
       transform="matrix(0.54978814,0,0,0.54978814,14.40678,0.00879661)"
       style="fill:#ffffff"
       id="g48"><path
         style="fill:#ffffff"
         inkscape:connector-curvature="0"
         id="path46"
         d="m 10.402,6.64 c 1.932,0 3.504,1.572 3.504,3.504 0,1.932 -1.572,3.504 -3.504,3.504 -1.932,0 -3.504,-1.572 -3.504,-3.504 C 6.897,8.212 8.469,6.64 10.402,6.64 m 0,-1 c -2.488,0 -4.504,2.017 -4.504,4.504 0,2.487 2.017,4.504 4.504,4.504 2.487,0 4.504,-2.017 4.504,-4.504 0,-2.487 -2.017,-4.504 -4.504,-4.504 z" /></g><g
       transform="matrix(0.54978814,0,0,0.54978814,14.40678,0.00879661)"
       style="fill:#ffffff"
       id="g52"><path
         style="fill:#ffffff"
         inkscape:connector-curvature="0"
         id="path50"
         d="m 21.584,6.64 c 1.932,0 3.504,1.572 3.504,3.504 0,1.932 -1.572,3.504 -3.504,3.504 -1.932,0 -3.504,-1.572 -3.504,-3.504 C 18.079,8.212 19.651,6.64 21.584,6.64 m 0,-1 c -2.488,0 -4.504,2.017 -4.504,4.504 0,2.487 2.017,4.504 4.504,4.504 2.488,0 4.504,-2.017 4.504,-4.504 0,-2.487 -2.017,-4.504 -4.504,-4.504 z" /></g></g><g
     display="none"
     id="g90"
     style="display:none"
     transform="translate(0,0.016)"><g
       display="inline"
       id="g64"
       style="display:inline"><rect
         x="0.5"
         y="0.484"
         width="31"
         height="31"
         id="rect58"
         style="fill:#000000" /><g
         id="g62"><path
           d="m 31,0.984 v 30 H 1 v -30 h 30 m 1,-1 H 0 v 32 h 32 z"
           id="path60"
           inkscape:connector-curvature="0"
           style="fill:#000000" /></g></g><g
       display="inline"
       id="g72"
       style="display:inline"><circle
         cx="10.416"
         cy="21.856001"
         r="4.0040002"
         id="circle66"
         style="fill:#000000" /><g
         id="g70"><path
           d="m 10.416,18.351 c 1.932,0 3.504,1.572 3.504,3.504 0,1.932 -1.572,3.504 -3.504,3.504 -1.932,0 -3.504,-1.572 -3.504,-3.504 0,-1.932 1.572,-3.504 3.504,-3.504 m 0,-1 c -2.488,0 -4.504,2.017 -4.504,4.504 0,2.487 2.017,4.504 4.504,4.504 2.488,0 4.504,-2.017 4.504,-4.504 0,-2.487 -2.016,-4.504 -4.504,-4.504 z"
           id="path68"
           inkscape:connector-curvature="0" /></g></g><g
       display="inline"
       id="g76"
       style="display:inline"><path
         d="m 21.598,18.351 c 1.932,0 3.504,1.572 3.504,3.504 0,1.932 -1.572,3.504 -3.504,3.504 -1.932,0 -3.504,-1.572 -3.504,-3.504 0,-1.932 1.572,-3.504 3.504,-3.504 m 0,-1 c -2.488,0 -4.504,2.017 -4.504,4.504 0,2.487 2.017,4.504 4.504,4.504 2.487,0 4.504,-2.017 4.504,-4.504 0,-2.487 -2.016,-4.504 -4.504,-4.504 z"
         id="path74"
         inkscape:connector-curvature="0"
         style="fill:#000000" /></g><g
       display="inline"
       id="g80"
       style="display:inline"><path
         d="m 10.402,6.64 c 1.932,0 3.504,1.572 3.504,3.504 0,1.932 -1.572,3.504 -3.504,3.504 -1.932,0 -3.504,-1.572 -3.504,-3.504 C 6.897,8.212 8.469,6.64 10.402,6.64 m 0,-1 c -2.488,0 -4.504,2.017 -4.504,4.504 0,2.487 2.017,4.504 4.504,4.504 2.487,0 4.504,-2.017 4.504,-4.504 0,-2.487 -2.017,-4.504 -4.504,-4.504 z"
         id="path78"
         inkscape:connector-curvature="0"
         style="fill:#000000" /></g><g
       display="inline"
       id="g88"
       style="display:inline"><circle
         cx="21.584"
         cy="10.144"
         r="4.0040002"
         id="circle82"
         style="fill:#000000" /><g
         id="g86"><path
           d="m 21.584,6.64 c 1.932,0 3.504,1.572 3.504,3.504 0,1.932 -1.572,3.504 -3.504,3.504 -1.932,0 -3.504,-1.572 -3.504,-3.504 C 18.079,8.212 19.651,6.64 21.584,6.64 m 0,-1 c -2.488,0 -4.504,2.017 -4.504,4.504 0,2.487 2.017,4.504 4.504,4.504 2.488,0 4.504,-2.017 4.504,-4.504 0,-2.487 -2.017,-4.504 -4.504,-4.504 z"
           id="path84"
           inkscape:connector-curvature="0" /></g></g></g><g
     display="none"
     id="g102"
     style="display:none"
     transform="translate(0,0.016)"><rect
       y="-0.016000001"
       display="inline"
       width="32"
       height="32"
       id="rect92"
       x="0"
       style="display:inline;fill:#000000" /><circle
       display="inline"
       cx="10.416"
       cy="21.856001"
       r="4.5040002"
       id="circle94"
       style="display:inline;fill:#000000" /><circle
       display="inline"
       cx="21.598"
       cy="21.856001"
       r="4.5040002"
       id="circle96"
       style="display:inline;fill:#000000" /><circle
       display="inline"
       cx="10.402"
       cy="10.144"
       r="4.5040002"
       id="circle98"
       style="display:inline;fill:#000000" /><circle
       display="inline"
       cx="21.584"
       cy="10.144"
       r="4.5040002"
       id="circle100"
       style="display:inline;fill:#000000" /></g><path
     inkscape:connector-curvature="0"
     d="M 13.145873,30.889783 H 1.1458743 c -0.6,0 -1,-0.4 -1,-1 v -10 c 0,-0.6 0.4,-1 1,-1 h 7 v 2 h -6 v 8 h 9.9999987 v -4 h 2 v 5 c 0,0.6 -0.4,1 -1,1 z m -5.2999987,-4.3 -1.4,-1.4 6.2999987,-6.3 H 9.1458739 v -2 h 5.9999991 c 0.9,0 1.3,1.1 0.7,1.7 z m 8.2999987,-2.7 h -2 v -3 h 2 z"
     id="path2"
     style="fill:#ffffff" /></svg>