<?xml version="1.0" encoding="UTF-8" standalone="no"?>
<svg
   xmlns:dc="http://purl.org/dc/elements/1.1/"
   xmlns:cc="http://creativecommons.org/ns#"
   xmlns:rdf="http://www.w3.org/1999/02/22-rdf-syntax-ns#"
   xmlns:svg="http://www.w3.org/2000/svg"
   xmlns="http://www.w3.org/2000/svg"
   xmlns:sodipodi="http://sodipodi.sourceforge.net/DTD/sodipodi-0.dtd"
   xmlns:inkscape="http://www.inkscape.org/namespaces/inkscape"
   data-name="Layer 1"
   viewBox="0 0 119.30745 119.30745"
   x="0px"
   y="0px"
   version="1.1"
   id="svg30"
   sodipodi:docname="inference_type_checking.svg"
   width="119.30745"
   height="119.30745"
   inkscape:version="0.92.5 (2060ec1f9f, 2020-04-08)">
  <metadata
     id="metadata36">
    <rdf:RDF>
      <cc:Work
         rdf:about="">
        <dc:format>image/svg+xml</dc:format>
        <dc:type
           rdf:resource="http://purl.org/dc/dcmitype/StillImage" />
        <dc:title>miscellaneous 251 final</dc:title>
      </cc:Work>
    </rdf:RDF>
  </metadata>
  <defs
     id="defs34" />
  <sodipodi:namedview
     pagecolor="#ffffff"
     bordercolor="#666666"
     borderopacity="1"
     objecttolerance="10"
     gridtolerance="10"
     guidetolerance="10"
     inkscape:pageopacity="0"
     inkscape:pageshadow="2"
     inkscape:window-width="1920"
     inkscape:window-height="1043"
     id="namedview32"
     showgrid="false"
     fit-margin-top="0"
     fit-margin-left="0"
     fit-margin-right="0"
     fit-margin-bottom="0"
     inkscape:zoom="2.95"
     inkscape:cx="52.999596"
     inkscape:cy="68.118646"
     inkscape:window-x="1920"
     inkscape:window-y="0"
     inkscape:window-maximized="1"
     inkscape:current-layer="svg30" />
  <title
     id="title2">miscellaneous 251 final</title>
  <path
     d="m 109.9996,75.642601 h -6 a 1.98482,1.98482 0 1 0 0,3.96953 h 1 v 23.817189 h -7.108704 a 4.66059,4.66059 0 0 0 -1.97882,-2.912 4.6299,4.6299 0 0 0 -1.28148,-4.201429 l -1.463,-1.45181 a 4.677,4.677 0 0 0 -3.3161,-1.36313 4.77485,4.77485 0 0 0 -0.91937,0.08886 4.6987,4.6987 0 0 0 -3.89807,-2.06908 h -2.069 a 4.6987,4.6987 0 0 0 -3.89807,2.06908 4.77485,4.77485 0 0 0 -0.91937,-0.08886 4.67705,4.67705 0 0 0 -3.31622,1.36325 l -1.4628,1.45169 a 4.6299,4.6299 0 0 0 -1.28149,4.201459 4.66059,4.66059 0 0 0 -1.97882,2.912 h -9.10869 V 73.657831 h 2 a 1.98482,1.98482 0 1 0 0,-3.96953 h -8 a 1.98482,1.98482 0 1 0 0,3.96953 h 2 v 29.771489 h -9.1087 a 4.66059,4.66059 0 0 0 -1.97882,-2.912 4.6299,4.6299 0 0 0 -1.28148,-4.201429 l -1.463,-1.45181 a 4.677,4.677 0 0 0 -3.3161,-1.36313 4.77438,4.77438 0 0 0 -0.91937,0.08886 4.6987,4.6987 0 0 0 -3.89807,-2.06908 h -2.069 a 4.6987,4.6987 0 0 0 -3.89807,2.06908 4.77485,4.77485 0 0 0 -0.91937,-0.08886 4.67687,4.67687 0 0 0 -3.316,1.36313 l -1.463,1.45181 a 4.6299,4.6299 0 0 0 -1.28149,4.201459 4.66059,4.66059 0 0 0 -1.97882,2.912 h -7.10871 V 79.612131 h 1 a 1.98482,1.98482 0 1 0 0,-3.96953 H 7.9995959 a 1.98482,1.98482 0 1 0 0,3.96953 h 1 v 23.817189 a 3.98942,3.98942 0 0 0 4.0000001,3.96953 h 7.1087 a 4.65965,4.65965 0 0 0 1.97888,2.912 4.6303,4.6303 0 0 0 1.28131,4.20127 l 1.46313,1.452 a 4.67713,4.67713 0 0 0 3.316,1.36307 4.77483,4.77483 0 0 0 0.91937,-0.0888 4.69886,4.69886 0 0 0 3.89813,2.06906 h 2.069 a 4.69876,4.69876 0 0 0 3.89807,-2.06914 4.76959,4.76959 0 0 0 0.91937,0.0889 4.67732,4.67732 0 0 0 3.3161,-1.36307 l 1.463,-1.45181 a 4.63065,4.63065 0 0 0 1.28143,-4.20146 4.65965,4.65965 0 0 0 1.97888,-2.912 h 22.21733 a 4.65965,4.65965 0 0 0 1.97888,2.912 4.6303,4.6303 0 0 0 1.28131,4.20127 l 1.46313,1.452 a 4.67707,4.67707 0 0 0 3.316,1.36307 4.77483,4.77483 0 0 0 0.91937,-0.0888 4.69886,4.69886 0 0 0 3.89813,2.06904 h 2.069 a 4.699,4.699 0 0 0 3.89813,-2.06914 4.769,4.769 0 0 0 0.91931,0.0889 4.67732,4.67732 0 0 0 3.3161,-1.36307 l 1.463,-1.45181 a 4.63065,4.63065 0 0 0 1.28143,-4.20146 4.65965,4.65965 0 0 0 1.97888,-2.912 h 7.108634 a 3.98942,3.98942 0 0 0 4,-3.96953 V 79.612131 h 1 a 1.98482,1.98482 0 1 0 0,-3.96953 z M 43.999596,106.4407 a 0.687,0.687 0 0 1 -0.68964,0.68438 h -0.86249 a 8.46794,8.46794 0 0 1 -1.25659,3.0058 l 0.61127,0.60661 a 0.68064,0.68064 0 0 1 0,0.96785 l -1.463,1.45187 a 0.6935,0.6935 0 0 1 -0.97534,0 l -0.61127,-0.60661 a 8.60438,8.60438 0 0 1 -3.02887,1.247 v 0.85592 a 0.687,0.687 0 0 1 -0.68964,0.68438 h -2.069 a 0.687,0.687 0 0 1 -0.68964,-0.68438 v -0.85592 a 8.60438,8.60438 0 0 1 -3.02887,-1.247 l -0.61127,0.60661 a 0.6935,0.6935 0 0 1 -0.97534,0 l -1.463,-1.45187 a 0.68064,0.68064 0 0 1 0,-0.96785 l 0.61127,-0.60661 a 8.46794,8.46794 0 0 1 -1.25659,-3.0058 h -0.86249 a 0.687,0.687 0 0 1 -0.6895,-0.68439 v -2.05324 a 0.687,0.687 0 0 1 0.68964,-0.68438 h 0.86249 a 8.46794,8.46794 0 0 1 1.25659,-3.0058 l -0.61127,-0.60661 a 0.68071,0.68071 0 0 1 0,-0.967909 l 1.463,-1.45181 a 0.69336,0.69336 0 0 1 0.97534,0 l 0.61127,0.60655 a 8.6054,8.6054 0 0 1 3.02887,-1.247 v -0.85592 a 0.687,0.687 0 0 1 0.68964,-0.68438 h 2.069 a 0.687,0.687 0 0 1 0.68964,0.68438 v 0.85592 a 8.6054,8.6054 0 0 1 3.02887,1.247 l 0.61127,-0.60655 a 0.69336,0.69336 0 0 1 0.97534,0 l 1.463,1.45181 a 0.68071,0.68071 0 0 1 0,0.967909 l -0.61127,0.60661 a 8.46794,8.46794 0 0 1 1.25659,3.0058 h 0.86249 a 0.687,0.687 0 0 1 0.6895,0.68438 z m 50,0 a 0.687,0.687 0 0 1 -0.68964,0.68438 h -0.86249 a 8.46893,8.46893 0 0 1 -1.25653,3.0058 l 0.61121,0.60661 a 0.68064,0.68064 0 0 1 0,0.96785 l -1.463,1.45187 a 0.6935,0.6935 0 0 1 -0.97534,0 l -0.61121,-0.60661 a 8.60515,8.60515 0 0 1 -3.02893,1.247 v 0.85592 a 0.687,0.687 0 0 1 -0.68964,0.68438 h -2.069 a 0.687,0.687 0 0 1 -0.68964,-0.68438 v -0.85592 a 8.60438,8.60438 0 0 1 -3.02887,-1.247 l -0.61127,0.60661 a 0.6935,0.6935 0 0 1 -0.97534,0 l -1.463,-1.45187 a 0.68064,0.68064 0 0 1 0,-0.96785 l 0.61127,-0.60661 a 8.469,8.469 0 0 1 -1.25659,-3.0058 h -0.86249 a 0.687,0.687 0 0 1 -0.6895,-0.68439 v -2.05324 a 0.687,0.687 0 0 1 0.68964,-0.68438 h 0.86249 a 8.469,8.469 0 0 1 1.25659,-3.0058 l -0.61127,-0.60661 a 0.68071,0.68071 0 0 1 0,-0.967909 l 1.463,-1.45181 a 0.69336,0.69336 0 0 1 0.97534,0 l 0.61127,0.60655 a 8.60587,8.60587 0 0 1 3.02887,-1.247 v -0.85592 a 0.687,0.687 0 0 1 0.68964,-0.68438 h 2.069 a 0.687,0.687 0 0 1 0.68964,0.68438 v 0.85592 a 8.6054,8.6054 0 0 1 3.02887,1.247 l 0.61127,-0.60655 a 0.69336,0.69336 0 0 1 0.97534,0 l 1.463,1.45181 a 0.68071,0.68071 0 0 1 0,0.967909 l -0.61121,0.60661 a 8.46893,8.46893 0 0 1 1.25653,3.0058 h 0.86249 a 0.687,0.687 0 0 1 0.6895,0.68438 z"
     id="path8"
     inkscape:connector-curvature="0"
     style="fill:#ffffff" />
  <path
     d="m 33.999596,99.459791 a 5.95447,5.95447 0 1 0 6,5.954299 5.98405,5.98405 0 0 0 -6,-5.954299 z m 0,7.939059 a 1.98482,1.98482 0 1 1 2,-1.98477 1.99245,1.99245 0 0 1 -2,1.98477 z"
     id="path22"
     inkscape:connector-curvature="0"
     style="fill:#ffffff" />
  <path
     d="m 83.999596,99.459791 a 5.95447,5.95447 0 1 0 6,5.954299 5.98405,5.98405 0 0 0 -6,-5.954299 z m 0,7.939059 a 1.98482,1.98482 0 1 1 2,-1.98477 1.99245,1.99245 0 0 1 -2,1.98477 z"
     id="path24"
     inkscape:connector-curvature="0"
     style="fill:#ffffff" />
  <g
     style="fill:#ffffff"
     transform="matrix(1.8135459,0,0,1.8135459,20.376954,-10.355345)"
     id="g8">
    <path
       style="fill:#ffffff"
       inkscape:connector-curvature="0"
       id="path2"
       d="m 21.433,26.385 c 3.444,0 6.249,-2.785 6.288,-6.222 0.011,-0.055 0.03,-0.105 0.03,-0.161 0,-0.048 -0.02,-0.094 -0.026,-0.14 v -7.86 c 0,-3.469 -2.824,-6.292 -6.292,-6.292 -3.47,0 -6.293,2.823 -6.293,6.292 v 8.09 c 0,3.47 2.823,6.293 6.293,6.293 z M 16.938,12.002 c 0,-2.478 2.016,-4.495 4.495,-4.495 2.478,0 4.494,2.017 4.494,4.495 v 8.09 c 0,2.479 -2.017,4.494 -4.494,4.494 -2.479,0 -4.495,-2.016 -4.495,-4.494 z" />
    <path
       style="fill:#ffffff"
       inkscape:connector-curvature="0"
       id="path4-3"
       d="m 39.898,27.137 c -0.86,0 -1.69,0.132 -2.474,0.367 -1.9,-1.467 -4.211,-2.519 -6.722,-3.041 -0.488,-0.107 -0.963,0.21 -1.062,0.695 -0.022,0.104 -0.018,0.208 -0.004,0.308 -0.069,0.102 -0.123,0.218 -0.146,0.348 -0.682,3.727 -4.024,6.329 -8.131,6.329 -2.269,0 -4.365,-0.806 -5.906,-2.268 -1.178,-1.111 -1.946,-2.516 -2.225,-4.06 -0.025,-0.14 -0.088,-0.261 -0.166,-0.368 -0.002,-0.005 0,-0.011 -0.002,-0.018 -0.137,-0.475 -0.633,-0.729 -1.112,-0.59 -6.196,1.776 -10.385,6.72 -10.423,12.225 -0.002,0.263 0.114,0.523 0.293,0.717 1.766,3.106 13.692,4.038 20.125,4.038 4.045,0 7.898,-0.334 11.198,-0.84 1.571,2.01 4.012,3.312 6.757,3.312 4.729,0 8.576,-3.848 8.576,-8.578 0.002,-4.729 -3.846,-8.576 -8.576,-8.576 z m -17.954,12.73 c -11.268,0 -17.888,-1.972 -18.506,-3.093 0.009,-0.054 0.015,-0.109 0.015,-0.158 0,-0.075 -0.009,-0.151 -0.019,-0.208 0.053,-0.176 0.043,-0.362 -0.01,-0.536 0.558,-3.971 3.68,-7.49 8.184,-9.071 0.431,1.66 1.324,3.165 2.609,4.38 1.875,1.779 4.411,2.76 7.142,2.76 4.795,0 8.869,-3.133 9.827,-7.49 1.572,0.42 3.038,1.058 4.325,1.905 -2.506,1.5 -4.192,4.232 -4.192,7.357 0,1.258 0.28,2.449 0.769,3.526 -3.031,0.413 -6.508,0.628 -10.144,0.628 z m 17.954,2.626 c -2.348,0 -4.421,-1.201 -5.637,-3.021 -0.004,-0.005 -0.008,-0.01 -0.011,-0.017 -0.714,-1.073 -1.133,-2.359 -1.133,-3.742 0,-3.737 3.043,-6.778 6.78,-6.778 3.737,0 6.779,3.041 6.779,6.778 0.002,3.738 -3.04,6.78 -6.778,6.78 z" />
    <path
       style="fill:#ffffff"
       inkscape:connector-curvature="0"
       id="path6-6"
       d="m 42.119,32.406 -3.655,3.654 -0.651,-0.881 c -0.295,-0.399 -0.857,-0.484 -1.258,-0.189 -0.398,0.295 -0.484,0.857 -0.189,1.256 l 1.272,1.723 c 0.012,0.018 0.032,0.022 0.046,0.037 0.018,0.021 0.022,0.046 0.042,0.064 0.049,0.048 0.107,0.073 0.164,0.108 0.036,0.021 0.064,0.051 0.104,0.068 0.117,0.054 0.242,0.087 0.368,0.087 v 0 c 10e-4,0 10e-4,0 10e-4,0 0.104,0 0.207,-0.023 0.309,-0.061 0.032,-0.012 0.059,-0.03 0.09,-0.046 0.045,-0.022 0.094,-0.039 0.135,-0.069 0.019,-0.015 0.027,-0.035 0.046,-0.051 0.019,-0.016 0.039,-0.021 0.055,-0.037 l 4.395,-4.394 c 0.352,-0.353 0.352,-0.92 0,-1.271 -0.352,-0.351 -0.923,-0.349 -1.274,0.002 z" />
  </g>
</svg>
