<?xml version="1.0" encoding="UTF-8" standalone="no"?>
<svg
   xmlns:dc="http://purl.org/dc/elements/1.1/"
   xmlns:cc="http://creativecommons.org/ns#"
   xmlns:rdf="http://www.w3.org/1999/02/22-rdf-syntax-ns#"
   xmlns:svg="http://www.w3.org/2000/svg"
   xmlns="http://www.w3.org/2000/svg"
   xmlns:sodipodi="http://sodipodi.sourceforge.net/DTD/sodipodi-0.dtd"
   xmlns:inkscape="http://www.inkscape.org/namespaces/inkscape"
   data-name="Layer 1"
   viewBox="0 0 28.000391 28.000015"
   x="0px"
   y="0px"
   version="1.1"
   id="svg12"
   sodipodi:docname="note.svg"
   width="28.000391"
   height="28.000015"
   inkscape:version="0.92.5 (2060ec1f9f, 2020-04-08)">
  <metadata
     id="metadata18">
    <rdf:RDF>
      <cc:Work
         rdf:about="">
        <dc:format>image/svg+xml</dc:format>
        <dc:type
           rdf:resource="http://purl.org/dc/dcmitype/StillImage" />
        <dc:title>note-pencil-sketch-write</dc:title>
      </cc:Work>
    </rdf:RDF>
  </metadata>
  <defs
     id="defs16" />
  <sodipodi:namedview
     pagecolor="#ffffff"
     bordercolor="#666666"
     borderopacity="1"
     objecttolerance="10"
     gridtolerance="10"
     guidetolerance="10"
     inkscape:pageopacity="0"
     inkscape:pageshadow="2"
     inkscape:window-width="1920"
     inkscape:window-height="1043"
     id="namedview14"
     showgrid="false"
     fit-margin-top="0"
     fit-margin-left="0"
     fit-margin-right="0"
     fit-margin-bottom="0"
     inkscape:zoom="6.2933333"
     inkscape:cx="14"
     inkscape:cy="10.25"
     inkscape:window-x="1920"
     inkscape:window-y="0"
     inkscape:window-maximized="1"
     inkscape:current-layer="svg12" />
  <title
     id="title2">note-pencil-sketch-write</title>
  <path
     d="m 3,28.000016 h 18 a 3,3 0 0 0 3,-3 v -10 a 1,1 0 0 0 -2,0 v 10 a 1,1 0 0 1 -1,1 H 3 a 1,1 0 0 1 -1,-1 V 5.0000159 a 1,1 0 0 1 1,-1 h 12 a 1,1 0 0 0 0,-2 H 3 a 3,3 0 0 0 -3,3 V 25.000016 a 3,3 0 0 0 3,3 z"
     id="path4"
     inkscape:connector-curvature="0"
     style="fill:#ffffff" />
  <path
     d="M 24.172,1.5928971e-5 A 3.8,3.8 0 0 0 21.465,1.1220159 L 8.293,14.293016 a 1.011,1.011 0 0 0 -0.241,0.391 l -2,6 a 1,1 0 0 0 0.948,1.316 1.014,1.014 0 0 0 0.316,-0.051 l 6,-2 a 1,1 0 0 0 0.391,-0.242 L 26.879,6.5350159 A 3.828,3.828 0 0 0 24.172,1.5928971e-5 Z M 25.465,5.1220159 l -13,13.0000001 -3.884,1.297 1.293,-3.879 13.005,-13.0000001 a 1.829,1.829 0 0 1 3.121,1.289 1.819,1.819 0 0 1 -0.535,1.293 z"
     id="path6"
     inkscape:connector-curvature="0"
     style="fill:#ffffff" />
</svg>
