<?xml version="1.0" encoding="UTF-8" standalone="no"?>
<svg
   xmlns:dc="http://purl.org/dc/elements/1.1/"
   xmlns:cc="http://creativecommons.org/ns#"
   xmlns:rdf="http://www.w3.org/1999/02/22-rdf-syntax-ns#"
   xmlns:svg="http://www.w3.org/2000/svg"
   xmlns="http://www.w3.org/2000/svg"
   xmlns:sodipodi="http://sodipodi.sourceforge.net/DTD/sodipodi-0.dtd"
   xmlns:inkscape="http://www.inkscape.org/namespaces/inkscape"
   viewBox="0 0 60 60"
   x="0px"
   y="0px"
   version="1.1"
   id="svg36"
   sodipodi:docname="static.svg"
   width="60"
   height="60"
   inkscape:version="0.92.5 (2060ec1f9f, 2020-04-08)">
  <metadata
     id="metadata42">
    <rdf:RDF>
      <cc:Work
         rdf:about="">
        <dc:format>image/svg+xml</dc:format>
        <dc:type
           rdf:resource="http://purl.org/dc/dcmitype/StillImage" />
        <dc:title>Diagram</dc:title>
      </cc:Work>
    </rdf:RDF>
  </metadata>
  <defs
     id="defs40" />
  <sodipodi:namedview
     pagecolor="#ffffff"
     bordercolor="#666666"
     borderopacity="1"
     objecttolerance="10"
     gridtolerance="10"
     guidetolerance="10"
     inkscape:pageopacity="0"
     inkscape:pageshadow="2"
     inkscape:window-width="1920"
     inkscape:window-height="1016"
     id="namedview38"
     showgrid="false"
     fit-margin-top="0"
     fit-margin-left="0"
     fit-margin-right="0"
     fit-margin-bottom="0"
     inkscape:zoom="2.95"
     inkscape:cx="30"
     inkscape:cy="22"
     inkscape:window-x="0"
     inkscape:window-y="27"
     inkscape:window-maximized="1"
     inkscape:current-layer="svg36" />
  <title
     id="title2">Diagram</title>
  <g
     id="g30"
     transform="translate(-2,-2)"
     style="fill:#ffffff">
    <path
       d="M 37,5 A 3,3 0 0 0 34,2 H 30 A 3,3 0 0 0 27,5 V 6 H 22 A 3,3 0 0 0 19,9 V 31 H 12 V 30 A 3,3 0 0 0 9,27 H 5 a 3,3 0 0 0 -3,3 v 4 a 3,3 0 0 0 3,3 h 4 a 3,3 0 0 0 3,-3 v -1 h 7 v 22 a 3,3 0 0 0 3,3 h 5 v 1 a 3,3 0 0 0 3,3 h 4 a 3,3 0 0 0 3,-3 v -1 h 3 v -2 h -3 v -1 a 3,3 0 0 0 -3,-3 h -4 a 3,3 0 0 0 -3,3 v 1 H 22 A 1,1 0 0 1 21,55 V 33 h 6 v 1 a 3,3 0 0 0 3,3 h 4 a 3,3 0 0 0 3,-3 v -1 h 3 v -2 h -3 v -1 a 3,3 0 0 0 -3,-3 h -4 a 3,3 0 0 0 -3,3 v 1 H 21 V 9 a 1,1 0 0 1 1,-1 h 5 v 1 a 3,3 0 0 0 3,3 h 4 A 3,3 0 0 0 37,9 V 8 h 3 V 6 H 37 Z M 10,34 A 1,1 0 0 1 9,35 H 5 A 1,1 0 0 1 4,34 v -4 a 1,1 0 0 1 1,-1 h 4 a 1,1 0 0 1 1,1 z m 19,21 a 1,1 0 0 1 1,-1 h 4 a 1,1 0 0 1 1,1 v 4 a 1,1 0 0 1 -1,1 h -4 a 1,1 0 0 1 -1,-1 z m 0,-25 a 1,1 0 0 1 1,-1 h 4 a 1,1 0 0 1 1,1 v 4 a 1,1 0 0 1 -1,1 H 30 A 1,1 0 0 1 29,34 Z M 35,9 a 1,1 0 0 1 -1,1 H 30 A 1,1 0 0 1 29,9 V 5 a 1,1 0 0 1 1,-1 h 4 a 1,1 0 0 1 1,1 z"
       id="path4"
       inkscape:connector-curvature="0"
       style="fill:#ffffff" />
    <path
       d="m 59,2 h -4 a 3,3 0 0 0 -3,3 v 1 h -2 v 2 h 2 v 1 a 3,3 0 0 0 3,3 h 4 A 3,3 0 0 0 62,9 V 5 A 3,3 0 0 0 59,2 Z m 1,7 a 1,1 0 0 1 -1,1 H 55 A 1,1 0 0 1 54,9 V 5 a 1,1 0 0 1 1,-1 h 4 a 1,1 0 0 1 1,1 z"
       id="path6"
       inkscape:connector-curvature="0"
       style="fill:#ffffff" />
    <path
       d="m 59,52 h -4 a 3,3 0 0 0 -3,3 v 1 h -2 v 2 h 2 v 1 a 3,3 0 0 0 3,3 h 4 a 3,3 0 0 0 3,-3 v -4 a 3,3 0 0 0 -3,-3 z m 1,7 a 1,1 0 0 1 -1,1 h -4 a 1,1 0 0 1 -1,-1 v -4 a 1,1 0 0 1 1,-1 h 4 a 1,1 0 0 1 1,1 z"
       id="path8"
       inkscape:connector-curvature="0"
       style="fill:#ffffff" />
    <path
       d="m 59,27 h -4 a 3,3 0 0 0 -3,3 v 1 h -2 v 2 h 2 v 1 a 3,3 0 0 0 3,3 h 4 a 3,3 0 0 0 3,-3 v -4 a 3,3 0 0 0 -3,-3 z m 1,7 a 1,1 0 0 1 -1,1 h -4 a 1,1 0 0 1 -1,-1 v -4 a 1,1 0 0 1 1,-1 h 4 a 1,1 0 0 1 1,1 z"
       id="path10"
       inkscape:connector-curvature="0"
       style="fill:#ffffff" />
    <rect
       x="41"
       y="6"
       width="2"
       height="2"
       id="rect12"
       style="fill:#ffffff" />
    <rect
       x="44"
       y="6"
       width="2"
       height="2"
       id="rect14"
       style="fill:#ffffff" />
    <rect
       x="47"
       y="6"
       width="2"
       height="2"
       id="rect16"
       style="fill:#ffffff" />
    <rect
       x="41"
       y="31"
       width="2"
       height="2"
       id="rect18"
       style="fill:#ffffff" />
    <rect
       x="44"
       y="31"
       width="2"
       height="2"
       id="rect20"
       style="fill:#ffffff" />
    <rect
       x="47"
       y="31"
       width="2"
       height="2"
       id="rect22"
       style="fill:#ffffff" />
    <rect
       x="41"
       y="56"
       width="2"
       height="2"
       id="rect24"
       style="fill:#ffffff" />
    <rect
       x="44"
       y="56"
       width="2"
       height="2"
       id="rect26"
       style="fill:#ffffff" />
    <rect
       x="47"
       y="56"
       width="2"
       height="2"
       id="rect28"
       style="fill:#ffffff" />
  </g>
</svg>
