<?xml version="1.0" encoding="UTF-8" standalone="no"?>
<svg
   xmlns:dc="http://purl.org/dc/elements/1.1/"
   xmlns:cc="http://creativecommons.org/ns#"
   xmlns:rdf="http://www.w3.org/1999/02/22-rdf-syntax-ns#"
   xmlns:svg="http://www.w3.org/2000/svg"
   xmlns="http://www.w3.org/2000/svg"
   xmlns:sodipodi="http://sodipodi.sourceforge.net/DTD/sodipodi-0.dtd"
   xmlns:inkscape="http://www.inkscape.org/namespaces/inkscape"
   version="1.1"
   x="0px"
   y="0px"
   viewBox="0 0 46.949032 46.949031"
   enable-background="new 0 0 50 50"
   xml:space="preserve"
   id="svg14"
   sodipodi:docname="type_checking.svg"
   width="46.949032"
   height="46.949032"
   inkscape:version="0.92.5 (2060ec1f9f, 2020-04-08)"><metadata
     id="metadata20"><rdf:RDF><cc:Work
         rdf:about=""><dc:format>image/svg+xml</dc:format><dc:type
           rdf:resource="http://purl.org/dc/dcmitype/StillImage" /><dc:title></dc:title></cc:Work></rdf:RDF></metadata><defs
     id="defs18" /><sodipodi:namedview
     pagecolor="#ffffff"
     bordercolor="#666666"
     borderopacity="1"
     objecttolerance="10"
     gridtolerance="10"
     guidetolerance="10"
     inkscape:pageopacity="0"
     inkscape:pageshadow="2"
     inkscape:window-width="1920"
     inkscape:window-height="1016"
     id="namedview16"
     showgrid="false"
     fit-margin-top="0"
     fit-margin-left="0"
     fit-margin-right="0"
     fit-margin-bottom="0"
     inkscape:zoom="3.776"
     inkscape:cx="23.475025"
     inkscape:cy="13.041"
     inkscape:window-x="0"
     inkscape:window-y="27"
     inkscape:window-maximized="1"
     inkscape:current-layer="svg14" /><g
     id="g8"
     transform="translate(-1.5249745,-1.3419713)"
     style="fill:#ffffff"><path
       d="m 21.433,26.385 c 3.444,0 6.249,-2.785 6.288,-6.222 0.011,-0.055 0.03,-0.105 0.03,-0.161 0,-0.048 -0.02,-0.094 -0.026,-0.14 v -7.86 c 0,-3.469 -2.824,-6.292 -6.292,-6.292 -3.47,0 -6.293,2.823 -6.293,6.292 v 8.09 c 0,3.47 2.823,6.293 6.293,6.293 z M 16.938,12.002 c 0,-2.478 2.016,-4.495 4.495,-4.495 2.478,0 4.494,2.017 4.494,4.495 v 8.09 c 0,2.479 -2.017,4.494 -4.494,4.494 -2.479,0 -4.495,-2.016 -4.495,-4.494 z"
       id="path2"
       inkscape:connector-curvature="0"
       style="fill:#ffffff" /><path
       d="m 39.898,27.137 c -0.86,0 -1.69,0.132 -2.474,0.367 -1.9,-1.467 -4.211,-2.519 -6.722,-3.041 -0.488,-0.107 -0.963,0.21 -1.062,0.695 -0.022,0.104 -0.018,0.208 -0.004,0.308 -0.069,0.102 -0.123,0.218 -0.146,0.348 -0.682,3.727 -4.024,6.329 -8.131,6.329 -2.269,0 -4.365,-0.806 -5.906,-2.268 -1.178,-1.111 -1.946,-2.516 -2.225,-4.06 -0.025,-0.14 -0.088,-0.261 -0.166,-0.368 -0.002,-0.005 0,-0.011 -0.002,-0.018 -0.137,-0.475 -0.633,-0.729 -1.112,-0.59 -6.196,1.776 -10.385,6.72 -10.423,12.225 -0.002,0.263 0.114,0.523 0.293,0.717 1.766,3.106 13.692,4.038 20.125,4.038 4.045,0 7.898,-0.334 11.198,-0.84 1.571,2.01 4.012,3.312 6.757,3.312 4.729,0 8.576,-3.848 8.576,-8.578 0.002,-4.729 -3.846,-8.576 -8.576,-8.576 z m -17.954,12.73 c -11.268,0 -17.888,-1.972 -18.506,-3.093 0.009,-0.054 0.015,-0.109 0.015,-0.158 0,-0.075 -0.009,-0.151 -0.019,-0.208 0.053,-0.176 0.043,-0.362 -0.01,-0.536 0.558,-3.971 3.68,-7.49 8.184,-9.071 0.431,1.66 1.324,3.165 2.609,4.38 1.875,1.779 4.411,2.76 7.142,2.76 4.795,0 8.869,-3.133 9.827,-7.49 1.572,0.42 3.038,1.058 4.325,1.905 -2.506,1.5 -4.192,4.232 -4.192,7.357 0,1.258 0.28,2.449 0.769,3.526 -3.031,0.413 -6.508,0.628 -10.144,0.628 z m 17.954,2.626 c -2.348,0 -4.421,-1.201 -5.637,-3.021 -0.004,-0.005 -0.008,-0.01 -0.011,-0.017 -0.714,-1.073 -1.133,-2.359 -1.133,-3.742 0,-3.737 3.043,-6.778 6.78,-6.778 3.737,0 6.779,3.041 6.779,6.778 0.002,3.738 -3.04,6.78 -6.778,6.78 z"
       id="path4"
       inkscape:connector-curvature="0"
       style="fill:#ffffff" /><path
       d="m 42.119,32.406 -3.655,3.654 -0.651,-0.881 c -0.295,-0.399 -0.857,-0.484 -1.258,-0.189 -0.398,0.295 -0.484,0.857 -0.189,1.256 l 1.272,1.723 c 0.012,0.018 0.032,0.022 0.046,0.037 0.018,0.021 0.022,0.046 0.042,0.064 0.049,0.048 0.107,0.073 0.164,0.108 0.036,0.021 0.064,0.051 0.104,0.068 0.117,0.054 0.242,0.087 0.368,0.087 v 0 c 10e-4,0 10e-4,0 10e-4,0 0.104,0 0.207,-0.023 0.309,-0.061 0.032,-0.012 0.059,-0.03 0.09,-0.046 0.045,-0.022 0.094,-0.039 0.135,-0.069 0.019,-0.015 0.027,-0.035 0.046,-0.051 0.019,-0.016 0.039,-0.021 0.055,-0.037 l 4.395,-4.394 c 0.352,-0.353 0.352,-0.92 0,-1.271 -0.352,-0.351 -0.923,-0.349 -1.274,0.002 z"
       id="path6"
       inkscape:connector-curvature="0"
       style="fill:#ffffff" /></g></svg>