<?xml version="1.0" encoding="UTF-8" standalone="no"?>
<svg
   xmlns:dc="http://purl.org/dc/elements/1.1/"
   xmlns:cc="http://creativecommons.org/ns#"
   xmlns:rdf="http://www.w3.org/1999/02/22-rdf-syntax-ns#"
   xmlns:svg="http://www.w3.org/2000/svg"
   xmlns="http://www.w3.org/2000/svg"
   xmlns:sodipodi="http://sodipodi.sourceforge.net/DTD/sodipodi-0.dtd"
   xmlns:inkscape="http://www.inkscape.org/namespaces/inkscape"
   version="1.0"
   x="0px"
   y="0px"
   viewBox="0 0 80 80.000999"
   enable-background="new 0 0 100 100"
   xml:space="preserve"
   id="svg24"
   sodipodi:docname="assembly.svg"
   width="80"
   height="80.000999"
   inkscape:version="0.92.5 (2060ec1f9f, 2020-04-08)"><metadata
     id="metadata30"><rdf:RDF><cc:Work
         rdf:about=""><dc:format>image/svg+xml</dc:format><dc:type
           rdf:resource="http://purl.org/dc/dcmitype/StillImage" /><dc:title></dc:title></cc:Work></rdf:RDF></metadata><defs
     id="defs28" /><sodipodi:namedview
     pagecolor="#ffffff"
     bordercolor="#666666"
     borderopacity="1"
     objecttolerance="10"
     gridtolerance="10"
     guidetolerance="10"
     inkscape:pageopacity="0"
     inkscape:pageshadow="2"
     inkscape:window-width="769"
     inkscape:window-height="480"
     id="namedview26"
     showgrid="false"
     fit-margin-top="0"
     fit-margin-left="0"
     fit-margin-right="0"
     fit-margin-bottom="0"
     inkscape:zoom="1.888"
     inkscape:cx="22.827365"
     inkscape:cy="27.5"
     inkscape:window-x="0"
     inkscape:window-y="27"
     inkscape:window-maximized="0"
     inkscape:current-layer="svg24" /><path
     d="M 16.667,60.001 H 3.334 C 1.501,60.001 0,61.502 0,63.334 v 13.334 c 0,1.832 1.501,3.333 3.334,3.333 H 16.667 C 18.499,80.001 20,78.5 20,76.668 V 63.334 c 0,-1.832 -1.501,-3.333 -3.333,-3.333 z M 13.333,73.334 H 6.667 v -6.666 h 6.666 z"
     id="path2"
     inkscape:connector-curvature="0"
     style="fill:#ffffff" /><path
     d="M 43.333,60.001 H 30 c -1.833,0 -3.334,1.501 -3.334,3.333 v 13.334 c 0,1.832 1.501,3.333 3.334,3.333 h 13.333 c 1.832,0 3.333,-1.501 3.333,-3.333 V 63.334 c 0,-1.832 -1.501,-3.333 -3.333,-3.333 z m -3.334,13.333 h -6.666 v -6.666 h 6.666 z"
     id="path4"
     inkscape:connector-curvature="0"
     style="fill:#ffffff" /><path
     d="M 69.999,60.001 H 56.666 c -1.833,0 -3.334,1.501 -3.334,3.333 v 13.334 c 0,1.832 1.501,3.333 3.334,3.333 h 13.333 c 1.832,0 3.333,-1.501 3.333,-3.333 V 63.334 c 0,-1.832 -1.501,-3.333 -3.333,-3.333 z m -3.333,13.333 h -6.667 v -6.666 h 6.667 z"
     id="path6"
     inkscape:connector-curvature="0"
     style="fill:#ffffff" /><path
     d="M 16.667,33.335 H 3.334 C 1.501,33.335 0,34.836 0,36.668 v 13.333 c 0,1.833 1.501,3.334 3.334,3.334 H 16.667 C 18.499,53.335 20,51.834 20,50.001 V 36.668 c 0,-1.832 -1.501,-3.333 -3.333,-3.333 z M 13.333,46.668 H 6.667 v -6.666 h 6.666 z"
     id="path8"
     inkscape:connector-curvature="0"
     style="fill:#ffffff" /><path
     d="M 43.333,33.335 H 30 c -1.833,0 -3.334,1.501 -3.334,3.333 v 13.333 c 0,1.833 1.501,3.334 3.334,3.334 h 13.333 c 1.832,0 3.333,-1.501 3.333,-3.334 V 36.668 c 0,-1.832 -1.501,-3.333 -3.333,-3.333 z m -3.334,13.333 h -6.666 v -6.666 h 6.666 z"
     id="path10"
     inkscape:connector-curvature="0"
     style="fill:#ffffff" /><path
     d="M 78.456,45.669 73.352,33.348 C 72.652,31.656 70.693,30.842 69,31.545 l -12.321,5.104 c -1.692,0.703 -2.503,2.663 -1.804,4.355 l 5.104,12.317 c 0.7,1.693 2.659,2.504 4.355,1.804 l 12.317,-5.104 c 1.694,-0.7 2.504,-2.66 1.805,-4.352 z m -13.594,2.021 -2.552,-6.159 6.158,-2.552 2.552,6.159 z"
     id="path12"
     inkscape:connector-curvature="0"
     style="fill:#ffffff" /><path
     d="M 16.667,6.669 H 3.334 C 1.501,6.669 0,8.17 0,10.002 v 13.333 c 0,1.833 1.501,3.334 3.334,3.334 H 16.667 C 18.499,26.669 20,25.168 20,23.335 V 10.002 C 20,8.17 18.499,6.669 16.667,6.669 Z M 13.333,20.002 H 6.667 v -6.666 h 6.666 z"
     id="path14"
     inkscape:connector-curvature="0"
     style="fill:#ffffff" /><path
     d="M 46.653,9.982 34.332,4.878 C 32.64,4.175 30.68,4.988 29.977,6.681 l -5.101,12.317 c -0.703,1.693 0.11,3.656 1.804,4.355 l 12.317,5.104 c 1.692,0.703 3.655,-0.11 4.355,-1.804 l 5.104,-12.317 c 0.7,-1.69 -0.11,-3.653 -1.803,-4.354 z m -8.183,11.042 -6.159,-2.553 2.553,-6.158 6.158,2.552 z"
     id="path16"
     inkscape:connector-curvature="0"
     style="fill:#ffffff" /><path
     d="m 79.028,10.402 -9.427,-9.43 c -1.295,-1.296 -3.418,-1.296 -4.713,0 l -9.428,9.43 c -1.295,1.296 -1.295,3.418 0,4.714 l 9.428,9.43 c 1.295,1.296 3.418,1.296 4.713,0 l 9.427,-9.43 c 1.296,-1.296 1.296,-3.418 0,-4.714 z m -11.783,7.071 -4.714,-4.713 4.714,-4.714 4.713,4.714 z"
     id="path18"
     inkscape:connector-curvature="0"
     style="fill:#ffffff" /></svg>