<?xml version="1.0" encoding="UTF-8" standalone="no"?>
<svg
   xmlns:dc="http://purl.org/dc/elements/1.1/"
   xmlns:cc="http://creativecommons.org/ns#"
   xmlns:rdf="http://www.w3.org/1999/02/22-rdf-syntax-ns#"
   xmlns:svg="http://www.w3.org/2000/svg"
   xmlns="http://www.w3.org/2000/svg"
   xmlns:sodipodi="http://sodipodi.sourceforge.net/DTD/sodipodi-0.dtd"
   xmlns:inkscape="http://www.inkscape.org/namespaces/inkscape"
   version="1.1"
   x="0px"
   y="0px"
   viewBox="0 0 124 124"
   xml:space="preserve"
   id="svg76"
   sodipodi:docname="data_flow.svg"
   width="124"
   height="124"
   inkscape:version="0.92.5 (2060ec1f9f, 2020-04-08)"><metadata
     id="metadata82"><rdf:RDF><cc:Work
         rdf:about=""><dc:format>image/svg+xml</dc:format><dc:type
           rdf:resource="http://purl.org/dc/dcmitype/StillImage" /><dc:title></dc:title></cc:Work></rdf:RDF></metadata><defs
     id="defs80" /><sodipodi:namedview
     pagecolor="#ffffff"
     bordercolor="#666666"
     borderopacity="1"
     objecttolerance="10"
     gridtolerance="10"
     guidetolerance="10"
     inkscape:pageopacity="0"
     inkscape:pageshadow="2"
     inkscape:window-width="769"
     inkscape:window-height="480"
     id="namedview78"
     showgrid="false"
     fit-margin-top="0"
     fit-margin-left="0"
     fit-margin-right="0"
     fit-margin-bottom="0"
     inkscape:zoom="1.475"
     inkscape:cx="54.000331"
     inkscape:cy="46.000001"
     inkscape:window-x="0"
     inkscape:window-y="27"
     inkscape:window-maximized="0"
     inkscape:current-layer="svg76" /><g
     id="g70"
     transform="translate(-1.9996692,-2)"
     style="fill:#ffffff"><g
       id="g68"
       style="fill:#ffffff"><ellipse
         cx="18.586"
         cy="49.131001"
         rx="8.1669998"
         ry="8.1269999"
         id="ellipse2"
         style="fill:#ffffff" /><ellipse
         cx="58.435001"
         cy="10.127"
         rx="8.1669998"
         ry="8.1269999"
         id="ellipse4"
         style="fill:#ffffff" /><g
         id="g10"
         style="fill:#ffffff"><path
           d="m 69.958,59.326 c -0.944,0 -1.797,-0.65 -2.015,-1.608 L 60.496,25.056 c -0.254,-1.113 0.443,-2.221 1.558,-2.474 1.11,-0.249 2.223,0.443 2.477,1.556 L 71.978,56.8 c 0.254,1.113 -0.443,2.221 -1.558,2.474 -0.154,0.035 -0.309,0.052 -0.462,0.052 z"
           id="path6"
           inkscape:connector-curvature="0"
           style="fill:#ffffff" /><path
           d="m 57.837,34.223 c -0.371,0 -0.747,-0.1 -1.085,-0.309 -0.973,-0.6 -1.274,-1.873 -0.673,-2.845 l 4.674,-7.559 c 0.599,-0.968 1.869,-1.271 2.841,-0.676 l 7.566,4.633 c 0.975,0.596 1.28,1.869 0.683,2.842 -0.597,0.972 -1.871,1.279 -2.845,0.682 l -5.809,-3.557 -3.591,5.807 c -0.39,0.633 -1.067,0.982 -1.761,0.982 z"
           id="path8"
           inkscape:connector-curvature="0"
           style="fill:#ffffff" /></g><ellipse
         cx="109.833"
         cy="29.252001"
         rx="8.1669998"
         ry="8.1269999"
         id="ellipse12"
         style="fill:#ffffff" /><ellipse
         cx="18.586"
         cy="105.909"
         rx="8.1669998"
         ry="8.1269999"
         id="ellipse14"
         style="fill:#ffffff" /><ellipse
         cx="108.706"
         cy="86.222"
         rx="8.1669998"
         ry="8.1269999"
         id="ellipse16"
         style="fill:#ffffff" /><ellipse
         cx="69.960999"
         cy="61.792999"
         rx="8.1669998"
         ry="8.1269999"
         id="ellipse18"
         style="fill:#ffffff" /><ellipse
         cx="68.587997"
         cy="117.873"
         rx="8.1669998"
         ry="8.1269999"
         id="ellipse20"
         style="fill:#ffffff" /><g
         id="g26"
         style="fill:#ffffff"><path
           d="m 96.551,24.991 c -0.259,0 -0.522,-0.049 -0.777,-0.152 L 63.432,11.733 C 62.373,11.304 61.863,10.099 62.293,9.041 62.723,7.983 63.927,7.474 64.988,7.903 L 97.33,21.008 c 1.059,0.429 1.569,1.634 1.139,2.692 -0.326,0.804 -1.101,1.291 -1.918,1.291 z"
           id="path22"
           inkscape:connector-curvature="0"
           style="fill:#ffffff" /><path
           d="m 88.174,27.932 c -0.854,0 -1.653,-0.532 -1.952,-1.382 -0.379,-1.077 0.188,-2.256 1.266,-2.635 l 6.421,-2.254 -2.275,-6.416 c -0.382,-1.076 0.182,-2.257 1.259,-2.638 1.076,-0.381 2.259,0.182 2.641,1.258 l 2.968,8.37 c 0.184,0.518 0.154,1.087 -0.084,1.582 -0.236,0.495 -0.662,0.876 -1.18,1.058 l -8.377,2.941 c -0.228,0.078 -0.46,0.116 -0.687,0.116 z"
           id="path24"
           inkscape:connector-curvature="0"
           style="fill:#ffffff" /></g><g
         id="g32"
         style="fill:#ffffff"><path
           d="m 20.405,45.583 c -0.581,0 -1.158,-0.243 -1.567,-0.716 -0.747,-0.864 -0.651,-2.169 0.214,-2.915 L 45.556,19.1 c 0.865,-0.747 2.171,-0.65 2.917,0.214 0.747,0.864 0.651,2.169 -0.214,2.915 L 21.755,45.081 c -0.391,0.337 -0.871,0.502 -1.35,0.502 z"
           id="path28"
           inkscape:connector-curvature="0"
           style="fill:#ffffff" /><path
           d="m 46.116,31.536 c -0.062,0 -0.124,-0.003 -0.188,-0.009 -1.137,-0.102 -1.977,-1.106 -1.875,-2.243 l 0.608,-6.745 -6.821,-0.608 c -1.138,-0.102 -1.979,-1.105 -1.877,-2.242 0.102,-1.137 1.108,-1.979 2.245,-1.875 l 8.884,0.793 c 0.547,0.049 1.052,0.313 1.404,0.734 0.352,0.421 0.521,0.964 0.473,1.511 l -0.794,8.805 c -0.097,1.072 -1,1.879 -2.059,1.879 z"
           id="path30"
           inkscape:connector-curvature="0"
           style="fill:#ffffff" /></g><g
         id="g38"
         style="fill:#ffffff"><path
           d="m 18.483,92.997 c -0.002,0 -0.004,0 -0.006,0 -1.143,-0.003 -2.066,-0.931 -2.063,-2.073 l 0.103,-35.951 c 0.003,-1.139 0.929,-2.061 2.069,-2.061 0.002,0 0.004,0 0.006,0 1.143,0.003 2.066,0.931 2.063,2.073 l -0.103,35.951 c -0.003,1.14 -0.929,2.061 -2.069,2.061 z"
           id="path34"
           inkscape:connector-curvature="0"
           style="fill:#ffffff" /><path
           d="m 18.483,92.997 c -0.513,0 -1.027,-0.19 -1.428,-0.572 L 10.64,86.31 c -0.826,-0.788 -0.857,-2.096 -0.069,-2.922 0.791,-0.825 2.098,-0.856 2.926,-0.068 l 4.924,4.694 4.742,-4.924 c 0.793,-0.823 2.101,-0.847 2.926,-0.057 0.823,0.791 0.849,2.099 0.057,2.922 l -6.17,6.408 c -0.408,0.422 -0.95,0.634 -1.493,0.634 z"
           id="path36"
           inkscape:connector-curvature="0"
           style="fill:#ffffff" /></g><g
         id="g44"
         style="fill:#ffffff"><path
           d="m 31.894,99.876 c -0.538,0 -1.076,-0.208 -1.481,-0.624 -0.798,-0.817 -0.782,-2.126 0.036,-2.923 L 65.158,62.52 c 0.817,-0.796 2.128,-0.781 2.925,0.037 0.798,0.817 0.782,2.126 -0.036,2.923 L 33.338,99.289 c -0.402,0.392 -0.923,0.587 -1.444,0.587 z"
           id="path40"
           inkscape:connector-curvature="0"
           style="fill:#ffffff" /><path
           d="m 40.809,100.183 c -0.024,0 -0.048,-0.001 -0.073,-0.001 L 31.822,99.875 C 31.273,99.856 30.755,99.62 30.381,99.219 30.006,98.818 29.806,98.285 29.825,97.737 l 0.308,-8.835 c 0.04,-1.14 1.02,-2.013 2.14,-1.994 1.143,0.04 2.036,0.997 1.996,2.138 l -0.236,6.769 6.846,0.236 c 1.142,0.039 2.036,0.996 1.996,2.137 -0.038,1.116 -0.956,1.995 -2.066,1.995 z"
           id="path42"
           inkscape:connector-curvature="0"
           style="fill:#ffffff" /></g><g
         id="g50"
         style="fill:#ffffff"><path
           d="m 108.706,84.804 c -0.001,0 -0.002,0 -0.003,0 -1.143,-0.002 -2.068,-0.928 -2.066,-2.07 l 0.056,-39.016 c 0.002,-1.14 0.927,-2.064 2.069,-2.064 0.001,0 0.002,0 0.003,0 1.143,0.002 2.068,0.928 2.066,2.07 l -0.056,39.016 c -0.002,1.141 -0.927,2.064 -2.069,2.064 z"
           id="path46"
           inkscape:connector-curvature="0"
           style="fill:#ffffff" /><path
           d="m 115.02,52.062 c -0.53,0 -1.062,-0.203 -1.466,-0.608 l -4.803,-4.815 -4.864,4.805 c -0.812,0.803 -2.123,0.795 -2.926,-0.016 -0.804,-0.811 -0.796,-2.12 0.016,-2.922 l 6.33,-6.253 c 0.81,-0.801 2.115,-0.796 2.92,0.011 l 6.258,6.274 c 0.806,0.808 0.804,2.117 -0.005,2.922 -0.403,0.401 -0.932,0.602 -1.46,0.602 z"
           id="path48"
           inkscape:connector-curvature="0"
           style="fill:#ffffff" /></g><g
         id="g56"
         style="fill:#ffffff"><path
           d="m 81.443,111.08 c -0.635,0 -1.263,-0.291 -1.669,-0.842 -0.677,-0.919 -0.48,-2.213 0.44,-2.889 L 107.48,87.31 c 0.922,-0.677 2.215,-0.479 2.893,0.44 0.677,0.919 0.48,2.213 -0.44,2.889 l -27.265,20.039 c -0.37,0.272 -0.799,0.402 -1.225,0.402 z"
           id="path52"
           inkscape:connector-curvature="0"
           style="fill:#ffffff" /><path
           d="m 90.203,112.756 c -0.128,0 -0.26,-0.012 -0.391,-0.037 l -8.759,-1.675 c -0.539,-0.103 -1.015,-0.416 -1.323,-0.87 -0.308,-0.455 -0.423,-1.012 -0.319,-1.551 l 1.677,-8.681 c 0.216,-1.12 1.3,-1.853 2.423,-1.638 1.122,0.216 1.856,1.3 1.64,2.421 l -1.284,6.649 6.724,1.286 c 1.122,0.214 1.858,1.297 1.643,2.418 -0.191,0.989 -1.059,1.678 -2.031,1.678 z"
           id="path54"
           inkscape:connector-curvature="0"
           style="fill:#ffffff" /></g><g
         id="g62"
         style="fill:#ffffff"><path
           d="m 68.38,104.542 c -0.016,0 -0.031,0 -0.047,-0.001 -1.142,-0.025 -2.048,-0.971 -2.021,-2.112 l 0.772,-34.575 c 0.025,-1.142 0.962,-2.069 2.114,-2.02 1.142,0.025 2.048,0.971 2.021,2.112 l -0.772,34.575 c -0.025,1.126 -0.946,2.021 -2.067,2.021 z"
           id="path58"
           inkscape:connector-curvature="0"
           style="fill:#ffffff" /><path
           d="m 68.379,104.542 c -0.606,0 -1.182,-0.265 -1.576,-0.728 L 61.06,97.07 c -0.74,-0.869 -0.634,-2.174 0.235,-2.913 0.87,-0.74 2.177,-0.633 2.916,0.235 l 4.083,4.796 3.822,-4.978 c 0.696,-0.905 1.994,-1.076 2.9,-0.383 0.907,0.695 1.078,1.992 0.383,2.898 l -5.379,7.009 c -0.38,0.495 -0.964,0.793 -1.589,0.809 -0.017,-0.001 -0.035,-0.001 -0.052,-0.001 z"
           id="path60"
           inkscape:connector-curvature="0"
           style="fill:#ffffff" /></g><g
         id="g66"
         style="fill:#ffffff"><path
           d="m 115.02,52.062 c -0.53,0 -1.062,-0.203 -1.466,-0.608 l -4.803,-4.815 -4.864,4.805 c -0.812,0.803 -2.123,0.795 -2.926,-0.016 -0.804,-0.811 -0.796,-2.12 0.016,-2.922 l 6.33,-6.253 c 0.81,-0.801 2.115,-0.796 2.92,0.011 l 6.258,6.274 c 0.806,0.808 0.804,2.117 -0.005,2.922 -0.403,0.401 -0.932,0.602 -1.46,0.602 z"
           id="path64"
           inkscape:connector-curvature="0"
           style="fill:#ffffff" /></g></g></g></svg>