<?xml version="1.0" encoding="UTF-8" standalone="no"?>
<svg
   xmlns:dc="http://purl.org/dc/elements/1.1/"
   xmlns:cc="http://creativecommons.org/ns#"
   xmlns:rdf="http://www.w3.org/1999/02/22-rdf-syntax-ns#"
   xmlns:svg="http://www.w3.org/2000/svg"
   xmlns="http://www.w3.org/2000/svg"
   xmlns:sodipodi="http://sodipodi.sourceforge.net/DTD/sodipodi-0.dtd"
   xmlns:inkscape="http://www.inkscape.org/namespaces/inkscape"
   version="1.1"
   x="0px"
   y="0px"
   viewBox="0 0 34.106998 34.106998"
   enable-background="new 0 0 42.52 42.52"
   xml:space="preserve"
   id="svg50"
   sodipodi:docname="howto.svg"
   width="34.106998"
   height="34.106998"
   inkscape:version="0.92.5 (2060ec1f9f, 2020-04-08)"><metadata
     id="metadata56"><rdf:RDF><cc:Work
         rdf:about=""><dc:format>image/svg+xml</dc:format><dc:type
           rdf:resource="http://purl.org/dc/dcmitype/StillImage" /><dc:title></dc:title></cc:Work></rdf:RDF></metadata><defs
     id="defs54" /><sodipodi:namedview
     pagecolor="#ffffff"
     bordercolor="#666666"
     borderopacity="1"
     objecttolerance="10"
     gridtolerance="10"
     guidetolerance="10"
     inkscape:pageopacity="0"
     inkscape:pageshadow="2"
     inkscape:window-width="1920"
     inkscape:window-height="1016"
     id="namedview52"
     showgrid="false"
     fit-margin-top="0"
     fit-margin-left="0"
     fit-margin-right="0"
     fit-margin-bottom="0"
     inkscape:zoom="4.4402633"
     inkscape:cx="16.834"
     inkscape:cy="9.2180009"
     inkscape:window-x="0"
     inkscape:window-y="27"
     inkscape:window-maximized="1"
     inkscape:current-layer="svg50" /><circle
     cx="2.678"
     cy="5.7179985"
     r="2.678"
     id="circle2"
     style="fill:#ffffff" /><circle
     cx="29.554998"
     cy="5.9019985"
     r="2.678"
     id="circle4"
     style="fill:#ffffff" /><circle
     cx="2.678"
     cy="29.429001"
     r="2.678"
     id="circle6"
     style="fill:#ffffff" /><path
     d="m 27.488,18.868999 c -3.655,0 -6.62,2.963 -6.62,6.618 0,3.656 2.965,6.62 6.62,6.62 3.654,0 6.619,-2.964 6.619,-6.62 0,-3.655 -2.965,-6.618 -6.619,-6.618 z m -1.35,10.363 -3.191,-3.582 0.998,-0.889 2.267,2.545 4.889,-4.713 0.928,0.963 z"
     id="path8"
     inkscape:connector-curvature="0"
     style="fill:#ffffff" /><g
     id="g20"
     transform="translate(-4.4260001,-3.6860016)"
     style="fill:#ffffff"><g
       id="g12"
       style="fill:#ffffff"><rect
         x="9.4390001"
         y="8.8120003"
         width="18.958"
         height="1.186"
         id="rect10"
         style="fill:#ffffff" /></g><g
       id="g18"
       style="fill:#ffffff"><g
         id="g16"
         style="fill:#ffffff"><polygon
           points="28.006,9.405 25.994,7.395 27.701,7.395 29.711,9.405 27.701,11.415 25.994,11.415 "
           id="polygon14"
           style="fill:#ffffff" /></g></g></g><g
     id="g32"
     transform="translate(-4.4260001,-3.6860016)"
     style="fill:#ffffff"><g
       id="g24"
       style="fill:#ffffff"><rect
         x="9.1470003"
         y="32.522999"
         width="14.791"
         height="1.186"
         id="rect22"
         style="fill:#ffffff" /></g><g
       id="g30"
       style="fill:#ffffff"><g
         id="g28"
         style="fill:#ffffff"><polygon
           points="23.589,33.117 21.578,31.106 23.284,31.107 25.294,33.117 23.284,35.126 21.577,35.126 "
           id="polygon26"
           style="fill:#ffffff" /></g></g></g><g
     id="g44"
     transform="translate(-4.4260001,-3.6860016)"
     style="fill:#ffffff"><g
       id="g36"
       style="fill:#ffffff"><polygon
         points="32.621,11.679 12.231,30.891 11.466,29.985 31.855,10.773 "
         id="polygon34"
         style="fill:#ffffff" /></g><g
       id="g42"
       style="fill:#ffffff"><g
         id="g40"
         style="fill:#ffffff"><polygon
           points="12.101,30.2 14.934,30.438 13.63,31.539 10.797,31.3 11.036,28.468 12.34,27.367 "
           id="polygon38"
           style="fill:#ffffff" /></g></g></g></svg>