<?xml version="1.0" encoding="UTF-8" standalone="no"?>
<svg
   xmlns:dc="http://purl.org/dc/elements/1.1/"
   xmlns:cc="http://creativecommons.org/ns#"
   xmlns:rdf="http://www.w3.org/1999/02/22-rdf-syntax-ns#"
   xmlns:svg="http://www.w3.org/2000/svg"
   xmlns="http://www.w3.org/2000/svg"
   xmlns:sodipodi="http://sodipodi.sourceforge.net/DTD/sodipodi-0.dtd"
   xmlns:inkscape="http://www.inkscape.org/namespaces/inkscape"
   version="1.1"
   x="0px"
   y="0px"
   viewBox="0 0 57.400002 57.400002"
   xml:space="preserve"
   id="svg38"
   sodipodi:docname="noun_MACHINE LANGUAGE_2161856.svg"
   width="57.400002"
   height="57.400002"
   inkscape:version="0.92.5 (2060ec1f9f, 2020-04-08)"><metadata
     id="metadata44"><rdf:RDF><cc:Work
         rdf:about=""><dc:format>image/svg+xml</dc:format><dc:type
           rdf:resource="http://purl.org/dc/dcmitype/StillImage" /><dc:title></dc:title></cc:Work></rdf:RDF></metadata><defs
     id="defs42" /><sodipodi:namedview
     pagecolor="#ffffff"
     bordercolor="#666666"
     borderopacity="1"
     objecttolerance="10"
     gridtolerance="10"
     guidetolerance="10"
     inkscape:pageopacity="0"
     inkscape:pageshadow="2"
     inkscape:window-width="769"
     inkscape:window-height="480"
     id="namedview40"
     showgrid="false"
     fit-margin-top="0"
     fit-margin-left="0"
     fit-margin-right="0"
     fit-margin-bottom="0"
     inkscape:zoom="2.95"
     inkscape:cx="28.7"
     inkscape:cy="14.4"
     inkscape:window-x="0"
     inkscape:window-y="27"
     inkscape:window-maximized="0"
     inkscape:current-layer="svg38" /><g
     id="g32"
     transform="translate(-3.3,-3.0000008)"
     style="fill:#ffffff"><g
       id="g30"
       style="fill:#ffffff"><path
         d="m 29,24.3 c -0.5,0 -0.8,0.2 -1,0.7 -0.2,0.4 -0.3,1.1 -0.3,2 0,0.9 0.1,1.5 0.3,2 0.2,0.4 0.6,0.7 1,0.7 0.5,0 0.8,-0.2 1,-0.7 0.2,-0.4 0.3,-1.1 0.3,-2 0,-0.9 -0.1,-1.5 -0.3,-2 -0.2,-0.5 -0.5,-0.7 -1,-0.7 z"
         id="path2"
         inkscape:connector-curvature="0"
         style="fill:#ffffff" /><path
         d="m 28.6,49.7 c 0.5,0 0.8,-0.2 1.1,-0.7 0.2,-0.5 0.4,-1.1 0.4,-2.1 0,-0.9 -0.1,-1.6 -0.4,-2.1 -0.2,-0.5 -0.6,-0.7 -1.1,-0.7 -0.5,0 -0.8,0.2 -1.1,0.7 -0.2,0.5 -0.4,1.1 -0.4,2.1 0,0.9 0.1,1.6 0.4,2.1 0.3,0.5 0.6,0.7 1.1,0.7 z"
         id="path4"
         inkscape:connector-curvature="0"
         style="fill:#ffffff" /><path
         d="m 22.5,49.7 c 0.5,0 0.8,-0.2 1.1,-0.7 0.2,-0.5 0.4,-1.1 0.4,-2.1 0,-0.9 -0.1,-1.6 -0.4,-2.1 -0.2,-0.5 -0.6,-0.7 -1.1,-0.7 -0.5,0 -0.8,0.2 -1.1,0.7 -0.2,0.5 -0.4,1.1 -0.4,2.1 0,0.9 0.1,1.6 0.4,2.1 0.3,0.5 0.6,0.7 1.1,0.7 z"
         id="path6"
         inkscape:connector-curvature="0"
         style="fill:#ffffff" /><path
         d="m 17.2,24.3 c -0.5,0 -0.8,0.2 -1,0.7 -0.2,0.4 -0.3,1.1 -0.3,2 0,0.9 0.1,1.5 0.3,2 0.2,0.4 0.6,0.7 1,0.7 0.5,0 0.8,-0.2 1,-0.7 0.2,-0.4 0.3,-1.1 0.3,-2 0,-0.9 -0.1,-1.5 -0.3,-2 -0.2,-0.5 -0.5,-0.7 -1,-0.7 z"
         id="path8"
         inkscape:connector-curvature="0"
         style="fill:#ffffff" /><path
         d="m 17.1,39.2 c 0.5,0 0.8,-0.2 1,-0.7 0.2,-0.4 0.3,-1.1 0.3,-2 0,-0.9 -0.1,-1.6 -0.3,-2 -0.2,-0.4 -0.6,-0.7 -1,-0.7 -0.5,0 -0.8,0.2 -1,0.7 -0.2,0.4 -0.3,1.1 -0.3,2 0,0.9 0.1,1.6 0.4,2 0.1,0.5 0.5,0.7 0.9,0.7 z"
         id="path10"
         inkscape:connector-curvature="0"
         style="fill:#ffffff" /><circle
         cx="53.299999"
         cy="14.5"
         r="1"
         id="circle12"
         style="fill:#ffffff" /><circle
         cx="41.900002"
         cy="14.5"
         r="1"
         id="circle14"
         style="fill:#ffffff" /><path
         d="M 60.7,9.7 H 3.3 v 9.5 H 60.7 Z M 5.5,14.5 C 5.5,14.2 5.7,14 6,14 h 28 c 0.3,0 0.5,0.2 0.5,0.5 0,0.3 -0.2,0.5 -0.5,0.5 H 6 C 5.7,15 5.5,14.8 5.5,14.5 Z m 34.4,0 c 0,-1.1 0.9,-2 2,-2 1.1,0 2,0.9 2,2 0,1.1 -0.9,2 -2,2 -1.1,0 -2,-0.9 -2,-2 z m 5.7,0 c 0,-1.1 0.9,-2 2,-2 1.1,0 2,0.9 2,2 0,1.1 -0.9,2 -2,2 -1.1,0 -2,-0.9 -2,-2 z m 5.7,0 c 0,-1.1 0.9,-2 2,-2 1.1,0 2,0.9 2,2 0,1.1 -0.9,2 -2,2 -1.1,0 -2,-0.9 -2,-2 z"
         id="path16"
         inkscape:connector-curvature="0"
         style="fill:#ffffff" /><path
         d="m 35,39.2 c 0.5,0 0.8,-0.2 1.1,-0.7 0.2,-0.4 0.3,-1.1 0.3,-2 0,-0.9 -0.1,-1.6 -0.3,-2 -0.2,-0.4 -0.6,-0.7 -1.1,-0.7 -0.5,0 -0.8,0.2 -1,0.7 -0.2,0.4 -0.3,1.1 -0.3,2 0,0.9 0.1,1.6 0.4,2 0.1,0.5 0.4,0.7 0.9,0.7 z"
         id="path18"
         inkscape:connector-curvature="0"
         style="fill:#ffffff" /><circle
         cx="47.599998"
         cy="14.5"
         r="1"
         id="circle20"
         style="fill:#ffffff" /><path
         d="m 47,49.7 c 0.5,0 0.8,-0.2 1.1,-0.7 0.2,-0.5 0.4,-1.1 0.4,-2.1 0,-0.9 -0.1,-1.6 -0.4,-2.1 -0.2,-0.5 -0.6,-0.7 -1.1,-0.7 -0.5,0 -0.8,0.2 -1.1,0.7 -0.2,0.5 -0.4,1.1 -0.4,2.1 0,0.9 0.1,1.6 0.4,2.1 0.3,0.5 0.6,0.7 1.1,0.7 z"
         id="path22"
         inkscape:connector-curvature="0"
         style="fill:#ffffff" /><path
         d="m 46.8,24.3 c -0.5,0 -0.8,0.2 -1,0.7 -0.2,0.4 -0.3,1.1 -0.3,2 0,0.9 0.1,1.5 0.3,2 0.2,0.4 0.6,0.7 1,0.7 0.5,0 0.8,-0.2 1,-0.7 0.2,-0.4 0.3,-1.1 0.3,-2 0,-0.9 -0.1,-1.5 -0.3,-2 -0.2,-0.5 -0.5,-0.7 -1,-0.7 z"
         id="path24"
         inkscape:connector-curvature="0"
         style="fill:#ffffff" /><path
         d="m 46.9,33.9 c -0.5,0 -0.8,0.2 -1,0.7 -0.2,0.4 -0.3,1.1 -0.3,2 0,0.9 0.1,1.6 0.4,2 0.2,0.4 0.6,0.7 1,0.7 0.5,0 0.8,-0.2 1.1,-0.7 0.2,-0.4 0.3,-1.1 0.3,-2 0,-0.9 -0.1,-1.6 -0.3,-2 -0.4,-0.5 -0.7,-0.7 -1.2,-0.7 z"
         id="path26"
         inkscape:connector-curvature="0"
         style="fill:#ffffff" /><path
         d="M 60.7,20.2 H 3.3 V 54.4 H 60.7 Z M 20.2,46.9 c 0,-1.1 0.2,-2 0.6,-2.6 0.4,-0.6 1,-0.9 1.7,-0.9 0.8,0 1.3,0.3 1.7,0.9 0.4,0.6 0.6,1.5 0.6,2.6 0,1.1 -0.2,2 -0.6,2.6 -0.4,0.6 -1,0.9 -1.7,0.9 -0.7,0 -1.3,-0.3 -1.7,-0.9 -0.4,-0.6 -0.6,-1.4 -0.6,-2.6 z m 3,-13.8 h 0.7 v 6.6 H 23 V 35 h -1.6 v -0.7 0 c 0.5,0 0.8,-0.1 1.1,-0.3 0.3,-0.1 0.5,-0.4 0.7,-0.9 z m 0.7,-3 H 23 v -4.7 h -1.5 v -0.7 c 0.4,0 0.8,-0.1 1.1,-0.3 0.3,-0.2 0.5,-0.5 0.6,-1 h 0.7 z m -7.4,13.3 h 0.7 v 6.8 h -0.9 v -4.8 h -1.6 v -0.7 c 0.5,0 0.9,-0.1 1.1,-0.3 0.3,-0.2 0.5,-0.5 0.7,-1 z m 2.4,-14 c -0.4,0.6 -0.9,0.9 -1.7,0.9 -0.7,0 -1.3,-0.3 -1.7,-0.9 -0.4,-0.6 -0.6,-1.4 -0.6,-2.5 0,-1.1 0.2,-1.9 0.6,-2.5 0.4,-0.6 0.9,-0.9 1.7,-0.9 0.7,0 1.3,0.3 1.7,0.9 0.4,0.6 0.6,1.4 0.6,2.5 0,1.1 -0.2,2 -0.6,2.5 z m -1.8,3.7 c 0.7,0 1.3,0.3 1.7,0.9 0.4,0.6 0.6,1.4 0.6,2.5 0,1.1 -0.2,1.9 -0.6,2.5 -0.4,0.6 -0.9,0.9 -1.7,0.9 -0.7,0 -1.3,-0.3 -1.7,-0.9 -0.4,-0.6 -0.6,-1.4 -0.6,-2.5 0,-1.1 0.2,-1.9 0.6,-2.5 0.4,-0.6 1,-0.9 1.7,-0.9 z m 10.3,2 v -0.7 0 c 0.4,0 0.8,-0.1 1.1,-0.3 0.3,-0.2 0.5,-0.5 0.6,-1 h 0.7 v 6.6 H 28.9 V 35 H 27.4 Z M 29,30.3 c -0.7,0 -1.3,-0.3 -1.7,-0.9 -0.4,-0.6 -0.6,-1.4 -0.6,-2.5 0,-1.1 0.2,-1.9 0.6,-2.5 0.4,-0.6 0.9,-0.9 1.7,-0.9 0.7,0 1.3,0.3 1.7,0.9 0.4,0.6 0.6,1.4 0.6,2.5 0,1.1 -0.2,1.9 -0.6,2.5 -0.4,0.6 -0.9,0.9 -1.7,0.9 z m -0.4,13.1 c 0.8,0 1.3,0.3 1.7,0.9 0.4,0.6 0.6,1.5 0.6,2.6 0,1.1 -0.2,2 -0.6,2.6 -0.4,0.6 -1,0.9 -1.7,0.9 -0.7,0 -1.3,-0.3 -1.7,-0.9 -0.4,-0.6 -0.6,-1.5 -0.6,-2.6 0,-1.1 0.2,-2 0.6,-2.6 0.4,-0.6 1,-0.9 1.7,-0.9 z M 35,33.1 c 0.7,0 1.3,0.3 1.7,0.9 0.4,0.6 0.6,1.4 0.6,2.5 0,1.1 -0.2,1.9 -0.6,2.5 -0.4,0.7 -1,1 -1.7,1 -0.7,0 -1.3,-0.3 -1.7,-0.9 -0.4,-0.6 -0.6,-1.4 -0.6,-2.5 0,-1.1 0.2,-1.9 0.6,-2.5 0.4,-0.7 0.9,-1 1.7,-1 z m -2,12.3 v -0.7 c 0.5,0 0.8,-0.1 1.1,-0.3 0.3,-0.2 0.5,-0.5 0.7,-1 h 0.7 v 6.8 h -0.9 v -4.8 z m 2.7,-15.3 h -0.9 v -4.7 h -1.5 v -0.7 c 0.4,0 0.8,-0.1 1.1,-0.3 0.3,-0.2 0.5,-0.5 0.6,-1 h 0.7 z m 3.6,5 v -0.7 0 c 0.5,0 0.8,-0.1 1.1,-0.3 0.3,-0.2 0.5,-0.5 0.6,-1 h 0.7 v 6.6 H 40.8 V 35 h -1.5 z m 2.3,-5 h -0.9 v -4.7 h -1.5 v -0.7 c 0.4,0 0.8,-0.1 1.1,-0.3 0.3,-0.2 0.5,-0.5 0.6,-1 h 0.7 z M 41,43.4 h 0.7 v 6.8 h -0.9 v -4.8 h -1.6 v -0.7 c 0.5,0 0.8,-0.1 1.1,-0.3 0.3,-0.2 0.5,-0.5 0.7,-1 z m 4.3,1 c 0.4,-0.6 1,-0.9 1.7,-0.9 0.8,0 1.3,0.3 1.7,0.9 0.4,0.6 0.6,1.5 0.6,2.6 0,1.1 -0.2,2 -0.6,2.6 -0.4,0.6 -1,0.9 -1.7,0.9 -0.7,0 -1.3,-0.3 -1.7,-0.9 -0.4,-0.6 -0.6,-1.5 -0.6,-2.6 0,-1.2 0.2,-2 0.6,-2.6 z m 3.3,-5.3 c -0.4,0.6 -0.9,0.9 -1.7,0.9 -0.7,0 -1.3,-0.3 -1.7,-0.9 -0.4,-0.6 -0.6,-1.4 -0.6,-2.5 0,-1.1 0.2,-1.9 0.6,-2.5 0.4,-0.6 0.9,-0.9 1.7,-0.9 0.7,0 1.3,0.3 1.7,0.9 0.4,0.6 0.6,1.4 0.6,2.5 0,1 -0.2,1.9 -0.6,2.5 z m -0.1,-9.7 c -0.4,0.6 -0.9,0.9 -1.7,0.9 -0.7,0 -1.3,-0.3 -1.7,-0.9 -0.4,-0.6 -0.6,-1.4 -0.6,-2.5 0,-1.1 0.2,-1.9 0.6,-2.5 0.4,-0.6 0.9,-0.9 1.7,-0.9 0.7,0 1.3,0.3 1.7,0.9 0.4,0.6 0.6,1.4 0.6,2.5 0,1.1 -0.2,2 -0.6,2.5 z"
         id="path28"
         inkscape:connector-curvature="0"
         style="fill:#ffffff" /></g></g></svg>