<?xml version="1.0" encoding="UTF-8" standalone="no"?>
<svg
   xmlns:dc="http://purl.org/dc/elements/1.1/"
   xmlns:cc="http://creativecommons.org/ns#"
   xmlns:rdf="http://www.w3.org/1999/02/22-rdf-syntax-ns#"
   xmlns:svg="http://www.w3.org/2000/svg"
   xmlns="http://www.w3.org/2000/svg"
   xmlns:sodipodi="http://sodipodi.sourceforge.net/DTD/sodipodi-0.dtd"
   xmlns:inkscape="http://www.inkscape.org/namespaces/inkscape"
   version="1.1"
   x="0px"
   y="0px"
   viewBox="0 0 90 90"
   xml:space="preserve"
   id="svg14"
   sodipodi:docname="parser_icon.svg"
   width="90"
   height="90"
   inkscape:version="0.92.5 (2060ec1f9f, 2020-04-08)"><metadata
     id="metadata20"><rdf:RDF><cc:Work
         rdf:about=""><dc:format>image/svg+xml</dc:format><dc:type
           rdf:resource="http://purl.org/dc/dcmitype/StillImage" /><dc:title /></cc:Work></rdf:RDF></metadata><defs
     id="defs18" /><sodipodi:namedview
     pagecolor="#ffffff"
     bordercolor="#666666"
     borderopacity="1"
     objecttolerance="10"
     gridtolerance="10"
     guidetolerance="10"
     inkscape:pageopacity="0"
     inkscape:pageshadow="2"
     inkscape:window-width="769"
     inkscape:window-height="480"
     id="namedview16"
     showgrid="false"
     fit-margin-top="0"
     fit-margin-left="0"
     fit-margin-right="0"
     fit-margin-bottom="0"
     inkscape:zoom="1.888"
     inkscape:cx="-48.220339"
     inkscape:cy="32.5"
     inkscape:window-x="0"
     inkscape:window-y="27"
     inkscape:window-maximized="0"
     inkscape:current-layer="svg14" /><path
     d="M 87.5,0 H 2.5 C 1.1,0 0,1.1 0,2.5 v 20 C 0,23.9 1.1,25 2.5,25 H 35 V 35 H 25 c -2.2,0 -3.3,2.7 -1.8,4.3 l 20,20 c 1,1 2.6,1 3.5,0 l 20,-20 C 68.2,37.8 67.1,35 64.9,35 H 55 V 25 H 87.5 C 88.9,25 90,23.9 90,22.5 V 2.5 C 90,1.1 88.9,0 87.5,0 Z M 85,20 H 52.5 C 51.1,20 50,21.1 50,22.5 v 15 c 0,1.4 1.1,2.5 2.5,2.5 H 59 L 45,54 31,40 h 6.5 c 1.4,0 2.5,-1.1 2.5,-2.5 v -15 C 40,21.1 38.9,20 37.5,20 H 5 V 5 h 80 z"
     id="path2"
     inkscape:connector-curvature="0"
     style="fill:#ffffff" /><path
     d="m 35,90 h 20 c 1.4,0 2.5,-1.1 2.5,-2.5 v -20 C 57.5,66.1 56.4,65 55,65 H 35 c -1.4,0 -2.5,1.1 -2.5,2.5 v 20 c 0,1.4 1.1,2.5 2.5,2.5 z m 2.5,-20 h 15 v 15 h -15 z"
     id="path4"
     inkscape:connector-curvature="0"
     style="fill:#ffffff" /><path
     d="m 2.5,90 h 20 c 1.4,0 2.5,-1.1 2.5,-2.5 v -20 C 25,66.1 23.9,65 22.5,65 H 2.5 C 1.1,65 0,66.1 0,67.5 v 20 C 0,88.9 1.1,90 2.5,90 Z M 5,70 H 20 V 85 H 5 Z"
     id="path6"
     inkscape:connector-curvature="0"
     style="fill:#ffffff" /><path
     d="m 87.5,65 h -20 C 66.1,65 65,66.1 65,67.5 v 20 c 0,1.4 1.1,2.5 2.5,2.5 h 20 c 1.4,0 2.5,-1.1 2.5,-2.5 v -20 C 90,66.1 88.9,65 87.5,65 Z M 85,85 H 70 V 70 h 15 z"
     id="path8"
     inkscape:connector-curvature="0"
     style="fill:#ffffff" /></svg>