<?xml version="1.0" encoding="UTF-8" standalone="no"?>
<svg
   xmlns:dc="http://purl.org/dc/elements/1.1/"
   xmlns:cc="http://creativecommons.org/ns#"
   xmlns:rdf="http://www.w3.org/1999/02/22-rdf-syntax-ns#"
   xmlns:svg="http://www.w3.org/2000/svg"
   xmlns="http://www.w3.org/2000/svg"
   xmlns:sodipodi="http://sodipodi.sourceforge.net/DTD/sodipodi-0.dtd"
   xmlns:inkscape="http://www.inkscape.org/namespaces/inkscape"
   version="1.1"
   x="0px"
   y="0px"
   viewBox="0 0 68.176003 68.257004"
   enable-background="new 0 0 100 100"
   xml:space="preserve"
   id="svg10"
   sodipodi:docname="noun_tokens_957012.svg"
   width="68.176003"
   height="68.257004"
   inkscape:version="0.92.5 (2060ec1f9f, 2020-04-08)"><metadata
     id="metadata16"><rdf:RDF><cc:Work
         rdf:about=""><dc:format>image/svg+xml</dc:format><dc:type
           rdf:resource="http://purl.org/dc/dcmitype/StillImage" /><dc:title></dc:title></cc:Work></rdf:RDF></metadata><defs
     id="defs14" /><sodipodi:namedview
     pagecolor="#ffffff"
     bordercolor="#666666"
     borderopacity="1"
     objecttolerance="10"
     gridtolerance="10"
     guidetolerance="10"
     inkscape:pageopacity="0"
     inkscape:pageshadow="2"
     inkscape:window-width="769"
     inkscape:window-height="480"
     id="namedview12"
     showgrid="false"
     fit-margin-top="0"
     fit-margin-left="0"
     fit-margin-right="0"
     fit-margin-bottom="0"
     inkscape:zoom="1.888"
     inkscape:cx="35.815"
     inkscape:cy="20.328"
     inkscape:window-x="0"
     inkscape:window-y="27"
     inkscape:window-maximized="0"
     inkscape:current-layer="svg10" /><path
     d="M 46.608,21.655 C 45.745,9.552 35.66,0 23.338,0 10.449,0 0,10.449 0,23.338 0,30.629 3.345,37.137 8.582,41.417 8.41,42.56 8.32,43.729 8.32,44.919 c 0,12.889 10.449,23.338 23.338,23.338 1.119,0 2.218,-0.084 3.295,-0.236 1.077,0.152 2.176,0.236 3.295,0.236 1.119,0 2.218,-0.084 3.295,-0.236 1.077,0.152 2.176,0.236 3.295,0.236 12.889,0 23.338,-10.449 23.338,-23.338 0,-12.293 -9.507,-22.359 -21.568,-23.264 z M 3.424,23.338 c 0,-10.998 8.916,-19.914 19.914,-19.914 10.998,0 19.914,8.916 19.914,19.914 0,10.998 -8.916,19.914 -19.914,19.914 -10.998,0 -19.914,-8.916 -19.914,-19.914 z m 28.234,41.495 c -10.998,0 -19.914,-8.916 -19.914,-19.914 0,-0.436 0.038,-0.863 0.065,-1.293 0.992,0.565 2.034,1.05 3.11,1.468 0.095,9.168 7.548,16.572 16.739,16.572 9.249,0 16.747,-7.498 16.747,-16.747 0,-4.261 -1.605,-8.139 -4.226,-11.095 0.517,-1.025 0.966,-2.091 1.329,-3.196 3.734,3.62 6.064,8.68 6.064,14.291 0,10.998 -8.916,19.914 -19.914,19.914 z M 46.18,63.181 c 5.37,-4.276 8.816,-10.865 8.816,-18.262 0,-7.289 -3.349,-13.787 -8.583,-18.067 0.004,-0.026 0.006,-0.053 0.01,-0.079 6.918,3.121 11.74,10.064 11.74,18.146 -10e-4,8.177 -4.934,15.196 -11.983,18.262 z m 6.59,0 c 5.37,-4.276 8.816,-10.865 8.816,-18.262 0,-7.398 -3.446,-13.987 -8.816,-18.262 7.049,3.066 11.982,10.085 11.982,18.262 0,8.177 -4.933,15.196 -11.982,18.262 z"
     id="path2"
     inkscape:connector-curvature="0"
     style="fill:#ffffff" /><circle
     cx="23.337999"
     cy="23.338001"
     r="16.747"
     id="circle4"
     style="fill:#ffffff" /></svg>