<?xml version="1.0" encoding="UTF-8" standalone="no"?>
<svg
   xmlns:dc="http://purl.org/dc/elements/1.1/"
   xmlns:cc="http://creativecommons.org/ns#"
   xmlns:rdf="http://www.w3.org/1999/02/22-rdf-syntax-ns#"
   xmlns:svg="http://www.w3.org/2000/svg"
   xmlns="http://www.w3.org/2000/svg"
   xmlns:sodipodi="http://sodipodi.sourceforge.net/DTD/sodipodi-0.dtd"
   xmlns:inkscape="http://www.inkscape.org/namespaces/inkscape"
   version="1.1"
   x="0px"
   y="0px"
   viewBox="0 0 62 62"
   xml:space="preserve"
   id="svg24"
   sodipodi:docname="toolkit.svg"
   width="62"
   height="62"
   inkscape:version="0.92.5 (2060ec1f9f, 2020-04-08)"><metadata
     id="metadata30"><rdf:RDF><cc:Work
         rdf:about=""><dc:format>image/svg+xml</dc:format><dc:type
           rdf:resource="http://purl.org/dc/dcmitype/StillImage" /><dc:title></dc:title></cc:Work></rdf:RDF></metadata><defs
     id="defs28" /><sodipodi:namedview
     pagecolor="#ffffff"
     bordercolor="#666666"
     borderopacity="1"
     objecttolerance="10"
     gridtolerance="10"
     guidetolerance="10"
     inkscape:pageopacity="0"
     inkscape:pageshadow="2"
     inkscape:window-width="769"
     inkscape:window-height="480"
     id="namedview26"
     showgrid="false"
     showguides="true"
     inkscape:guide-bbox="true"
     fit-margin-top="0"
     fit-margin-left="0"
     fit-margin-right="0"
     fit-margin-bottom="0"
     inkscape:zoom="2.95"
     inkscape:cx="31"
     inkscape:cy="23"
     inkscape:window-x="0"
     inkscape:window-y="27"
     inkscape:window-maximized="0"
     inkscape:current-layer="svg24"><sodipodi:guide
       position="-11.847458,-14.627119"
       orientation="1,0"
       id="guide840"
       inkscape:locked="false" /></sodipodi:namedview><g
     id="g18"
     transform="translate(-1,-1)"
     style="fill:#ffffff"><path
       d="m 48,39 c 1.654,0 3,-1.346 3,-3 0,-1.654 -1.346,-3 -3,-3 -1.654,0 -3,1.346 -3,3 0,1.654 1.346,3 3,3 z m 0,-4 c 0.551,0 1,0.448 1,1 0,0.552 -0.449,1 -1,1 -0.551,0 -1,-0.448 -1,-1 0,-0.552 0.449,-1 1,-1 z"
       id="path2"
       inkscape:connector-curvature="0"
       style="fill:#ffffff" /><path
       d="M 59,13.101 V 1 H 5 V 13.101 C 2.721,13.566 1,15.586 1,18 v 34 c 0,2.757 2.243,5 5,5 h 12 v 4 h -4 v 2 h 36 v -2 h -4 v -4 h 12 c 2.757,0 5,-2.243 5,-5 V 18 c 0,-2.414 -1.721,-4.434 -4,-4.899 z M 7,11 h 34 c 0,2.288 1.136,4.437 3,5.738 v 13.523 c -1.864,1.302 -3,3.45 -3,5.738 0,3.859 3.14,7 7,7 3.86,0 7,-3.141 7,-7 0,-2.288 -1.136,-4.437 -3,-5.738 V 16.738 c 1.864,-1.302 3,-3.45 3,-5.738 h 2 V 45 H 7 Z m 44,1 V 7.007 c 1.234,0.927 2,2.397 2,3.993 0,1.774 -0.958,3.432 -2.501,4.325 L 50,15.614 V 27 H 46 V 15.614 L 45.501,15.325 C 43.958,14.432 43,12.774 43,11 43,9.404 43.766,7.934 45,7.007 V 12 Z M 45.501,31.675 46,31.386 V 29 h 4 v 2.386 l 0.499,0.289 C 52.042,32.568 53,34.226 53,36 c 0,2.757 -2.243,5 -5,5 -2.757,0 -5,-2.243 -5,-5 0,-1.774 0.958,-3.432 2.501,-4.325 z M 57,3 V 9 H 54.696 C 54.065,6.9 52.472,5.163 50.333,4.406 L 49,3.934 V 10 H 47 V 3.934 L 45.667,4.407 C 43.527,5.163 41.935,6.9 41.304,9 H 7 V 3 Z M 5,15.184 V 47 H 59 V 15.184 c 1.161,0.414 2,1.514 2,2.816 V 49 H 3 V 18 C 3,16.698 3.839,15.598 5,15.184 Z M 44,61 H 20 V 57 H 44 Z M 58,55 H 6 C 4.346,55 3,53.654 3,52 v -1 h 58 v 1 c 0,1.654 -1.346,3 -3,3 z"
       id="path4"
       inkscape:connector-curvature="0"
       style="fill:#ffffff" /><rect
       x="9"
       y="5"
       width="2"
       height="2"
       id="rect6"
       style="fill:#ffffff" /><rect
       x="13"
       y="5"
       width="2"
       height="2"
       id="rect8"
       style="fill:#ffffff" /><rect
       x="17"
       y="5"
       width="2"
       height="2"
       id="rect10"
       style="fill:#ffffff" /><path
       d="m 35.711,22.393 1.779,-1.027 -1,-1.732 -1.773,1.023 C 33.809,19.336 32.664,18.19 31.342,17.282 l 1.024,-1.773 -1.732,-1 -1.027,1.779 C 28.192,15.608 26.641,15.175 25.001,15.05 V 13 h -2 v 2.051 c -1.64,0.126 -3.192,0.558 -4.606,1.238 l -1.027,-1.779 -1.732,1 1.024,1.773 c -1.321,0.908 -2.467,2.053 -3.375,3.375 l -1.773,-1.023 -1,1.732 1.779,1.027 c -0.68,1.415 -1.113,2.966 -1.238,4.607 H 9 v 2 h 2.051 c 0.126,1.64 0.558,3.192 1.238,4.607 l -1.779,1.027 1,1.732 1.773,-1.023 c 0.908,1.321 2.053,2.467 3.375,3.375 l -1.024,1.773 1.732,1 1.027,-1.779 c 1.415,0.68 2.966,1.113 4.606,1.238 V 43 h 2 v -2.051 c 1.64,-0.126 3.192,-0.558 4.606,-1.238 l 1.027,1.779 1.732,-1 -1.024,-1.773 c 1.321,-0.908 2.467,-2.053 3.375,-3.375 l 1.773,1.023 1,-1.732 -1.779,-1.027 c 0.68,-1.415 1.113,-2.966 1.238,-4.607 H 39 v -2 H 36.949 C 36.824,25.36 36.391,23.808 35.711,22.393 Z M 24,39 c -6.065,0 -11,-4.935 -11,-11 0,-6.065 4.935,-11 11,-11 6.065,0 11,4.935 11,11 0,6.065 -4.935,11 -11,11 z"
       id="path12"
       inkscape:connector-curvature="0"
       style="fill:#ffffff" /><path
       d="m 24,21 c -3.86,0 -7,3.141 -7,7 0,3.859 3.14,7 7,7 1.731,0 3.393,-0.637 4.678,-1.792 L 27.341,31.72 C 26.423,32.546 25.236,33 24,33 c -2.757,0 -5,-2.243 -5,-5 0,-2.757 2.243,-5 5,-5 2.757,0 5,2.243 5,5 0,0.879 -0.231,1.743 -0.668,2.499 l 1.731,1.002 C 30.676,30.441 31,29.23 31,28 31,24.141 27.86,21 24,21 Z"
       id="path14"
       inkscape:connector-curvature="0"
       style="fill:#ffffff" /><polygon
       points="25,27 25,25 23,25 23,27 21,27 21,29 23,29 23,31 25,31 25,29 27,29 27,27 "
       id="polygon16"
       style="fill:#ffffff" /></g></svg>