<?xml version="1.0" encoding="UTF-8" standalone="no"?>
<svg
   xmlns:dc="http://purl.org/dc/elements/1.1/"
   xmlns:cc="http://creativecommons.org/ns#"
   xmlns:rdf="http://www.w3.org/1999/02/22-rdf-syntax-ns#"
   xmlns:svg="http://www.w3.org/2000/svg"
   xmlns="http://www.w3.org/2000/svg"
   xmlns:sodipodi="http://sodipodi.sourceforge.net/DTD/sodipodi-0.dtd"
   xmlns:inkscape="http://www.inkscape.org/namespaces/inkscape"
   viewBox="0 0 26.458333 26.45833"
   version="1.1"
   x="0px"
   y="0px"
   id="svg10"
   sodipodi:docname="whatthis.svg"
   width="26.458332"
   height="26.45833"
   inkscape:version="0.92.5 (2060ec1f9f, 2020-04-08)">
  <metadata
     id="metadata16">
    <rdf:RDF>
      <cc:Work
         rdf:about="">
        <dc:format>image/svg+xml</dc:format>
        <dc:type
           rdf:resource="http://purl.org/dc/dcmitype/StillImage" />
        <dc:title></dc:title>
      </cc:Work>
    </rdf:RDF>
  </metadata>
  <defs
     id="defs14" />
  <sodipodi:namedview
     pagecolor="#ffffff"
     bordercolor="#666666"
     borderopacity="1"
     objecttolerance="10"
     gridtolerance="10"
     guidetolerance="10"
     inkscape:pageopacity="0"
     inkscape:pageshadow="2"
     inkscape:window-width="1920"
     inkscape:window-height="1016"
     id="namedview12"
     showgrid="false"
     fit-margin-top="0"
     fit-margin-left="0"
     fit-margin-right="0"
     fit-margin-bottom="0"
     inkscape:zoom="7.1357478"
     inkscape:cx="13.229166"
     inkscape:cy="9.921871"
     inkscape:window-x="0"
     inkscape:window-y="27"
     inkscape:window-maximized="1"
     inkscape:current-layer="svg10" />
  <g
     transform="translate(0,-270.54164)"
     id="g4"
     style="fill:#ffffff">
    <path
       d="m 15.275236,278.4917 c 0.406092,0.15715 0.780942,0.37708 1.155795,0.62848 2.405303,0 4.810606,0 7.215909,0 v 3.33083 h 1.843024 l -2.873868,4.305 -2.873867,-4.305 h 1.843022 v -1.25692 h -3.37367 c 0.374853,0.75418 0.593517,1.60259 0.593517,2.51386 0,1.00554 -0.281126,1.97965 -0.749706,2.79666 v 2.76527 h 4.123376 v -1.82255 l 4.279565,2.85949 -4.279565,2.89095 v -1.82255 h -4.123376 v 1.31976 h 1.811787 l -2.873867,4.30499 -2.842632,-4.30499 h 1.811787 v -4.11643 c -1.155795,0.65989 -2.561492,0.87985 -3.873476,0.59703 v 6.00184 H 4.279568 v 1.82255 L 3e-6,294.10904 4.279568,291.24952 v 1.82255 h 5.747737 v -4.77634 c -0.406092,-0.28288 -0.780942,-0.62845 -1.09332,-1.03697 H 1.843029 v -3.33085 H 3e-6 l 2.87387,-4.30499 2.873867,4.30499 H 3.904715 v 1.25694 h 3.935951 c -0.124963,-0.47136 -0.187428,-0.97414 -0.187428,-1.4769 0,-0.87985 0.21866,-1.69685 0.562277,-2.451 H 5.591548 v -6.2218 H 4.279564 v 1.85395 L 0,273.99818 4.279564,271.13865 v 1.82255 h 3.373674 c 0,2.07395 0,4.14786 0,6.22181 h 2.28035 c 0.905894,-0.69131 2.061689,-1.06837 3.279959,-1.06837 v -5.71906 c 2.967581,0 5.966401,0 8.965218,0 v -1.85394 l 4.279563,2.89092 -4.279563,2.89092 v -1.85395 h -6.903532 z m -4.560703,3.48797 c 0,0.34566 0.312378,0.62848 0.655991,0.62848 0.312378,0 0.531042,-0.18859 0.655992,-0.56562 0.218661,-0.69131 0.499803,-1.13124 1.249509,-1.13124 0.593517,0 1.093319,0.37706 1.093319,0.97411 0,0.50279 -0.468566,0.84845 -0.81218,1.13124 -0.624753,0.56561 -1.062081,0.9741 -1.062081,1.85398 0,0.4085 0.218661,0.69132 0.624753,0.69132 0.655992,0 0.531042,-0.59705 0.780942,-1.03697 0.281126,-0.56563 0.749705,-0.78558 1.280747,-1.31981 0.343614,-0.37706 0.562278,-0.81697 0.562278,-1.31976 0,-1.82255 -2.1554,-2.35673 -3.592334,-1.79112 -0.812181,0.31432 -1.436936,0.9427 -1.436936,1.88539 z m 2.467778,5.56191 c 0.437328,0 0.749706,-0.31432 0.749706,-0.75415 0,-0.43991 -0.343614,-0.75417 -0.749706,-0.75417 -0.437328,0 -0.780942,0.31432 -0.780942,0.75417 0,0.47133 0.312378,0.75415 0.780942,0.75415 z"
       style="fill:#ffffff;fill-opacity:1;fill-rule:evenodd;stroke:none"
       id="path2"
       inkscape:connector-curvature="0" />
  </g>
</svg>
