<?xml version="1.0" encoding="UTF-8" standalone="no"?>
<!-- Created with Inkscape (http://www.inkscape.org/) -->

<svg
   version="1.1"
   id="svg2"
   xml:space="preserve"
   width="240.7029"
   height="82.51442"
   viewBox="0 0 240.7029 82.51442"
   sodipodi:docname="da53logo.svg"
   inkscape:version="1.1.2 (0a00cf5339, 2022-02-04)"
   xmlns:inkscape="http://www.inkscape.org/namespaces/inkscape"
   xmlns:sodipodi="http://sodipodi.sourceforge.net/DTD/sodipodi-0.dtd"
   xmlns="http://www.w3.org/2000/svg"
   xmlns:svg="http://www.w3.org/2000/svg"><defs
     id="defs6" /><sodipodi:namedview
     id="namedview4"
     pagecolor="#ffffff"
     bordercolor="#666666"
     borderopacity="1.0"
     inkscape:pageshadow="2"
     inkscape:pageopacity="0.0"
     inkscape:pagecheckerboard="0"
     showgrid="false"
     inkscape:zoom="5.4133125"
     inkscape:cx="120.35145"
     inkscape:cy="41.19474"
     inkscape:window-width="2560"
     inkscape:window-height="1403"
     inkscape:window-x="0"
     inkscape:window-y="0"
     inkscape:window-maximized="1"
     inkscape:current-layer="g8" /><g
     id="g8"
     inkscape:groupmode="layer"
     inkscape:label="da53logo"
     transform="matrix(1.3333333,0,0,1.3333333,0,2.0628605e-6)"><g
       id="g10"
       style="fill:#000000"><text
         transform="translate(56.537641,47.551961)"
         style="font-variant:normal;font-weight:normal;font-size:46.469px;font-family:'DejaVu Sans';-inkscape-font-specification:DejaVuSans;writing-mode:lr-tb;fill:#000000;fill-opacity:1;fill-rule:nonzero;stroke:none"
         id="text14"><tspan
           x="0 34.944721 66.729553 96.283867"
           y="0"
           sodipodi:role="line"
           id="tspan12">DA53</tspan></text><path
         d="m 29.777,14.633 c -7.066,0.851 -13.57,0.82 -18.429,0.086 l 1.683,12.34 c 3.207,-0.278 7.781,-0.7 11.024,-1.106 13.968,-1.734 24.972,-6.863 24.492,-10.976 -0.098,-0.836 -0.664,-1.582 -1.613,-2.227 4.285,0.824 7.007,2.262 7.238,4.168 0.496,4.113 -10.793,8.859 -25.211,10.594 -5.867,0.707 -11.344,0.804 -15.813,0.394 l 1.668,12.254 c 2.977,-0.265 6.563,-0.609 9.239,-0.941 13.968,-1.739 24.972,-6.864 24.492,-10.981 -0.098,-0.836 -0.664,-1.582 -1.613,-2.222 4.285,0.82 7.007,2.257 7.238,4.164 0.496,4.117 -10.793,8.859 -25.211,10.597 -5.09,0.61 -9.887,0.762 -13.988,0.528 l 1.453,10.644 h 5.097 c 0.856,-0.078 1.723,-0.168 2.606,-0.273 13.965,-1.738 24.898,-6.481 24.418,-10.598 -0.098,-0.836 -0.664,-1.582 -1.613,-2.223 4.285,0.821 7.007,2.258 7.238,4.165 0.379,3.152 -6.164,6.675 -15.727,8.929 H 54.191 V 6.258 c -2.796,3.476 -12.539,6.945 -24.414,8.375"
         style="fill:#000000;fill-opacity:1;fill-rule:nonzero;stroke:none"
         id="path16" /><path
         d="m 5.125,28.75 v 23.199 h 6.742 z"
         style="fill:#000000;fill-opacity:1;fill-rule:nonzero;stroke:none"
         id="path18" /><path
         d="M 22.641,1.219 C 9.609,2.395 0.672,5.379 0.766,8.461 0.77,8.559 0.781,8.652 0.805,8.746 L 0.75,8.742 16.438,61.137 9.441,11.984 c 4.11,0.43 9.371,0.438 15.09,-0.078 C 37.562,10.727 48.055,7.273 47.961,4.195 47.867,1.113 35.676,0.039 22.641,1.219"
         style="fill:#000000;fill-opacity:1;fill-rule:nonzero;stroke:none"
         id="path20" /></g></g></svg>
