<?xml version="1.0" encoding="UTF-8" standalone="no"?>
<svg
   xmlns:dc="http://purl.org/dc/elements/1.1/"
   xmlns:cc="http://creativecommons.org/ns#"
   xmlns:rdf="http://www.w3.org/1999/02/22-rdf-syntax-ns#"
   xmlns:svg="http://www.w3.org/2000/svg"
   xmlns="http://www.w3.org/2000/svg"
   xmlns:sodipodi="http://sodipodi.sourceforge.net/DTD/sodipodi-0.dtd"
   xmlns:inkscape="http://www.inkscape.org/namespaces/inkscape"
   viewBox="0 0 60 60"
   x="0px"
   y="0px"
   version="1.1"
   id="svg8"
   sodipodi:docname="noun_algorithm_2664037.svg"
   width="60"
   height="60"
   inkscape:version="0.92.5 (2060ec1f9f, 2020-04-08)">
  <metadata
     id="metadata14">
    <rdf:RDF>
      <cc:Work
         rdf:about="">
        <dc:format>image/svg+xml</dc:format>
        <dc:type
           rdf:resource="http://purl.org/dc/dcmitype/StillImage" />
        <dc:title></dc:title>
      </cc:Work>
    </rdf:RDF>
  </metadata>
  <defs
     id="defs12" />
  <sodipodi:namedview
     pagecolor="#ffffff"
     bordercolor="#666666"
     borderopacity="1"
     objecttolerance="10"
     gridtolerance="10"
     guidetolerance="10"
     inkscape:pageopacity="0"
     inkscape:pageshadow="2"
     inkscape:window-width="1920"
     inkscape:window-height="1016"
     id="namedview10"
     showgrid="false"
     fit-margin-top="0"
     fit-margin-left="0"
     fit-margin-right="0"
     fit-margin-bottom="0"
     inkscape:zoom="2.95"
     inkscape:cx="29.999722"
     inkscape:cy="22"
     inkscape:window-x="0"
     inkscape:window-y="27"
     inkscape:window-maximized="1"
     inkscape:current-layer="svg8" />
  <path
     d="m 58.999722,22 h -10 v -4 a 1,1 0 0 0 -1,-1 h -16.778 l -14.222,-6.637 V 6 h 4 a 3,3 0 0 0 0,-6 h -10 a 3,3 0 0 0 0,6 h 4 v 4.363 L 0.57672231,17.094 a 1,1 0 0 0 0,1.812 L 14.999722,25.637 V 30 H 4.9997223 a 1,1 0 0 0 -1,1 v 6 a 1,1 0 0 0 1,1 h 9.9999997 v 4.142 a 3.981,3.981 0 0 0 0,7.716 V 54 h -4 a 3,3 0 0 0 0,6 h 10 a 3,3 0 0 0 0,-6 h -4 v -4.142 a 4,4 0 0 0 2.858,-2.858 h 28.142 a 1,1 0 0 0 1,-1 V 30 h 10 a 1,1 0 0 0 1,-1 v -6 a 1,1 0 0 0 -1,-1 z m -48,-18 a 1,1 0 0 1 0,-2 h 10 a 1,1 0 0 1 0,2 z m -7.6349997,14 12.6349997,-5.9 12.635,5.9 -12.635,5.9 z m 2.635,18 V 32 H 25.999722 v 4 z M 20.999722,56 a 1,1 0 0 1 0,2 h -10 a 1,1 0 0 1 0,-2 z m -5,-8 a 2,2 0 1 1 2,-2 2,2 0 0 1 -2,2 z m 31,-3 h -27.142 a 4,4 0 0 0 -2.858,-2.858 V 38 h 10 a 1,1 0 0 0 1,-1 v -6 a 1,1 0 0 0 -1,-1 h -10 V 25.637 L 31.221722,19 h 15.778 v 3 h -10 a 1,1 0 0 0 -1,1 v 6 a 1,1 0 0 0 1,1 h 10 z m 11,-17 h -20 v -4 h 20 z"
     id="path2"
     inkscape:connector-curvature="0"
     style="fill:#ffffff" />
</svg>
