<?xml version="1.0" encoding="UTF-8" standalone="no"?>
<svg
   xmlns:dc="http://purl.org/dc/elements/1.1/"
   xmlns:cc="http://creativecommons.org/ns#"
   xmlns:rdf="http://www.w3.org/1999/02/22-rdf-syntax-ns#"
   xmlns:svg="http://www.w3.org/2000/svg"
   xmlns="http://www.w3.org/2000/svg"
   xmlns:sodipodi="http://sodipodi.sourceforge.net/DTD/sodipodi-0.dtd"
   xmlns:inkscape="http://www.inkscape.org/namespaces/inkscape"
   version="1.1"
   x="0px"
   y="0px"
   viewBox="0 0 90 90"
   enable-background="new 0 0 100 100"
   xml:space="preserve"
   id="svg30"
   sodipodi:docname="cli.svg"
   width="90"
   height="90"
   inkscape:version="0.92.5 (2060ec1f9f, 2020-04-08)"><metadata
     id="metadata36"><rdf:RDF><cc:Work
         rdf:about=""><dc:format>image/svg+xml</dc:format><dc:type
           rdf:resource="http://purl.org/dc/dcmitype/StillImage" /><dc:title></dc:title></cc:Work></rdf:RDF></metadata><defs
     id="defs34" /><sodipodi:namedview
     pagecolor="#ffffff"
     bordercolor="#666666"
     borderopacity="1"
     objecttolerance="10"
     gridtolerance="10"
     guidetolerance="10"
     inkscape:pageopacity="0"
     inkscape:pageshadow="2"
     inkscape:window-width="1920"
     inkscape:window-height="1016"
     id="namedview32"
     showgrid="false"
     fit-margin-top="0"
     fit-margin-left="0"
     fit-margin-right="0"
     fit-margin-bottom="0"
     inkscape:zoom="1.888"
     inkscape:cx="45"
     inkscape:cy="23.5"
     inkscape:window-x="0"
     inkscape:window-y="27"
     inkscape:window-maximized="1"
     inkscape:current-layer="g6" /><g
     enable-background="new    "
     id="g8"
     transform="translate(-5,-6)"><g
       id="g6"><g
         id="g4"
         style="fill:#ffffff"><path
           d="M 86.51,15 H 13.491 C 8.801,15 5,18.784 5,23.452 V 77.548 C 5,82.216 8.801,86 13.491,86 H 86.51 C 91.199,86 95,82.216 95,77.548 V 23.452 C 95,18.784 91.199,15 86.51,15 Z m -53.512,7.011 c 1.66,0 3.005,1.339 3.005,2.991 0,1.652 -1.345,2.991 -3.005,2.991 -1.66,0 -3.005,-1.339 -3.005,-2.991 0,-1.652 1.345,-2.991 3.005,-2.991 z m -8.992,0 c 1.66,0 3.005,1.339 3.005,2.991 0,1.652 -1.345,2.991 -3.005,2.991 -1.659,0 -3.005,-1.339 -3.005,-2.991 0,-1.652 1.346,-2.991 3.005,-2.991 z m -9.005,0 c 1.652,0 2.991,1.339 2.991,2.991 0,1.652 -1.339,2.991 -2.991,2.991 -1.652,0 -2.991,-1.339 -2.991,-2.991 0,-1.652 1.339,-2.991 2.991,-2.991 z M 92,76 c 0,4 -3,7 -7,7 H 15 C 11,83 8,80 8,76 V 33 c 0,0.007 83.895,0 84,0 z"
           id="path2"
           inkscape:connector-curvature="0"
           style="clip-rule:evenodd;fill-rule:evenodd;fill:#ffffff" /></g></g></g><g
     enable-background="new    "
     id="g16"
     transform="translate(-5,-6)"
     style="fill:#ffffff"><g
       id="g14"
       style="fill:#ffffff"><g
         id="g12"
         style="fill:#ffffff"><polygon
           points="44,59 30,44 22,44 36,59 22,74 30,74 "
           id="polygon10"
           style="fill:#ffffff" /></g></g></g><g
     enable-background="new    "
     id="g24"
     transform="translate(-5,-6)"
     style="fill:#ffffff"><g
       id="g22"
       style="fill:#ffffff"><g
         id="g20"
         style="fill:#ffffff"><rect
           x="45"
           y="69"
           width="26"
           height="5"
           id="rect18"
           style="fill:#ffffff" /></g></g></g></svg>