<?xml version="1.0" encoding="UTF-8" standalone="no"?>
<svg
   xmlns:dc="http://purl.org/dc/elements/1.1/"
   xmlns:cc="http://creativecommons.org/ns#"
   xmlns:rdf="http://www.w3.org/1999/02/22-rdf-syntax-ns#"
   xmlns:svg="http://www.w3.org/2000/svg"
   xmlns="http://www.w3.org/2000/svg"
   xmlns:sodipodi="http://sodipodi.sourceforge.net/DTD/sodipodi-0.dtd"
   xmlns:inkscape="http://www.inkscape.org/namespaces/inkscape"
   version="1.1"
   x="0px"
   y="0px"
   viewBox="0 0 64.000001 64"
   enable-background="new 0 0 70 70"
   xml:space="preserve"
   id="svg34"
   sodipodi:docname="final-exam.svg"
   width="64"
   height="64"
   inkscape:version="0.92.5 (2060ec1f9f, 2020-04-08)"><metadata
     id="metadata40"><rdf:RDF><cc:Work
         rdf:about=""><dc:format>image/svg+xml</dc:format><dc:type
           rdf:resource="http://purl.org/dc/dcmitype/StillImage" /><dc:title></dc:title></cc:Work></rdf:RDF></metadata><defs
     id="defs38" /><sodipodi:namedview
     pagecolor="#ffffff"
     bordercolor="#666666"
     borderopacity="1"
     objecttolerance="10"
     gridtolerance="10"
     guidetolerance="10"
     inkscape:pageopacity="0"
     inkscape:pageshadow="2"
     inkscape:window-width="1920"
     inkscape:window-height="1016"
     id="namedview36"
     showgrid="false"
     fit-margin-top="0"
     fit-margin-left="0"
     fit-margin-right="0"
     fit-margin-bottom="0"
     inkscape:zoom="2.6971429"
     inkscape:cx="35.461441"
     inkscape:cy="23.25"
     inkscape:window-x="0"
     inkscape:window-y="27"
     inkscape:window-maximized="1"
     inkscape:current-layer="svg34" /><g
     id="g28"
     transform="translate(-2.3584746,-3)"
     style="fill:#ffffff"><path
       d="m 11.2,36.2 c -0.1,0.1 -3.5,6.7 -3.2,6.3 -0.6,1.2 0.1,2.7 1.5,2.9 0.1,0 4.1,0.6 3.9,0.6 0.6,0.1 1.2,-0.1 1.6,-0.5 h 0.1 v -0.1 c 0.5,-0.5 0.8,-1.6 0.1,-2.5 -0.1,-0.2 -0.3,-0.4 -0.6,-0.5 0,0 0,0 0,0 -0.1,-0.1 -0.3,-0.2 -0.5,-0.2 -0.1,-0.1 -0.2,0 -1.4,-0.2 0.1,-0.1 0.8,-1.6 0.8,-1.5 v 0.6 c 0.3,0.1 0.6,0.1 0.9,0.2 l -0.1,-0.5 c -0.2,-1.3 1.8,-1.6 2,-0.3 l 0.6,4.2 c 0.1,0 7.4,0 7.3,0 h 0.5 l 0.1,-2.3 c 0,-0.1 0,-0.2 0,-0.3 l 0.1,-2.6 c 0.2,0.4 0.3,0.8 0.4,1.1 1.6,5.2 -1,8.9 2.4,8.9 2.2,0 2.2,-2.5 2.1,-4.9 0,-3 -0.7,-5.7 -2.1,-8.3 h 13.8 c -0.5,0.6 -0.9,1.3 -1.3,2.1 v 0 c -1.6,3.5 -1.2,7.3 0.6,10.8 1,2.1 4.2,1 3.7,-1.3 -0.1,-0.7 -3.1,-5.2 0.1,-9.2 l 0.4,5.8 c 0.4,0 3.9,0 3.8,0 l 0.5,-7.4 h 2 l 0.5,7.4 h 2.7 0.5 0.5 l 0.3,-5.8 c 1.6,2.1 2.1,5.1 0.3,8.7 0,0.1 -0.1,0.1 -0.1,0.2 -0.9,2.4 2.5,3.9 3.7,1.6 1.8,-3.5 2.3,-7.2 0.6,-10.8 v 0 c -0.4,-0.8 -0.8,-1.5 -1.3,-2.1 2.9,-0.2 5,0.6 5,-0.8 V 3.8 C 64.3,3.4 64,3 63.5,3 H 6.7 C 6.3,3 5.9,3.4 5.9,3.8 v 31.6 c 0,1.4 2,0.6 5.3,0.8 z m 9.4,5.1 -1.4,1.5 -1.4,-1.5 v 0 c 0,-0.1 0.5,-6 0.5,-5.7 h 1.8 c 0.2,1.9 0.6,5.9 0.5,5.7 z m -0.5,-6.4 h -1.6 c 0,-0.1 -0.6,-1.7 -0.6,-1.6 0,-0.5 2.8,-0.5 2.8,0 -0.1,0.1 -0.7,1.7 -0.6,1.6 z m 31.4,1.2 H 49.7 C 49.7,36 49,33.8 49.1,34 c 0,-0.6 3,-0.6 3,0 0,0 -0.6,2.2 -0.6,2.1 z M 8,4.9 H 62.2 V 34.3 H 57.5 C 57.2,34 56.3,33.4 55.9,33.2 55.2,32.7 53.8,32 52.3,31.8 c -1,0.3 -2.1,0.3 -3.3,0 -2,0.3 -3.8,1.2 -5.4,2.5 H 26.7 c -0.8,-1.1 -1.8,-2.2 -4.5,-3.2 -1.8,1.3 -4.3,1.2 -5.9,0 -1,0.4 -2,0.8 -2.9,1.5 -0.5,0 -1.1,1.6 -1.2,1.7 H 8 Z"
       id="path2"
       inkscape:connector-curvature="0"
       style="fill:#ffffff" /><path
       d="m 18.1,31.2 c 2.6,0.8 5.7,-1.2 5.7,-4.3 0,-2.5 -2,-4.5 -4.5,-4.5 -2.5,0 -4.5,2 -4.5,4.5 0,3.4 3.2,4.2 3.3,4.3 z"
       id="path4"
       inkscape:connector-curvature="0"
       style="fill:#ffffff" /><path
       d="M 20.7,53.5 H 17.9 13.8 5.1 v 2.2 H 6 V 67 H 7.5 V 55.8 H 9.8 V 63 H 11 v -7.3 h 2.3 v 6.4 c 0,1.4 1.1,2.5 2.5,2.5 1.4,0 2.5,-1.1 2.5,-2.5 v -6.4 h 1.9 v 6.4 c 0,1.4 1.1,2.5 2.5,2.5 1.4,0 2.5,-1.1 2.5,-2.5 v -6.4 h 2.7 V 63 h 1.3 v -7.3 h 2.3 V 67 H 33 V 55.8 h 0.6 v -2.2 h -8.8 -4.1 z"
       id="path6"
       inkscape:connector-curvature="0"
       style="fill:#ffffff" /><path
       d="m 52.1,53.5 h -2.8 -4.1 -8.8 v 2.2 h 0.9 V 67 h 1.5 V 55.8 h 2.3 V 63 h 1.3 v -7.3 h 2.4 v 6.4 c 0,1.4 1.1,2.5 2.5,2.5 1.4,0 2.5,-1.1 2.5,-2.5 v -6.4 h 1.9 v 6.4 c 0,1.4 1.1,2.5 2.5,2.5 1.4,0 2.5,-1.1 2.5,-2.5 v -6.4 h 2.6 V 63 h 1.3 v -7.3 h 2.3 V 67 h 1.5 V 55.8 H 65 v -2.2 h -8.8 -4.1 z"
       id="path8"
       inkscape:connector-curvature="0"
       style="fill:#ffffff" /><path
       d="m 31,44.5 c 0,0.8 0,2.1 -0.2,3.2 -0.5,3.9 -6.4,3.3 -6,-0.7 0.2,-0.5 0.2,-1 0.2,-1.5 -0.2,0 -8.2,0 -7.9,0 0,0.1 0.3,2.3 0.3,2.2 1.3,-0.1 -1.1,0 7,0 -0.2,0.9 0.3,3.6 0.3,3.6 h -0.4 v 0.3 l -7.2,-0.1 c -1.4,0.8 -7,0.1 -7,0.1 l 1.8,-4 c 1,0.2 2.3,0.2 3.5,0.1 L 15.2,46.4 C 14.6,46.8 13.9,47 13.1,46.9 9.7,46.2 8.8,46.5 7.7,45.6 l -2.6,6.8 h 10.3 c 0.2,0 7.1,0 6.9,0 h 0.9 10.4 v 0 h 1.1 l -3.1,-8 H 31 Z"
       id="path10"
       inkscape:connector-curvature="0"
       style="fill:#ffffff" /><polygon
       points=""
       id="polygon12"
       style="fill:#ffffff" /><path
       d="m 50.3,46.7 c 0.1,0 2.7,-0.1 4.9,-0.2 0.2,0 0.3,0 0.5,0 v 0.1 c 0,0 0,-0.1 0,-0.1 0.1,-0.2 0.2,-0.5 0.3,-0.7 0,0 0,0 0,0 0,-0.1 0.1,-0.2 0.1,-0.3 H 56 55.5 55 51.4 49.9 c -0.4,0 -5.1,0 -5,0 0.2,0.5 0.4,1 0.6,1.3 0,0 0,0 0,0 v 0 c 1,0 5.1,-0.1 4.8,-0.1 z"
       id="path14"
       inkscape:connector-curvature="0"
       style="fill:#ffffff" /><path
       d="m 40.2,49.6 c -0.6,-1.2 -1,-2.3 -1.3,-3.4 l -2.4,6.3 h 10.4 0.9 6 0.9 H 65 L 62.4,45.8 C 62.1,47 61.6,48.3 61,49.6 60.3,51 58.7,51.5 57.4,51.1 H 50 c -1.9,0.7 -7.7,0.3 -7.7,0.3 l 0.1,-0.3 c -1,-0.1 -1.8,-0.7 -2.2,-1.5 z"
       id="path16"
       inkscape:connector-curvature="0"
       style="fill:#ffffff" /><path
       d="m 15.3,40 c -0.7,0.1 -0.3,1.1 -0.3,1.4 0.5,0.3 0.9,0.7 1.2,1.1 -0.3,-1.3 -0.1,-2.6 -0.9,-2.5 z"
       id="path18"
       inkscape:connector-curvature="0"
       style="fill:#ffffff" /><path
       d="m 16.1,48.9 c 0,0.2 0.2,0.4 0.6,0.4 0.7,-0.1 0.3,-1.1 0.3,-1.5 0,-0.1 -0.3,-2.2 -0.3,-2 0,-0.1 -0.1,-0.6 -0.1,-0.5 l -0.1,-0.4 c -0.2,0.6 -0.5,1.1 -0.8,1.4 0,0 0,0 0,0 v 0 c 0,0 0.4,2.7 0.4,2.6 z"
       id="path20"
       inkscape:connector-curvature="0"
       style="fill:#ffffff" /><path
       d="m 16.4,44.5 v 0.3 c 0,-0.1 0,-0.2 0.1,-0.3 z"
       id="path22"
       inkscape:connector-curvature="0"
       style="fill:#ffffff" /><path
       d="m 50.7,31.4 c 2.5,0 4.5,-2 4.5,-4.5 0,-2.5 -2,-4.5 -4.5,-4.5 -2.5,0 -4.5,2 -4.5,4.5 0,2.4 2,4.5 4.5,4.5 z"
       id="path24"
       inkscape:connector-curvature="0"
       style="fill:#ffffff" /><path
       d="m 45.8,47.9 v 0 0 c 0.1,0 0,0 0,0 z"
       id="path26"
       inkscape:connector-curvature="0"
       style="fill:#ffffff" /></g></svg>