<?xml version="1.0" encoding="UTF-8" standalone="no"?>
<svg
   xmlns:dc="http://purl.org/dc/elements/1.1/"
   xmlns:cc="http://creativecommons.org/ns#"
   xmlns:rdf="http://www.w3.org/1999/02/22-rdf-syntax-ns#"
   xmlns:svg="http://www.w3.org/2000/svg"
   xmlns="http://www.w3.org/2000/svg"
   xmlns:sodipodi="http://sodipodi.sourceforge.net/DTD/sodipodi-0.dtd"
   xmlns:inkscape="http://www.inkscape.org/namespaces/inkscape"
   xml:space="preserve"
   version="1.1"
   style="clip-rule:evenodd;fill-rule:evenodd;image-rendering:optimizeQuality;shape-rendering:geometricPrecision;text-rendering:geometricPrecision"
   viewBox="0 0 7794.6896 7794.6894"
   x="0px"
   y="0px"
   id="svg18"
   sodipodi:docname="labworks.svg"
   width="7794.6895"
   height="7794.6895"
   inkscape:version="0.92.5 (2060ec1f9f, 2020-04-08)"><metadata
     id="metadata22"><rdf:RDF><cc:Work
         rdf:about=""><dc:format>image/svg+xml</dc:format><dc:type
           rdf:resource="http://purl.org/dc/dcmitype/StillImage" /><dc:title></dc:title></cc:Work></rdf:RDF></metadata><sodipodi:namedview
     pagecolor="#ffffff"
     bordercolor="#666666"
     borderopacity="1"
     objecttolerance="10"
     gridtolerance="10"
     guidetolerance="10"
     inkscape:pageopacity="0"
     inkscape:pageshadow="2"
     inkscape:window-width="1920"
     inkscape:window-height="1016"
     id="namedview20"
     showgrid="false"
     fit-margin-top="0"
     fit-margin-left="0"
     fit-margin-right="0"
     fit-margin-bottom="0"
     inkscape:zoom="0.056568542"
     inkscape:cx="810.6162"
     inkscape:cy="2084.7005"
     inkscape:window-x="0"
     inkscape:window-y="27"
     inkscape:window-maximized="1"
     inkscape:current-layer="svg18" /><defs
     id="defs4"><style
       type="text/css"
       id="style2">
   
    .fil0 {fill:black;fill-rule:nonzero}
   
  </style></defs><g
     id="g12"
     transform="matrix(0.02265716,0,0,0.02265716,628.02266,-6.2500003e-6)"
     style="fill:#ffffff"><path
       class="fil0"
       d="m 50230,49660 c -1944,-4117 -180,-9031 3937,-10974 4119,-1941 9032,-179 10974,3939 l 47511,100187 c 1943,4117 179,9032 -3938,10973 -4117,1944 -9031,180 -10974,-3937 z m 60,35454 c -973,-2058 -90,-4516 1968,-5486 2058,-971 4515,-90 5487,1968 l 21174,44651 c 971,2059 90,4516 -1968,5488 -2058,970 -4516,88 -5487,-1970 z m 9251,31501 3394,62371 h 44176 c 1141,0 2066,926 2066,2066 0,1142 -925,2066 -2066,2066 H 2065 c -1139,0 -2066,-924 -2066,-2066 0,-1139 926,-2066 2066,-2066 h 43696 l 8896,-73551 4883,11180 z"
       id="path6"
       inkscape:connector-curvature="0"
       style="fill:#ffffff;fill-rule:nonzero" /><path
       class="fil0"
       d="m 256891,262492 c 2281,0 4131,1850 4131,4131 0,2282 -1850,4132 -4131,4132 h -75399 c -2281,0 -4132,-1850 -4132,-4132 0,-2281 1851,-4131 4132,-4131 z m 16999,-139269 c 0,-2282 1851,-4132 4132,-4132 2281,0 4131,1850 4131,4132 v 118778 c 0,2281 -1850,4131 -4131,4131 -2281,0 -4132,-1850 -4132,-4131 z"
       id="path8"
       inkscape:connector-curvature="0"
       style="fill:#ffffff;fill-rule:nonzero" /><path
       class="fil0"
       d="m 228410,140331 -30804,35767 c -3407,3937 -8270,5866 -13096,5682 l -34894,36 c -9091,0 -16460,-7370 -16460,-16460 0,-9091 7370,-16462 16460,-16462 l 27958,-29 54038,-62747 c 3009,-4093 7856,-6749 13326,-6749 9126,0 16524,7399 16524,16526 v 138794 c 0,9127 -7399,16526 -16524,16526 -479,0 -954,-23 -1423,-63 -468,40 -943,63 -1421,63 h -76128 l 13078,73455 c 1568,8985 -4442,17540 -13427,19109 -8984,1568 -17538,-4443 -19108,-13427 l -16395,-92087 c -253,-1151 -389,-2348 -389,-3575 0,-9127 7399,-16526 16526,-16526 h 82161 V 140332 Z M 218366,0 c 19380,0 35093,14773 35093,32997 0,18225 -15713,32997 -35093,32997 -19381,0 -35094,-14772 -35094,-32997 C 183272,14773 198985,0 218366,0 Z"
       id="path10"
       inkscape:connector-curvature="0"
       style="fill:#ffffff;fill-rule:nonzero" /></g></svg>