<?xml version="1.0" encoding="UTF-8" standalone="no"?>
<svg
   xmlns:dc="http://purl.org/dc/elements/1.1/"
   xmlns:cc="http://creativecommons.org/ns#"
   xmlns:rdf="http://www.w3.org/1999/02/22-rdf-syntax-ns#"
   xmlns:svg="http://www.w3.org/2000/svg"
   xmlns="http://www.w3.org/2000/svg"
   xmlns:sodipodi="http://sodipodi.sourceforge.net/DTD/sodipodi-0.dtd"
   xmlns:inkscape="http://www.inkscape.org/namespaces/inkscape"
   version="1.1"
   x="0px"
   y="0px"
   viewBox="0 0 95.099999 95.099999"
   xml:space="preserve"
   id="svg46"
   sodipodi:docname="oop.svg"
   width="95.099998"
   height="95.099998"
   inkscape:version="0.92.5 (2060ec1f9f, 2020-04-08)"><metadata
     id="metadata52"><rdf:RDF><cc:Work
         rdf:about=""><dc:format>image/svg+xml</dc:format><dc:type
           rdf:resource="http://purl.org/dc/dcmitype/StillImage" /><dc:title></dc:title></cc:Work></rdf:RDF></metadata><defs
     id="defs50" /><sodipodi:namedview
     pagecolor="#ffffff"
     bordercolor="#666666"
     borderopacity="1"
     objecttolerance="10"
     gridtolerance="10"
     guidetolerance="10"
     inkscape:pageopacity="0"
     inkscape:pageshadow="2"
     inkscape:window-width="1920"
     inkscape:window-height="1016"
     id="namedview48"
     showgrid="false"
     fit-margin-top="0"
     fit-margin-left="0"
     fit-margin-right="0"
     fit-margin-bottom="0"
     inkscape:zoom="1.888"
     inkscape:cx="68.686441"
     inkscape:cy="-4.6432132"
     inkscape:window-x="0"
     inkscape:window-y="27"
     inkscape:window-maximized="1"
     inkscape:current-layer="svg46" /><path
     inkscape:connector-curvature="0"
     id="path12"
     d="m 10.7,47.599998 c 0.3,0.1 0.5,0.1 0.8,0.1 1.2,0 2.3,-0.8 2.7,-2 1.7,-5.8 5,-11 9.3,-15.199999 1.1,-1.100001 1.2,-2.8 0.1,-3.9 -1.1,-1.1 -2.8,-1.2 -3.9,-0.1 -5.1,4.899999 -8.8,11 -10.8,17.7 -0.5,1.4 0.3,2.9 1.8,3.399999 z"
     style="fill:#ffffff" /><path
     inkscape:connector-curvature="0"
     id="path14"
     d="m 80.8,45.699998 c 0.4,1.2 1.5,2 2.7,2 0.3,0 0.5,0 0.8,-0.1 1.5,-0.4 2.3,-2 1.9,-3.5 -2,-6.7 -5.8,-12.8 -10.8,-17.7 -1.1,-1.1 -2.9,-1 -3.9,0.1 -1.1,1.1 -1,2.9 0.1,3.9 4.3,4.3 7.5,9.5 9.2,15.3 z"
     style="fill:#ffffff" /><path
     inkscape:connector-curvature="0"
     id="path16"
     d="m 56.4,86.399998 c -5.8,1.5 -12,1.5 -17.9,-0.1 -1.5,-0.4 -3,0.5 -3.4,2 -0.4,1.5 0.5,3 2,3.400001 3.5,0.9 7,1.4 10.6,1.4 3.4,0 6.8,-0.4 10.1,-1.3 1.5,-0.4 2.4,-1.9 2,-3.4 -0.3,-1.5 -1.9,-2.4 -3.4,-2.000001 z"
     style="fill:#ffffff" /><path
     inkscape:connector-curvature="0"
     id="path18"
     d="m 0.5,61.199998 c -0.2,-0.1 -0.5,0.1 -0.5,0.300001 v 19.1 c 0,0.6 0.3,1.1 0.9,1.4 l 14,6.4 c 0.2,0.1 0.5,-0.1 0.5,-0.3 v -19.9 c 0,-0.1 -0.1,-0.3 -0.2,-0.3 z"
     style="fill:#ffffff" /><path
     inkscape:connector-curvature="0"
     id="path20"
     d="M 31.5,57.499999 17.9,51.299998 c -0.4,-0.2 -0.8,-0.2 -1.2,0 L 3,57.499999 c -0.3,0.1 -0.3,0.5 0,0.7 l 14.1,6.4 c 0.1,0 0.2,0 0.3,0 l 14.1,-6.400001 c 0.3,-0.1 0.3,-0.5 0,-0.699999 z"
     style="fill:#ffffff" /><path
     inkscape:connector-curvature="0"
     id="path22"
     d="m 34,61.199998 -14.6,6.7 c -0.1,0.1 -0.2,0.2 -0.2,0.3 v 19.8 c 0,0.3 0.3,0.5 0.5,0.3 l 14,-6.4 c 0.5,-0.2 0.9,-0.8 0.9,-1.4 v -19 c -0.1,-0.3 -0.4,-0.4 -0.6,-0.3 z"
     style="fill:#ffffff" /><path
     inkscape:connector-curvature="0"
     id="path24"
     d="m 61,61.199998 c -0.2,-0.1 -0.5,0.1 -0.5,0.300001 v 19.1 c 0,0.6 0.3,1.1 0.9,1.4 l 14,6.4 c 0.2,0.1 0.5,-0.1 0.5,-0.3 v -19.9 c 0,-0.1 -0.1,-0.3 -0.2,-0.3 z"
     style="fill:#ffffff" /><path
     inkscape:connector-curvature="0"
     id="path26"
     d="M 92,57.499999 78.4,51.299998 c -0.4,-0.2 -0.8,-0.2 -1.2,0 l -13.7,6.200001 c -0.3,0.1 -0.3,0.5 0,0.7 l 14.1,6.4 c 0.1,0 0.2,0 0.3,0 l 14.1,-6.4 c 0.3,-0.1 0.3,-0.5 0,-0.7 z"
     style="fill:#ffffff" /><path
     inkscape:connector-curvature="0"
     id="path28"
     d="m 94.5,61.199998 -14.6,6.7 c -0.1,0.1 -0.2,0.2 -0.2,0.3 v 19.8 c 0,0.3 0.3,0.5 0.5,0.3 l 14,-6.4 c 0.5,-0.2 0.9,-0.8 0.9,-1.4 v -19 c -0.1,-0.3 -0.4,-0.4 -0.6,-0.3 z"
     style="fill:#ffffff" /><path
     inkscape:connector-curvature="0"
     id="path30"
     d="m 31.1,33.299998 14,6.4 c 0.2,0.1 0.5,-0.1 0.5,-0.3 v -19.8 c 0,-0.1 -0.1,-0.3 -0.2,-0.3 L 30.8,12.599999 c -0.2,-0.1 -0.5,0.1 -0.5,0.3 v 19.1 c 0,0.5 0.3,1 0.8,1.299999 z"
     style="fill:#ffffff" /><path
     inkscape:connector-curvature="0"
     id="path32"
     d="m 47.3,15.999998 c 0.1,0 0.2,0 0.3,0 l 14.1,-6.4 c 0.3,-0.1 0.3,-0.5 0,-0.7 L 48.1,2.5999985 c -0.4,-0.2 -0.8,-0.2 -1.2,0 L 33.3,8.799998 c -0.3,0.1 -0.3,0.5 0,0.7 z"
     style="fill:#ffffff" /><path
     inkscape:connector-curvature="0"
     id="path34"
     d="m 49.4,19.599998 v 19.8 c 0,0.3 0.3,0.5 0.5,0.3 l 14,-6.4 c 0.5,-0.2 0.9,-0.799999 0.9,-1.4 V 12.899999 c 0,-0.3 -0.3,-0.500001 -0.5,-0.3 l -14.6,6.699999 c -0.3,0 -0.3,0.1 -0.3,0.3 z"
     style="fill:#ffffff" /></svg>