<?xml version="1.0" encoding="UTF-8" standalone="no"?>
<svg
   xmlns:dc="http://purl.org/dc/elements/1.1/"
   xmlns:cc="http://creativecommons.org/ns#"
   xmlns:rdf="http://www.w3.org/1999/02/22-rdf-syntax-ns#"
   xmlns:svg="http://www.w3.org/2000/svg"
   xmlns="http://www.w3.org/2000/svg"
   xmlns:sodipodi="http://sodipodi.sourceforge.net/DTD/sodipodi-0.dtd"
   xmlns:inkscape="http://www.inkscape.org/namespaces/inkscape"
   xml:space="preserve"
   style="clip-rule:evenodd;fill-rule:evenodd;image-rendering:optimizeQuality;shape-rendering:geometricPrecision;text-rendering:geometricPrecision"
   viewBox="0 0 90.000801 90.000801"
   x="0px"
   y="0px"
   version="1.1"
   id="svg14"
   sodipodi:docname="noun_abort_1752405.svg"
   width="90.000801"
   height="90.000801"
   inkscape:version="0.92.5 (2060ec1f9f, 2020-04-08)"><metadata
     id="metadata18"><rdf:RDF><cc:Work
         rdf:about=""><dc:format>image/svg+xml</dc:format><dc:type
           rdf:resource="http://purl.org/dc/dcmitype/StillImage" /><dc:title></dc:title></cc:Work></rdf:RDF></metadata><sodipodi:namedview
     pagecolor="#ffffff"
     bordercolor="#666666"
     borderopacity="1"
     objecttolerance="10"
     gridtolerance="10"
     guidetolerance="10"
     inkscape:pageopacity="0"
     inkscape:pageshadow="2"
     inkscape:window-width="739"
     inkscape:window-height="480"
     id="namedview16"
     showgrid="false"
     fit-margin-top="0"
     fit-margin-left="0"
     fit-margin-right="0"
     fit-margin-bottom="0"
     inkscape:zoom="1.888"
     inkscape:cx="38.970762"
     inkscape:cy="32.5004"
     inkscape:window-x="0"
     inkscape:window-y="27"
     inkscape:window-maximized="0"
     inkscape:current-layer="svg14" /><defs
     id="defs4"><style
       type="text/css"
       id="style2">
   
    .fil0 {fill:black}
   
  </style></defs><g
     id="g8"
     transform="translate(-5.029238,-4.9996022)"
     style="fill:#ffffff"><path
       class="fil0"
       d="M 88.9708,27.4998 88.9684,72.499 50,95.0004 11.0292,72.499 11.0304,27.501 50,4.9996 Z m -34.394,15.0037 1.03465,-13.1434 c 0,-6.09808 6.1654,-6.01068 6.1654,0 l -0.927173,21.221 c -0.246852,0 -0.481894,7.47289 6.13351,-3.14884 3.22443,-5.17681 8.41188,-1.84253 5.23351,3.25987 l -7.01344,11.2572 c 0.982685,9.77252 -6.77368,18.469 -16.6867,18.469 -9.2611,0 -16.7718,-7.51069 -16.7718,-16.773 0,-9.76071 -1.36418,-14.9836 -4.59098,-24.9545 -1.87679,-5.80162 4.01696,-7.61699 5.86658,-1.89805 l 3.90357,12.0639 -0.773628,-19.4163 c 0,-6.09808 6.16658,-6.01186 6.16658,0 l 0.93544,15.9072 2.49805,-1.13269 0.05433,-20.0919 c 0,-6.09808 6.1654,-6.01186 6.1654,0 l 0.269293,18.7572 2.33742,-0.376775 z"
       id="path6"
       inkscape:connector-curvature="0"
       style="fill:#ffffff" /></g></svg>