<?xml version="1.0" encoding="UTF-8" standalone="no"?>
<svg
   xmlns:dc="http://purl.org/dc/elements/1.1/"
   xmlns:cc="http://creativecommons.org/ns#"
   xmlns:rdf="http://www.w3.org/1999/02/22-rdf-syntax-ns#"
   xmlns:svg="http://www.w3.org/2000/svg"
   xmlns="http://www.w3.org/2000/svg"
   xmlns:sodipodi="http://sodipodi.sourceforge.net/DTD/sodipodi-0.dtd"
   xmlns:inkscape="http://www.inkscape.org/namespaces/inkscape"
   version="1.1"
   x="0px"
   y="0px"
   viewBox="0 0 94.90078 94.90078"
   xml:space="preserve"
   id="svg28"
   sodipodi:docname="advantage.svg"
   width="94.90078"
   height="94.90078"
   inkscape:version="0.92.5 (2060ec1f9f, 2020-04-08)"><metadata
     id="metadata34"><rdf:RDF><cc:Work
         rdf:about=""><dc:format>image/svg+xml</dc:format><dc:type
           rdf:resource="http://purl.org/dc/dcmitype/StillImage" /><dc:title></dc:title></cc:Work></rdf:RDF></metadata><defs
     id="defs32" /><sodipodi:namedview
     pagecolor="#ffffff"
     bordercolor="#666666"
     borderopacity="1"
     objecttolerance="10"
     gridtolerance="10"
     guidetolerance="10"
     inkscape:pageopacity="0"
     inkscape:pageshadow="2"
     inkscape:window-width="1920"
     inkscape:window-height="1016"
     id="namedview30"
     showgrid="false"
     fit-margin-top="0"
     fit-margin-left="0"
     fit-margin-right="0"
     fit-margin-bottom="0"
     inkscape:zoom="1.888"
     inkscape:cx="202.39868"
     inkscape:cy="11.665198"
     inkscape:window-x="0"
     inkscape:window-y="27"
     inkscape:window-maximized="1"
     inkscape:current-layer="svg28" /><g
     id="g18"
     transform="translate(-2.5,-2.2992215)"
     style="fill:#ffffff"><path
       d="M 76.3,8.8 C 64.6,8.8 55,18.3 55,30 55,41.7 64.5,51.2 76.2,51.2 87.9,51.2 97.4,41.7 97.4,30 97.5,18.3 88,8.8 76.3,8.8 Z m 6.8,24 h -4 v 4 c 0,1.5 -1.3,2.8 -2.8,2.8 -1.5,0 -2.8,-1.3 -2.8,-2.8 v -4 h -4 c -1.5,0 -2.8,-1.3 -2.8,-2.8 0,-1.5 1.3,-2.8 2.8,-2.8 h 4 v -4 c 0,-1.5 1.3,-2.8 2.8,-2.8 1.5,0 2.8,1.3 2.8,2.8 v 4 h 4 c 1.5,0 2.8,1.3 2.8,2.8 0,1.6 -1.2,2.8 -2.8,2.8 z"
       id="path12"
       inkscape:connector-curvature="0"
       style="fill:#ffffff" /><path
       d="m 65,59.2 c 0,-2.5 -2.1,-4.6 -4.6,-4.6 H 45.9 c -0.9,0 -1.4,-0.7 -1.3,-1.5 1,-6.3 2.3,-8.4 2.9,-15 0.6,-6.3 -8.3,-7.4 -9.6,-1.6 -2.4,10.8 -11.4,18.1 -14.3,20.3 -0.6,0.4 -1,1.1 -1,1.9 v 26 c 0,0.9 0.6,1.8 1.4,2.1 3.2,1.4 6.8,4.4 17.5,4.4 6.6,0 16.7,0 16.7,0 2.5,0 4.6,-2.1 4.6,-4.6 0,-2.5 -2.1,-4.6 -4.6,-4.6 h 0.5 c 2.3,0 4.4,-1.7 4.7,-4 0.4,-2.8 -1.8,-5.2 -4.5,-5.2 h 0.5 c 2.3,0 4.4,-1.7 4.7,-4 0.4,-2.8 -1.8,-5.2 -4.5,-5.2 h 0.7 c 2.6,0.2 4.7,-1.8 4.7,-4.4 z"
       id="path14"
       inkscape:connector-curvature="0"
       style="fill:#ffffff" /><path
       d="M 16,57.5 H 4.8 c -1.3,0 -2.3,1 -2.3,2.3 v 24.1 c 0,1.3 1,2.3 2.3,2.3 H 16 c 1.3,0 2.3,-1 2.3,-2.3 V 59.8 c 0.1,-1.3 -1,-2.3 -2.3,-2.3 z"
       id="path16"
       inkscape:connector-curvature="0"
       style="fill:#ffffff" /></g></svg>