<?xml version="1.0" encoding="UTF-8" standalone="no"?>
<svg
   xmlns:dc="http://purl.org/dc/elements/1.1/"
   xmlns:cc="http://creativecommons.org/ns#"
   xmlns:rdf="http://www.w3.org/1999/02/22-rdf-syntax-ns#"
   xmlns:svg="http://www.w3.org/2000/svg"
   xmlns="http://www.w3.org/2000/svg"
   xmlns:sodipodi="http://sodipodi.sourceforge.net/DTD/sodipodi-0.dtd"
   xmlns:inkscape="http://www.inkscape.org/namespaces/inkscape"
   viewBox="0 0 26 26"
   version="1.1"
   x="0px"
   y="0px"
   id="svg26"
   sodipodi:docname="desallocation_icon.svg"
   width="26"
   height="26"
   inkscape:version="0.92.5 (2060ec1f9f, 2020-04-08)">
  <metadata
     id="metadata32">
    <rdf:RDF>
      <cc:Work
         rdf:about="">
        <dc:format>image/svg+xml</dc:format>
        <dc:type
           rdf:resource="http://purl.org/dc/dcmitype/StillImage" />
        <dc:title></dc:title>
      </cc:Work>
    </rdf:RDF>
  </metadata>
  <defs
     id="defs30" />
  <sodipodi:namedview
     pagecolor="#ffffff"
     bordercolor="#666666"
     borderopacity="1"
     objecttolerance="10"
     gridtolerance="10"
     guidetolerance="10"
     inkscape:pageopacity="0"
     inkscape:pageshadow="2"
     inkscape:window-width="1920"
     inkscape:window-height="1016"
     id="namedview28"
     showgrid="false"
     fit-margin-top="0"
     fit-margin-left="0"
     fit-margin-right="0"
     fit-margin-bottom="0"
     inkscape:zoom="7.2615385"
     inkscape:cx="13"
     inkscape:cy="9.7500085"
     inkscape:window-x="0"
     inkscape:window-y="27"
     inkscape:window-maximized="1"
     inkscape:current-layer="svg26" />
  <g
     transform="translate(0,-1026.3622)"
     id="g20"
     style="fill:#ffffff">
    <g
       transform="translate(0,0.0198085)"
       id="g18"
       style="fill:#ffffff">
      <path
         style="color:#000000;text-indent:0;text-decoration:none;text-decoration-line:none;text-transform:none;direction:ltr;baseline-shift:baseline;display:inline;overflow:visible;visibility:visible;fill:#ffffff;fill-opacity:1;fill-rule:evenodd;stroke:none;enable-background:accumulate"
         d="M 13,0 C 5.826231,0 1.6000005e-5,5.8262 0,13 -4.1999995e-5,20.1738 5.826191,26 13,26 20.173809,26 26.000041,20.1738 26,13 25.999984,5.8262 20.173769,0 13,0 Z m 0,1 c 6.633359,0 11.999985,5.3666 12,12 3.8e-5,6.6334 -5.366604,12 -12,12 C 6.366603,25 0.999962,19.6334 1,13 1.000015,6.3666 6.366641,1 13,1 Z m 1.5,4.4375 v 0.5 2 3.5 h 1 5 v -6 z m 1,1 h 4 v 4 h -4 z m 1,0.5 c -0.394479,2e-4 -0.656924,0.56785 -0.375,0.84375 L 16.78125,8.4375 16.125,9.09375 c -0.382628,0.3674 0.351385,1.0701 0.71875,0.6875 l 0.65625,-0.625 0.625,0.625 c 0.367365,0.3826 1.101378,-0.3201 0.71875,-0.6875 L 18.1875,8.4375 18.84375,7.78125 C 19.129191,7.50215 18.89904,6.9266 18.5,6.9375 c -0.128157,0 -0.285401,0.06495 -0.375,0.15625 l -0.625,0.625 -0.65625,-0.625 C 16.75093,6.99875 16.632737,6.9376 16.5,6.9375 Z M 13,8.65625 12.75,8.78125 5.5,12.6875 13,16.75 20.5,12.6875 20,12.4375 h -6 -0.5 v -0.5 -3.03125 z m -6.46875,5.75 L 5.5,14.96875 13,19 20.5,14.96875 19.46875,14.40625 13,17.875 Z"
         transform="translate(0,1026.3424)"
         display="inline"
         overflow="visible"
         visibility="visible"
         id="path16"
         inkscape:connector-curvature="0" />
    </g>
  </g>
</svg>
