<?xml version="1.0" encoding="UTF-8" standalone="no"?>
<svg
   xmlns:dc="http://purl.org/dc/elements/1.1/"
   xmlns:cc="http://creativecommons.org/ns#"
   xmlns:rdf="http://www.w3.org/1999/02/22-rdf-syntax-ns#"
   xmlns:svg="http://www.w3.org/2000/svg"
   xmlns="http://www.w3.org/2000/svg"
   xmlns:sodipodi="http://sodipodi.sourceforge.net/DTD/sodipodi-0.dtd"
   xmlns:inkscape="http://www.inkscape.org/namespaces/inkscape"
   viewBox="0 0 68 68"
   x="0px"
   y="0px"
   version="1.1"
   id="svg8"
   sodipodi:docname="details.svg"
   width="68"
   height="68"
   inkscape:version="0.92.5 (2060ec1f9f, 2020-04-08)">
  <metadata
     id="metadata14">
    <rdf:RDF>
      <cc:Work
         rdf:about="">
        <dc:format>image/svg+xml</dc:format>
        <dc:type
           rdf:resource="http://purl.org/dc/dcmitype/StillImage" />
        <dc:title></dc:title>
      </cc:Work>
    </rdf:RDF>
  </metadata>
  <defs
     id="defs12" />
  <sodipodi:namedview
     pagecolor="#ffffff"
     bordercolor="#666666"
     borderopacity="1"
     objecttolerance="10"
     gridtolerance="10"
     guidetolerance="10"
     inkscape:pageopacity="0"
     inkscape:pageshadow="2"
     inkscape:window-width="1920"
     inkscape:window-height="1016"
     id="namedview10"
     showgrid="false"
     fit-margin-top="0"
     fit-margin-left="0"
     fit-margin-right="0"
     fit-margin-bottom="0"
     inkscape:zoom="2.7764706"
     inkscape:cx="57.580511"
     inkscape:cy="24.059322"
     inkscape:window-x="0"
     inkscape:window-y="27"
     inkscape:window-maximized="1"
     inkscape:current-layer="svg8" />
  <path
     d="m 24,48 h 13 c 0.55228,0 1,0.44771 1,1 v 2 c 0,0.55228 -0.44772,1 -1,1 H 24 v 12 h 23 c 0.55228,0 1,0.44771 1,1 v 2 c 0,0.55228 -0.44772,1 -1,1 H 22 c -1.10457,0 -2,-0.89543 -2,-2 V 2 c 0,-1.10457 0.89543,-2 2,-2 h 25 c 0.55228,0 1,0.44771 1,1 v 2 c 0,0.55228 -0.44772,1 -1,1 H 24 v 12 h 13 c 0.55228,0 1,0.44771 1,1 v 2 c 0,0.55228 -0.44772,1 -1,1 H 24 v 12 h 23 c 0.55228,0 1,0.44771 1,1 v 2 c 0,0.55228 -0.44772,1 -1,1 H 24 Z"
     id="path2"
     inkscape:connector-curvature="0"
     style="fill:#ffffff" />
</svg>
