<?xml version="1.0" encoding="UTF-8" standalone="no"?>
<svg
   xmlns:dc="http://purl.org/dc/elements/1.1/"
   xmlns:cc="http://creativecommons.org/ns#"
   xmlns:rdf="http://www.w3.org/1999/02/22-rdf-syntax-ns#"
   xmlns:svg="http://www.w3.org/2000/svg"
   xmlns="http://www.w3.org/2000/svg"
   xmlns:sodipodi="http://sodipodi.sourceforge.net/DTD/sodipodi-0.dtd"
   xmlns:inkscape="http://www.inkscape.org/namespaces/inkscape"
   version="1.1"
   x="0px"
   y="0px"
   viewBox="0 0 94.800003 94.800001"
   xml:space="preserve"
   id="svg28"
   sodipodi:docname="disadvantage.svg"
   width="94.800003"
   height="94.800003"
   inkscape:version="0.92.5 (2060ec1f9f, 2020-04-08)"><metadata
     id="metadata34"><rdf:RDF><cc:Work
         rdf:about=""><dc:format>image/svg+xml</dc:format><dc:type
           rdf:resource="http://purl.org/dc/dcmitype/StillImage" /><dc:title></dc:title></cc:Work></rdf:RDF></metadata><defs
     id="defs32" /><sodipodi:namedview
     pagecolor="#ffffff"
     bordercolor="#666666"
     borderopacity="1"
     objecttolerance="10"
     gridtolerance="10"
     guidetolerance="10"
     inkscape:pageopacity="0"
     inkscape:pageshadow="2"
     inkscape:window-width="1920"
     inkscape:window-height="1016"
     id="namedview30"
     showgrid="false"
     fit-margin-top="0"
     fit-margin-left="0"
     fit-margin-right="0"
     fit-margin-bottom="0"
     inkscape:zoom="2.6700352"
     inkscape:cx="169.32396"
     inkscape:cy="7.3838716"
     inkscape:window-x="0"
     inkscape:window-y="27"
     inkscape:window-maximized="1"
     inkscape:current-layer="svg28" /><path
     inkscape:connector-curvature="0"
     id="path12"
     d="m 87.4,35.999994 h -0.9 c 3.6,0 6.4,-3.2 6,-6.8 -0.4,-3 -3.1,-5.2 -6.2,-5.2 h -0.7 c 3.6,0 6.4,-3.2 6,-6.8 -0.4,-3 -3.1,-5.2 -6.2,-5.2 h -0.7 c 3.3,0 6,-2.7000002 6,-6.0000002 0,-3.3 -2.7,-5.9999999035156 -6,-5.9999999035156 0,0 -13.3,0 -22,0 -14.1,0 -18.9,3.9999999035156 -23.1,5.6999999035156 -1.1,0.5 -1.9,1.6 -1.9,2.8 V 42.699994 c 0,1 0.5,1.9 1.3,2.5 3.9,2.8 15.7,12.4 18.9,26.7 1.7,7.6 13.5,6.2 12.6,-2.1 -0.8,-8.6 -2.6,-11.4 -3.8,-19.7 -0.2,-1.1 0.6,-2 1.7,-2 h 19.1 c 3.3,0 6,-2.7 6,-6 -0.1,-3.4 -2.8,-6.1 -6.1,-6.1 z"
     style="fill:#ffffff" /><path
     inkscape:connector-curvature="0"
     id="path14"
     d="m 14.5,44.299994 h 14.8 c 1.7,0 3.1,-1.4 3.1,-3.1 V 9.4999938 c 0,-1.7 -1.4,-3.1 -3.1,-3.1 H 14.5 c -1.7,0 -3.1,1.4 -3.1,3.1 V 41.299994 c 0,1.6 1.4,3 3.1,3 z m 7.4,-31.1 c 1.8,0 3.2,1.4 3.2,3.2 0,1.8 -1.4,3.2 -3.2,3.2 -1.8,0 -3.2,-1.4 -3.2,-3.2 0,-1.8 1.4,-3.2 3.2,-3.2 z"
     style="fill:#ffffff" /><path
     inkscape:connector-curvature="0"
     id="path16"
     d="m 24.4,53.999994 c -11.3,0 -20.4,9.1 -20.4,20.4 0,11.3 9.1,20.4 20.4,20.4 11.3,0 20.4,-9.1 20.4,-20.4 0,-11.3 -9.1,-20.4 -20.4,-20.4 z m 7,23.4 h -14 c -1.6,0 -2.9,-1.3 -2.9,-2.9 0,-1.6 1.3,-2.9 2.9,-2.9 h 14.1 c 1.6,0 2.9,1.3 2.9,2.9 0,1.6 -1.4,2.9 -3,2.9 z"
     style="fill:#ffffff" /></svg>