<?xml version="1.0" encoding="UTF-8" standalone="no"?>
<svg
   xmlns:dc="http://purl.org/dc/elements/1.1/"
   xmlns:cc="http://creativecommons.org/ns#"
   xmlns:rdf="http://www.w3.org/1999/02/22-rdf-syntax-ns#"
   xmlns:svg="http://www.w3.org/2000/svg"
   xmlns="http://www.w3.org/2000/svg"
   xmlns:sodipodi="http://sodipodi.sourceforge.net/DTD/sodipodi-0.dtd"
   xmlns:inkscape="http://www.inkscape.org/namespaces/inkscape"
   version="1.1"
   x="0px"
   y="0px"
   viewBox="0 0 468 468"
   xml:space="preserve"
   id="svg22"
   sodipodi:docname="double-linked-list.svg"
   width="468"
   height="468"
   inkscape:version="0.92.5 (2060ec1f9f, 2020-04-08)"><metadata
     id="metadata28"><rdf:RDF><cc:Work
         rdf:about=""><dc:format>image/svg+xml</dc:format><dc:type
           rdf:resource="http://purl.org/dc/dcmitype/StillImage" /><dc:title></dc:title></cc:Work></rdf:RDF></metadata><defs
     id="defs26" /><sodipodi:namedview
     pagecolor="#ffffff"
     bordercolor="#666666"
     borderopacity="1"
     objecttolerance="10"
     gridtolerance="10"
     guidetolerance="10"
     inkscape:pageopacity="0"
     inkscape:pageshadow="2"
     inkscape:window-width="739"
     inkscape:window-height="480"
     id="namedview24"
     showgrid="false"
     fit-margin-top="0"
     fit-margin-left="0"
     fit-margin-right="0"
     fit-margin-bottom="0"
     inkscape:zoom="0.36875"
     inkscape:cx="234"
     inkscape:cy="138"
     inkscape:window-x="0"
     inkscape:window-y="27"
     inkscape:window-maximized="0"
     inkscape:current-layer="svg22" /><g
     id="g16"
     transform="translate(-22,-18)"
     style="fill:#ffffff"><g
       id="g14"
       style="fill:#ffffff"><path
         d="m 475,407.712 h -50.789 v -30 H 460 V 133.584 h -35.229 v -30 H 475 c 8.284,0 15,6.716 15,15 v 274.128 c 0,8.284 -6.716,15 -15,15 z"
         id="path2"
         inkscape:connector-curvature="0"
         style="fill:#ffffff" /><rect
         x="197.896"
         y="103.584"
         width="25.236"
         height="30"
         id="rect4"
         style="fill:#ffffff" /><g
         id="g12"
         style="fill:#ffffff"><path
           d="M 386.037,458 H 259.298 c -8.284,0 -15,-6.716 -15,-15 V 342.423 c 0,-8.284 6.716,-15 15,-15 h 126.739 c 8.284,0 15,6.716 15,15 V 443 c 0,8.284 -6.716,15 -15,15 z M 274.298,428 h 96.739 v -70.577 h -96.739 z"
           id="path6"
           inkscape:connector-curvature="0"
           style="fill:#ffffff" /><path
           d="M 386.037,184.577 H 259.298 c -8.284,0 -15,-6.716 -15,-15 V 69 c 0,-8.284 6.716,-15 15,-15 h 126.739 c 8.284,0 15,6.716 15,15 v 100.577 c 0,8.284 -6.716,15 -15,15 z m -111.739,-30 h 96.739 V 84 h -96.739 z"
           id="path8"
           inkscape:connector-curvature="0"
           style="fill:#ffffff" /><path
           d="M 163.739,184.577 H 37 c -8.284,0 -15,-6.716 -15,-15 V 69 c 0,-8.284 6.716,-15 15,-15 h 126.739 c 8.284,0 15,6.716 15,15 v 100.577 c 0,8.284 -6.716,15 -15,15 z M 52,154.577 h 96.739 V 84 H 52 Z"
           id="path10"
           inkscape:connector-curvature="0"
           style="fill:#ffffff" /></g></g></g></svg>