<?xml version="1.0" encoding="UTF-8" standalone="no"?>
<svg
   xmlns:dc="http://purl.org/dc/elements/1.1/"
   xmlns:cc="http://creativecommons.org/ns#"
   xmlns:rdf="http://www.w3.org/1999/02/22-rdf-syntax-ns#"
   xmlns:svg="http://www.w3.org/2000/svg"
   xmlns="http://www.w3.org/2000/svg"
   xmlns:sodipodi="http://sodipodi.sourceforge.net/DTD/sodipodi-0.dtd"
   xmlns:inkscape="http://www.inkscape.org/namespaces/inkscape"
   data-name="Layer 1"
   viewBox="0 0 128.00028 128.00027"
   x="0px"
   y="0px"
   version="1.1"
   id="svg14"
   sodipodi:docname="exception.svg"
   width="128.00027"
   height="128.00027"
   inkscape:version="0.92.5 (2060ec1f9f, 2020-04-08)">
  <metadata
     id="metadata20">
    <rdf:RDF>
      <cc:Work
         rdf:about="">
        <dc:format>image/svg+xml</dc:format>
        <dc:type
           rdf:resource="http://purl.org/dc/dcmitype/StillImage" />
        <dc:title>Miscellaneous 67 expandline</dc:title>
      </cc:Work>
    </rdf:RDF>
  </metadata>
  <defs
     id="defs18" />
  <sodipodi:namedview
     pagecolor="#ffffff"
     bordercolor="#666666"
     borderopacity="1"
     objecttolerance="10"
     gridtolerance="10"
     guidetolerance="10"
     inkscape:pageopacity="0"
     inkscape:pageshadow="2"
     inkscape:window-width="739"
     inkscape:window-height="480"
     id="namedview16"
     showgrid="false"
     fit-margin-top="0"
     fit-margin-left="0"
     fit-margin-right="0"
     fit-margin-bottom="0"
     inkscape:zoom="1.475"
     inkscape:cx="46.000096"
     inkscape:cy="47.999999"
     inkscape:window-x="0"
     inkscape:window-y="27"
     inkscape:window-maximized="0"
     inkscape:current-layer="svg14" />
  <title
     id="title2">Miscellaneous 67 expandline</title>
  <path
     d="m 24.299786,62.026143 0.11472,-0.49219 0.25045,-25.55369 a 4.897,4.897 0 0 1 4.97123,-4.75146 h 0.03173 a 4.75728,4.75728 0 0 1 3.39242,1.40918 4.70157,4.70157 0 0 1 1.26343,2.41193 c 0.0076,0.0675 0.09733,0.7262 0.09471,0.99725 l -0.22444,28.36627 a 38.16222,38.16222 0 0 1 4.022,-2.84259 l 0.23976,-43.48658 a 4.89674,4.89674 0 0 1 4.97269,-4.74951 h 0.03173 c 0.91828,0.0054 5.5003,0.26166 5.49993,4.79028 l -0.38286,39.0589 a 37.72812,37.72812 0 0 1 4.00736,-0.79156 l 0.467,-47.6430697 a 4.89654,4.89654 0 0 1 4.97223,-4.74904 h 0.03222 a 4.97414,4.97414 0 0 1 3.54523,1.48047 4.63329,4.63329 0 0 1 1.35033,3.313 l -0.46543,47.4808297 a 37.75521,37.75521 0 0 1 3.9929,0.69214 l 0.33227,-33.90161 c 0.02514,-2.43878 2.78567,-4.72742 5.69216,-4.72742 h 0.03466 a 4.97342,4.97342 0 0 1 3.54376,1.479 4.63718,4.63718 0 0 1 1.34984,3.31543 l -0.37157,38.01855 a 38.12333,38.12333 0 0 1 3.97355,2.65948 l 0.3973,-40.63848 a 8.6099,8.6099 0 0 0 -2.49855,-6.16064 8.944,8.944 0 0 0 -6.36945,-2.67335 10.15919,10.15919 0 0 0 -5.68337,1.75739 l 0.07115,-7.2622697 a 8.6089,8.6089 0 0 0 -2.499,-6.15771 8.94767,8.94767 0 0 0 -6.3704,-2.67480990727 h -0.05809 A 8.90341,8.90341 0 0 0 49.052386,8.7102633 l -0.02087,2.1301897 a 10.49985,10.49985 0 0 0 -5.54742,-1.5057197 h -0.05663 a 8.90369,8.90369 0 0 0 -8.971,8.7114297 l -0.09733,10.54425 a 8.79007,8.79007 0 0 0 -4.66641,-1.36163 h -0.05663 a 8.90345,8.90345 0 0 0 -8.97047,8.7124 l -0.24556,25.1123 -0.083,0.41406 c -0.0498,0.43994 -1.19362,10.86963 1.0374,19.63037 l 0.46463,1.25035 a 37.78566,37.78566 0 0 1 2.65276,-6.24146 66.28645,66.28645 0 0 1 -0.19207,-14.08066 z"
     id="path4"
     inkscape:connector-curvature="0"
     style="fill:#ffffff" />
  <path
     d="m 109.57759,45.159933 a 8.74061,8.74061 0 0 0 -6.61838,-2.24023 c -3.68875,0.24658 -7.426334,2.45557 -10.583934,6.29639 l -11.03429,14.83562 a 38.30878,38.30878 0 0 1 3.02671,2.631 l 11.1554,-15.00179 c 2.355,-2.86133 5.162604,-4.6001 7.702644,-4.77 a 4.71463,4.71463 0 0 1 3.6292,1.1792 c 2.645,2.45947 0.49991,8.68213 -5.73768,16.64453 a 38.38142,38.38142 0 0 0 -7.566504,15.88293 37.68821,37.68821 0 0 1 2.11843,8.525 38.4582,38.4582 0 0 0 1.08024,-4.2868 c 1.242,-6.68848 2.869574,-11.7207 7.516154,-17.6543 7.99952,-10.21196 9.83652,-17.83354 5.31201,-22.04155 z"
     id="path6"
     inkscape:connector-curvature="0"
     style="fill:#ffffff" />
  <path
     d="m 57.997506,60.000263 a 34,34 0 1 0 33.99359,34 33.99678,33.99678 0 0 0 -33.99359,-34 z m 0,64.000007 A 29.98053,29.98053 0 0 1 33.303696,76.998263 l 46.90591,37.140817 a 29.92138,29.92138 0 0 1 -22.2121,9.86119 z m 24.69381,-12.998 -46.90591,-37.140857 a 29.98008,29.98008 0 0 1 46.90591,37.140857 z"
     id="path8"
     inkscape:connector-curvature="0"
     style="fill:#ffffff" />
</svg>
