<?xml version="1.0" encoding="UTF-8" standalone="no"?>
<svg
   xmlns:dc="http://purl.org/dc/elements/1.1/"
   xmlns:cc="http://creativecommons.org/ns#"
   xmlns:rdf="http://www.w3.org/1999/02/22-rdf-syntax-ns#"
   xmlns:svg="http://www.w3.org/2000/svg"
   xmlns="http://www.w3.org/2000/svg"
   xmlns:sodipodi="http://sodipodi.sourceforge.net/DTD/sodipodi-0.dtd"
   xmlns:inkscape="http://www.inkscape.org/namespaces/inkscape"
   version="1.1"
   x="0px"
   y="0px"
   viewBox="0 0 80.667 80.667"
   xml:space="preserve"
   id="svg48"
   sodipodi:docname="heap_icon.svg"
   width="80.667"
   height="80.667"
   inkscape:version="0.92.5 (2060ec1f9f, 2020-04-08)"><metadata
     id="metadata54"><rdf:RDF><cc:Work
         rdf:about=""><dc:format>image/svg+xml</dc:format><dc:type
           rdf:resource="http://purl.org/dc/dcmitype/StillImage" /><dc:title></dc:title></cc:Work></rdf:RDF></metadata><defs
     id="defs52" /><sodipodi:namedview
     pagecolor="#ffffff"
     bordercolor="#666666"
     borderopacity="1"
     objecttolerance="10"
     gridtolerance="10"
     guidetolerance="10"
     inkscape:pageopacity="0"
     inkscape:pageshadow="2"
     inkscape:window-width="1920"
     inkscape:window-height="1016"
     id="namedview50"
     showgrid="false"
     fit-margin-top="0"
     fit-margin-left="0"
     fit-margin-right="0"
     fit-margin-bottom="0"
     inkscape:zoom="1.888"
     inkscape:cx="40.331"
     inkscape:cy="22.793"
     inkscape:window-x="0"
     inkscape:window-y="27"
     inkscape:window-maximized="1"
     inkscape:current-layer="svg48" /><path
     d="m 78.763,32.652001 h 0.222 c 0.928,0 1.68,-0.752 1.68,-1.681 v -16.805 c 0,-0.929 -0.752,-1.68 -1.68,-1.68 0,-3.708 -3.016,-6.723 -6.723,-6.723 -2.032,0 -3.853,0.91 -5.086,2.34 -1.272,-2.389 -3.787,-4.021 -6.677,-4.021 -2.89,0 -5.405,1.631 -6.677,4.021 -1.234,-1.43 -3.054,-2.34 -5.086,-2.34 -2.319,0 -4.368,1.18 -5.576,2.972 -1.007,-0.806 -2.281,-1.291 -3.667,-1.291 -0.93,0 -1.807,0.223 -2.59,0.609 -1.28,-2.362 -3.782,-3.97 -6.653,-3.97 -2.89,0 -5.405,1.631 -6.677,4.021 -1.234,-1.43 -3.054,-2.34 -5.086,-2.34 -2.009,0 -3.809,0.89 -5.042,2.291 -1.233,-1.401 -3.033,-2.291 -5.042,-2.291 -3.707,0 -6.722,3.015 -6.722,6.723 0,1.698 0.638,3.247 1.681,4.432 v 7.942 c -1.043,1.184 -1.681,2.733 -1.681,4.431 -0.928,0 -1.681,0.752 -1.681,1.681 v 20.166 c 0,0.93 0.753,1.681 1.681,1.681 H 2.59 c 0.222,0.383 0.481,0.74 0.772,1.071 v 9.623 c -1.043,1.184 -1.681,2.733 -1.681,4.431 0,3.707 3.016,6.722 6.722,6.722 2.378,0 4.467,-1.244 5.662,-3.113 1.377,1.883 3.595,3.113 6.102,3.113 2.506,0 4.725,-1.23 6.102,-3.113 1.196,1.869 3.284,3.113 5.662,3.113 2.319,0 4.367,-1.18 5.576,-2.972 1.006,0.806 2.281,1.291 3.667,1.291 1.266,0 2.437,-0.406 3.398,-1.09 1.388,1.69 3.492,2.77 5.845,2.77 2.506,0 4.725,-1.23 6.102,-3.113 1.196,1.869 3.284,3.113 5.662,3.113 2.009,0 3.809,-0.889 5.042,-2.29 1.233,1.401 3.033,2.29 5.041,2.29 3.126,0 5.752,-2.147 6.501,-5.041 h 0.222 c 0.928,0 1.68,-0.752 1.68,-1.681 v -16.806 c 0,-0.928 -0.752,-1.68 -1.68,-1.68 h -1.681 v -14.055 c 0.683,-0.779 1.189,-1.716 1.457,-2.751 z m -4.821,12.374 c -1.233,-1.401 -3.033,-2.29 -5.042,-2.29 -2.008,0 -3.809,0.889 -5.041,2.29 -1.233,-1.401 -3.034,-2.29 -5.042,-2.29 -1.516,0 -2.911,0.51 -4.036,1.359 -1.38,-1.841 -3.573,-3.04 -6.047,-3.04 -2.148,0 -4.084,0.904 -5.462,2.346 -1.378,-1.442 -3.314,-2.346 -5.462,-2.346 -2.667,0 -5.011,1.391 -6.357,3.483 -1.201,-1.115 -2.803,-1.802 -4.566,-1.802 -1.648,0 -3.157,0.598 -4.327,1.586 -1.177,-1.954 -3.313,-3.267 -5.756,-3.267 -2.102,0 -3.98,0.971 -5.214,2.487 -0.949,-0.514 -2.036,-0.806 -3.189,-0.806 -2.008,0 -3.809,0.889 -5.041,2.29 v -11.304 c 1.233,1.401 3.033,2.29 5.041,2.29 2.032,0 3.853,-0.91 5.087,-2.34 1.272,2.389 3.787,4.021 6.677,4.021 2.506,0 4.725,-1.23 6.102,-3.113 1.196,1.868 3.284,3.113 5.662,3.113 1.883,0 3.585,-0.78 4.807,-2.032 1.079,1.242 2.666,2.032 4.436,2.032 1.69,0 3.211,-0.721 4.285,-1.866 1.329,1.158 3.06,1.866 4.958,1.866 2.506,0 4.725,-1.23 6.102,-3.113 1.196,1.868 3.284,3.113 5.662,3.113 2.009,0 3.809,-0.889 5.042,-2.29 1.233,1.401 3.033,2.29 5.041,2.29 0.581,0 1.142,-0.082 1.681,-0.221 v 7.554 z m 3.361,18.486 c -1.233,-1.401 -3.033,-2.291 -5.042,-2.291 -2.008,0 -3.809,0.89 -5.041,2.291 -1.233,-1.401 -3.033,-2.291 -5.042,-2.291 -2.032,0 -3.853,0.91 -5.086,2.34 -1.273,-2.389 -3.787,-4.021 -6.678,-4.021 -2.352,0 -4.457,1.081 -5.845,2.77 -0.961,-0.683 -2.132,-1.09 -3.398,-1.09 -1.77,0 -3.357,0.79 -4.436,2.032 -1.222,-1.252 -2.924,-2.032 -4.807,-2.032 -2.032,0 -3.853,0.91 -5.086,2.34 -1.273,-2.389 -3.787,-4.021 -6.678,-4.021 -2.89,0 -5.405,1.632 -6.677,4.021 -1.234,-1.43 -3.055,-2.34 -5.087,-2.34 -0.581,0 -1.142,0.082 -1.68,0.221 v -5.484 c 0.538,0.139 1.1,0.221 1.68,0.221 2.102,0 3.98,-0.971 5.214,-2.486 0.95,0.514 2.035,0.806 3.189,0.806 1.648,0 3.157,-0.598 4.328,-1.586 1.177,1.954 3.313,3.266 5.755,3.266 2.135,0 4.036,-1.003 5.269,-2.559 1.386,1.565 3.404,2.559 5.655,2.559 2.148,0 4.084,-0.904 5.462,-2.346 1.378,1.442 3.314,2.346 5.462,2.346 2.022,0 3.857,-0.802 5.215,-2.099 1.225,1.29 2.952,2.099 4.868,2.099 2.008,0 3.809,-0.889 5.042,-2.29 1.232,1.401 3.033,2.29 5.041,2.29 2.482,0 4.649,-1.355 5.813,-3.361 h 0.909 1.681 z m -2.135,6.112 c -0.583,1.003 -1.665,1.68 -2.907,1.68 -1.241,0 -2.324,-0.678 -2.906,-1.68 -0.287,-0.496 -0.455,-1.068 -0.455,-1.681 0,-0.612 0.168,-1.185 0.455,-1.681 0.582,-1.003 1.665,-1.68 2.906,-1.68 1.241,0 2.324,0.678 2.907,1.68 0.287,0.495 0.454,1.069 0.454,1.681 0.001,0.613 -0.167,1.186 -0.454,1.681 z m -15.896,0 c -0.288,-0.496 -0.455,-1.068 -0.455,-1.681 0,-0.612 0.167,-1.185 0.455,-1.681 0.582,-1.003 1.665,-1.68 2.906,-1.68 1.241,0 2.324,0.678 2.906,1.68 0.288,0.495 0.455,1.069 0.455,1.681 0,0.613 -0.167,1.185 -0.455,1.681 -0.582,1.003 -1.665,1.68 -2.906,1.68 -1.24,0 -2.324,-0.677 -2.906,-1.68 z m -8.858,1.68 c -1.37,0 -2.586,-0.662 -3.353,-1.68 -0.131,-0.174 -0.251,-0.356 -0.355,-0.55 0.129,-0.363 0.224,-0.74 0.28,-1.131 0.04,-0.275 0.067,-0.554 0.067,-0.84 0,-0.286 -0.028,-0.565 -0.067,-0.84 -0.056,-0.391 -0.151,-0.768 -0.28,-1.13 0.707,-1.326 2.104,-2.23 3.708,-2.23 2.029,0 3.726,1.445 4.117,3.361 0.055,0.272 0.085,0.553 0.085,0.84 0,0.288 -0.029,0.569 -0.085,0.84 -0.127,0.622 -0.394,1.191 -0.763,1.681 -0.768,1.017 -1.983,1.679 -3.354,1.679 z m -18.486,0 c -1.241,0 -2.324,-0.678 -2.906,-1.68 -0.288,-0.496 -0.455,-1.068 -0.455,-1.681 0,-0.612 0.167,-1.185 0.455,-1.681 0.582,-1.003 1.665,-1.68 2.906,-1.68 1.241,0 2.324,0.678 2.906,1.68 0.288,0.495 0.455,1.069 0.455,1.681 0,0.613 -0.167,1.185 -0.455,1.681 -0.581,1.003 -1.665,1.68 -2.906,1.68 z m -11.764,0 c -1.37,0 -2.586,-0.662 -3.353,-1.68 -0.368,-0.489 -0.636,-1.059 -0.763,-1.681 -0.055,-0.272 -0.085,-0.552 -0.085,-0.84 0,-0.288 0.03,-0.569 0.085,-0.84 0.391,-1.916 2.088,-3.361 4.117,-3.361 2.029,0 3.726,1.445 4.117,3.361 0.056,0.272 0.085,0.553 0.085,0.84 0,0.288 -0.029,0.569 -0.085,0.84 -0.126,0.622 -0.394,1.191 -0.763,1.681 -0.769,1.018 -1.984,1.68 -3.355,1.68 z m -11.764,0 c -1.241,0 -2.324,-0.678 -2.906,-1.68 -0.288,-0.496 -0.455,-1.068 -0.455,-1.681 0,-1.24 0.678,-2.324 1.681,-2.906 0.495,-0.288 1.068,-0.455 1.68,-0.455 1.241,0 2.324,0.678 2.906,1.68 0.288,0.495 0.455,1.069 0.455,1.681 0,0.613 -0.167,1.185 -0.455,1.681 -0.581,1.003 -1.664,1.68 -2.906,1.68 z m 25.209,-22.687 c 0,-2.317 1.885,-4.201 4.201,-4.201 1.566,0 2.933,0.863 3.655,2.137 0.346,0.611 0.546,1.314 0.546,2.065 0,0.288 -0.029,0.569 -0.085,0.84 -0.089,0.437 -0.248,0.848 -0.461,1.224 -0.09,0.16 -0.192,0.311 -0.302,0.456 -0.767,1.019 -1.983,1.681 -3.353,1.681 -1.37,0 -2.586,-0.662 -3.353,-1.681 -0.369,-0.489 -0.637,-1.058 -0.763,-1.68 -0.056,-0.272 -0.085,-0.553 -0.085,-0.841 z m 28.115,2.521 c -0.582,1.003 -1.665,1.681 -2.906,1.681 -1.241,0 -2.324,-0.678 -2.906,-1.681 -0.011,-0.019 -0.024,-0.037 -0.035,-0.057 -0.267,-0.482 -0.42,-1.035 -0.42,-1.624 0,-0.787 0.274,-1.51 0.729,-2.084 0.616,-0.777 1.566,-1.277 2.632,-1.277 1.854,0 3.361,1.508 3.361,3.361 -0.001,0.613 -0.168,1.186 -0.455,1.681 z m -9.629,-1.681 c 0,0.496 0.058,0.979 0.16,1.444 -0.053,0.081 -0.11,0.159 -0.168,0.236 -0.767,1.019 -1.983,1.681 -3.353,1.681 -1.371,0 -2.586,-0.662 -3.353,-1.681 -0.11,-0.145 -0.211,-0.296 -0.302,-0.456 0.113,-0.396 0.198,-0.804 0.244,-1.224 0.031,-0.276 0.049,-0.556 0.049,-0.84 0,-0.716 -0.107,-1.407 -0.294,-2.065 0.723,-1.274 2.089,-2.137 3.655,-2.137 1.723,0 3.205,1.043 3.852,2.53 -0.313,0.778 -0.49,1.624 -0.49,2.512 z m -22.302,1.681 c -0.583,1.003 -1.665,1.681 -2.907,1.681 -1.241,0 -2.324,-0.678 -2.906,-1.681 -0.287,-0.495 -0.455,-1.068 -0.455,-1.68 0,-1.853 1.507,-3.361 3.361,-3.361 1.854,0 3.361,1.508 3.361,3.361 0.001,0.612 -0.167,1.185 -0.454,1.68 z m -10.083,-1.681 c -0.582,1.003 -1.665,1.68 -2.906,1.68 -0.657,0 -1.269,-0.192 -1.788,-0.52 -0.46,-0.291 -0.844,-0.689 -1.118,-1.16 -0.288,-0.495 -0.455,-1.068 -0.455,-1.68 0,-0.72 0.23,-1.387 0.617,-1.934 0.609,-0.861 1.61,-1.427 2.744,-1.427 1.853,0 3.361,1.509 3.361,3.362 -10e-4,0.611 -0.168,1.184 -0.455,1.679 z m -9.408,0 c 0.154,0.596 0.386,1.16 0.688,1.68 0.05,0.086 0.101,0.171 0.155,0.254 -0.609,0.861 -1.611,1.427 -2.744,1.427 -1.241,0 -2.324,-0.678 -2.906,-1.681 -0.288,-0.495 -0.455,-1.068 -0.455,-1.68 0,-1.853 1.508,-3.361 3.361,-3.361 0.658,0 1.269,0.193 1.788,0.52 -0.066,0.377 -0.107,0.764 -0.107,1.16 -0.001,0.582 0.081,1.144 0.22,1.681 z m 61.505,1.681 c -0.582,1.003 -1.665,1.681 -2.906,1.681 -1.241,0 -2.324,-0.678 -2.906,-1.681 -0.288,-0.495 -0.455,-1.068 -0.455,-1.68 0,-1.853 1.508,-3.361 3.361,-3.361 1.854,0 3.361,1.508 3.361,3.361 -0.001,0.612 -0.168,1.185 -0.455,1.68 z m -33.001,16.806 c -0.094,-0.264 -0.155,-0.544 -0.155,-0.84 0,-0.296 0.061,-0.576 0.155,-0.84 0.348,-0.976 1.272,-1.68 2.366,-1.68 0.746,0 1.411,0.332 1.873,0.85 0.215,0.241 0.382,0.521 0.493,0.831 0.095,0.264 0.155,0.544 0.155,0.84 0,0.296 -0.061,0.576 -0.155,0.84 -0.111,0.31 -0.278,0.59 -0.493,0.831 -0.462,0.517 -1.126,0.85 -1.873,0.85 -1.095,-0.002 -2.019,-0.706 -2.366,-1.682 z M 8.4,9.124001 c 1.854,0 3.361,1.508 3.361,3.361 0,0.612 -0.167,1.185 -0.455,1.68 -0.582,1.003 -1.665,1.681 -2.906,1.681 -1.241,0 -2.324,-0.678 -2.906,-1.681 -0.288,-0.495 -0.455,-1.068 -0.455,-1.68 0,-1.853 1.508,-3.361 3.361,-3.361 z m 10.084,0 c 1.854,0 3.361,1.508 3.361,3.361 0,0.612 -0.168,1.185 -0.455,1.68 -0.583,1.003 -1.665,1.681 -2.906,1.681 -1.241,0 -2.324,-0.678 -2.907,-1.681 -0.287,-0.495 -0.455,-1.068 -0.455,-1.68 10e-4,-1.853 1.508,-3.361 3.362,-3.361 z m 11.764,-1.681 c 1.942,0 3.575,1.325 4.055,3.117 -0.315,0.589 -0.528,1.238 -0.626,1.924 -0.04,0.275 -0.067,0.554 -0.067,0.84 0,0.257 0.022,0.509 0.054,0.757 -0.02,0.029 -0.041,0.056 -0.062,0.083 -0.767,1.019 -1.983,1.681 -3.353,1.681 -1.37,0 -2.586,-0.662 -3.353,-1.681 -0.369,-0.489 -0.637,-1.058 -0.763,-1.68 -0.056,-0.272 -0.085,-0.553 -0.085,-0.84 -10e-4,-2.316 1.883,-4.201 4.2,-4.201 z m 9.243,3.362 c 1.094,0 2.018,0.705 2.366,1.681 0.094,0.264 0.154,0.544 0.154,0.84 0,0.296 -0.061,0.576 -0.154,0.84 -0.348,0.976 -1.272,1.681 -2.366,1.681 -0.976,0 -1.814,-0.563 -2.233,-1.377 -0.051,-0.098 -0.096,-0.198 -0.133,-0.304 -0.094,-0.264 -0.155,-0.544 -0.155,-0.84 0,-0.296 0.061,-0.576 0.155,-0.84 0.141,-0.394 0.373,-0.741 0.676,-1.017 0.448,-0.409 1.038,-0.664 1.69,-0.664 z m 12.604,1.68 c 0,0.612 -0.168,1.185 -0.455,1.68 -0.583,1.003 -1.665,1.681 -2.906,1.681 -1.241,0 -2.324,-0.678 -2.907,-1.681 -0.287,-0.495 -0.455,-1.068 -0.455,-1.68 0,-1.853 1.507,-3.361 3.362,-3.361 1.854,0 3.361,1.508 3.361,3.361 z m 8.403,-5.042 c 2.317,0 4.201,1.884 4.201,4.201 0,0.288 -0.029,0.569 -0.085,0.84 -0.127,0.622 -0.394,1.191 -0.763,1.68 -0.767,1.019 -1.983,1.681 -3.353,1.681 -1.37,0 -2.586,-0.662 -3.353,-1.681 -0.369,-0.489 -0.637,-1.058 -0.763,-1.68 -0.056,-0.272 -0.085,-0.553 -0.085,-0.84 0,-2.316 1.885,-4.201 4.201,-4.201 z m 11.763,1.681 c 1.854,0 3.361,1.508 3.361,3.361 0,0.612 -0.167,1.185 -0.454,1.68 -0.583,1.003 -1.665,1.681 -2.907,1.681 -1.241,0 -2.324,-0.678 -2.906,-1.681 -0.287,-0.495 -0.455,-1.068 -0.455,-1.68 10e-4,-1.853 1.508,-3.361 3.361,-3.361 z m 5.042,17.416 c -1.233,-1.401 -3.033,-2.29 -5.042,-2.29 -2.008,0 -3.809,0.889 -5.041,2.29 -1.233,-1.401 -3.033,-2.29 -5.042,-2.29 -2.032,0 -3.853,0.91 -5.086,2.34 -1.273,-2.389 -3.787,-4.021 -6.678,-4.021 -2.87,0 -5.372,1.608 -6.653,3.97 -0.783,-0.386 -1.66,-0.609 -2.59,-0.609 -1.387,0 -2.661,0.486 -3.667,1.291 -1.209,-1.791 -3.257,-2.972 -5.576,-2.972 -2.032,0 -3.853,0.91 -5.086,2.34 -1.273,-2.389 -3.787,-4.021 -6.678,-4.021 -2.506,0 -4.725,1.23 -6.102,3.113 -1.195,-1.869 -3.284,-3.113 -5.662,-3.113 -0.581,0 -1.142,0.082 -1.68,0.221 v -3.803 c 0.538,0.139 1.1,0.221 1.68,0.221 2.009,0 3.809,-0.889 5.042,-2.29 1.233,1.401 3.033,2.29 5.042,2.29 2.378,0 4.467,-1.245 5.662,-3.113 1.377,1.883 3.596,3.113 6.102,3.113 1.897,0 3.629,-0.707 4.958,-1.866 1.074,1.145 2.595,1.866 4.285,1.866 1.77,0 3.357,-0.79 4.436,-2.032 1.222,1.251 2.924,2.032 4.807,2.032 2.378,0 4.467,-1.245 5.662,-3.113 1.377,1.883 3.596,3.113 6.102,3.113 2.506,0 4.725,-1.23 6.102,-3.113 1.195,1.868 3.284,3.113 5.662,3.113 2.009,0 3.809,-0.889 5.042,-2.29 v 9.623 z m -2.135,6.112 c -0.295,0.508 -0.718,0.931 -1.226,1.225 -0.495,0.288 -1.068,0.455 -1.681,0.455 -1.241,0 -2.324,-0.678 -2.906,-1.68 -0.287,-0.496 -0.455,-1.068 -0.455,-1.681 0,-0.612 0.168,-1.185 0.455,-1.681 0.582,-1.003 1.665,-1.68 2.906,-1.68 1.241,0 2.324,0.678 2.907,1.68 0.287,0.496 0.454,1.069 0.454,1.681 0.001,0.613 -0.167,1.186 -0.454,1.681 z m -10.083,0 c -0.582,1.003 -1.665,1.68 -2.906,1.68 -1.241,0 -2.324,-0.678 -2.906,-1.68 -0.288,-0.496 -0.455,-1.068 -0.455,-1.681 0,-0.612 0.167,-1.185 0.455,-1.681 0.582,-1.003 1.665,-1.68 2.906,-1.68 1.241,0 2.324,0.678 2.906,1.68 0.288,0.496 0.455,1.069 0.455,1.681 -0.001,0.613 -0.168,1.186 -0.455,1.681 z m -21.68,0.304 c -0.419,0.813 -1.257,1.376 -2.233,1.376 -1.094,0 -2.018,-0.705 -2.366,-1.68 -0.094,-0.265 -0.155,-0.544 -0.155,-0.84 0,-0.297 0.061,-0.576 0.155,-0.84 0.348,-0.976 1.272,-1.681 2.366,-1.681 0.652,0 1.241,0.256 1.689,0.663 0.304,0.276 0.536,0.623 0.676,1.018 0.095,0.264 0.155,0.544 0.155,0.84 0,0.296 -0.061,0.576 -0.155,0.84 -0.037,0.105 -0.082,0.206 -0.132,0.304 z m -27.357,-1.985 c -0.055,-0.272 -0.085,-0.553 -0.085,-0.84 0,-0.288 0.03,-0.569 0.085,-0.84 0.391,-1.916 2.088,-3.361 4.117,-3.361 2.029,0 3.726,1.445 4.117,3.361 0.056,0.272 0.085,0.553 0.085,0.84 0,0.288 -0.029,0.569 -0.085,0.84 -0.126,0.622 -0.394,1.191 -0.763,1.681 -0.767,1.018 -1.983,1.68 -3.353,1.68 -1.37,0 -2.586,-0.662 -3.353,-1.68 -0.37,-0.489 -0.638,-1.059 -0.765,-1.681 z m 12.519,0 c 0,-0.612 0.167,-1.185 0.455,-1.681 0.582,-1.003 1.665,-1.68 2.906,-1.68 1.241,0 2.324,0.678 2.906,1.68 0.288,0.496 0.455,1.069 0.455,1.681 0,0.613 -0.167,1.185 -0.455,1.681 -0.582,1.003 -1.665,1.68 -2.906,1.68 -1.241,0 -2.324,-0.678 -2.906,-1.68 -0.288,-0.495 -0.455,-1.068 -0.455,-1.681 z m 18.432,1.598 c 0.033,-0.249 0.055,-0.5 0.055,-0.757 0,-0.286 -0.028,-0.565 -0.067,-0.84 -0.086,-0.594 -0.259,-1.158 -0.509,-1.681 -0.038,-0.081 -0.075,-0.164 -0.118,-0.244 0.48,-1.792 2.114,-3.117 4.055,-3.117 2.029,0 3.726,1.445 4.117,3.361 0.055,0.272 0.085,0.553 0.085,0.84 0,0.288 -0.029,0.569 -0.085,0.84 -0.127,0.622 -0.394,1.191 -0.763,1.681 -0.767,1.018 -1.983,1.68 -3.353,1.68 -1.37,0 -2.586,-0.662 -3.353,-1.68 -0.023,-0.028 -0.044,-0.055 -0.064,-0.083 z m -40.279,-6.185 c 0.495,-0.287 1.068,-0.455 1.68,-0.455 1.854,0 3.361,1.509 3.361,3.361 0,0.613 -0.167,1.186 -0.455,1.681 -0.582,1.003 -1.665,1.681 -2.906,1.681 -1.241,0 -2.324,-0.678 -2.906,-1.681 -0.288,-0.495 -0.455,-1.068 -0.455,-1.681 0,-1.24 0.678,-2.323 1.681,-2.906 z"
     id="path42"
     inkscape:connector-curvature="0"
     style="fill:#ffffff" /></svg>