<?xml version="1.0" encoding="UTF-8" standalone="no"?>
<svg
   xmlns:dc="http://purl.org/dc/elements/1.1/"
   xmlns:cc="http://creativecommons.org/ns#"
   xmlns:rdf="http://www.w3.org/1999/02/22-rdf-syntax-ns#"
   xmlns:svg="http://www.w3.org/2000/svg"
   xmlns="http://www.w3.org/2000/svg"
   xmlns:sodipodi="http://sodipodi.sourceforge.net/DTD/sodipodi-0.dtd"
   xmlns:inkscape="http://www.inkscape.org/namespaces/inkscape"
   version="1.1"
   x="0px"
   y="0px"
   viewBox="0 0 94.953773 94.875"
   xml:space="preserve"
   id="svg32"
   sodipodi:docname="normal_run.svg"
   width="94.953773"
   height="94.875"
   inkscape:version="0.92.5 (2060ec1f9f, 2020-04-08)"><metadata
     id="metadata38"><rdf:RDF><cc:Work
         rdf:about=""><dc:format>image/svg+xml</dc:format><dc:type
           rdf:resource="http://purl.org/dc/dcmitype/StillImage" /><dc:title></dc:title></cc:Work></rdf:RDF></metadata><defs
     id="defs36" /><sodipodi:namedview
     pagecolor="#ffffff"
     bordercolor="#666666"
     borderopacity="1"
     objecttolerance="10"
     gridtolerance="10"
     guidetolerance="10"
     inkscape:pageopacity="0"
     inkscape:pageshadow="2"
     inkscape:window-width="1920"
     inkscape:window-height="1016"
     id="namedview34"
     showgrid="false"
     fit-margin-top="0"
     fit-margin-left="0"
     fit-margin-right="0"
     fit-margin-bottom="0"
     inkscape:zoom="2.6700352"
     inkscape:cx="29.318657"
     inkscape:cy="46.106239"
     inkscape:window-x="0"
     inkscape:window-y="27"
     inkscape:window-maximized="1"
     inkscape:current-layer="svg32" /><path
     inkscape:connector-curvature="0"
     id="path12"
     d="m 9.875,37.275 c 1.7,0 3.1,-1.4 3.1,-3.1 v -8.9 c 0,-6.7 5.5,-12.2 12.2,-12.2 h 6.6 v 4.3 c 0,0.9 0.5,1.7 1.3,2.1 0.4,0.2 0.8,0.3 1.2,0.3 0.4,0 0.9,-0.1 1.3,-0.4 l 12.3,-7.4 c 0.7,-0.4 1.2,-1.2 1.2,-2.1 0,-0.9 -0.5,-1.7 -1.2,-2.1 l -12.3,-7.4 c -0.8,-0.5 -1.7,-0.5 -2.5,0 -0.8,0.5 -1.2,1.2 -1.2,2.1 v 4.5 h -6.6 c -10.1,0 -18.4,8.2 -18.4,18.4 v 8.9 c -0.1,1.6 1.3,3 3,3 z"
     style="fill:#ffffff" /><path
     inkscape:connector-curvature="0"
     id="path14"
     d="m 34.175,81.975 h -8.9 c -6.7,0 -12.2,-5.5 -12.2,-12.2 v -6.6 h 4.3 c 0.9,0 1.7,-0.5 2.1,-1.3 0.4,-0.8 0.4,-1.7 0,-2.5 l -7.4,-12.3 c -0.9,-1.5 -3.3,-1.5 -4.2,0 l -7.5,12.3 c -0.5,0.8 -0.5,1.7 0,2.5 0.4,0.8 1.3,1.3 2.1,1.3 h 4.5 v 6.6 c 0,10.1 8.2,18.4 18.4,18.4 h 8.9 c 1.7,0 3.1,-1.4 3.1,-3.1 0,-1.7 -1.5,-3.1 -3.2,-3.1 z"
     style="fill:#ffffff" /><path
     inkscape:connector-curvature="0"
     id="path16"
     d="m 85.075,57.675 c -1.7,0 -3.1,1.4 -3.1,3.1 v 8.9 c 0,6.7 -5.5,12.2 -12.2,12.2 h -6.6 v -4.3 c 0,-0.9 -0.5,-1.7 -1.3,-2.1 -0.8,-0.4 -1.7,-0.4 -2.5,0 l -12.3,7.4 c -0.7,0.4 -1.2,1.2 -1.2,2.1 0,0.9 0.5,1.7 1.2,2.1 l 12.3,7.4 c 0.4,0.2 0.8,0.4 1.3,0.4 0.4,0 0.8,-0.1 1.2,-0.3 0.8,-0.4 1.3,-1.3 1.3,-2.1 v -4.5 h 6.6 c 10.1,0 18.4,-8.2 18.4,-18.4 v -8.9 c 0,-1.6 -1.4,-3 -3.1,-3 z"
     style="fill:#ffffff" /><path
     inkscape:connector-curvature="0"
     id="path18"
     d="m 94.675,33.075 c -0.4,-0.8 -1.3,-1.3 -2.1,-1.3 h -4.5 v -6.6 c 0,-10.1 -8.2,-18.4 -18.4,-18.4 h -8.9 c -1.7,0 -3.1,1.4 -3.1,3.1 0,1.7 1.4,3.1 3.1,3.1 h 8.9 c 6.7,0 12.2,5.5 12.2,12.2 v 6.6 h -4.3 c -0.9,0 -1.7,0.5 -2.1,1.3 -0.4,0.8 -0.4,1.7 0,2.5 l 7.4,12.3 c 0.4,0.7 1.2,1.2 2.1,1.2 0.9,0 1.7,-0.5 2.1,-1.2 l 7.4,-12.3 c 0.6,-0.8 0.6,-1.7 0.2,-2.5 z"
     style="fill:#ffffff" /><path
     inkscape:connector-curvature="0"
     id="path20"
     d="m 51.975,70.075 0.6,-6 c 0,-0.2 0.2,-0.4 0.4,-0.5 0.7,-0.2 1.3,-0.5 2,-0.8 0.2,-0.1 0.4,-0.1 0.6,0.1 l 4.7,3.8 c 0.8,0.6 1.9,0.6 2.5,-0.1 l 3.7,-3.7 c 0.7,-0.7 0.7,-1.8 0.1,-2.5 l -3.8,-4.7 c -0.1,-0.2 -0.2,-0.4 -0.1,-0.6 0.3,-0.6 0.6,-1.3 0.8,-2 0.1,-0.2 0.3,-0.4 0.5,-0.4 l 6,-0.6 c 1,-0.1 1.7,-0.9 1.7,-1.9 v -5.2 c 0,-1 -0.7,-1.8 -1.7,-1.9 l -6,-0.6 c -0.2,0 -0.4,-0.2 -0.5,-0.4 -0.2,-0.7 -0.5,-1.3 -0.8,-2 -0.1,-0.2 -0.1,-0.4 0.1,-0.6 l 3.8,-4.7 c 0.6,-0.8 0.6,-1.9 -0.1,-2.5 l -3.7,-3.8 c -0.7,-0.7 -1.8,-0.7 -2.5,-0.1 l -4.7,3.8 c -0.2,0.1 -0.4,0.2 -0.6,0.1 -0.6,-0.3 -1.3,-0.6 -2,-0.8 -0.2,-0.1 -0.4,-0.3 -0.4,-0.5 l -0.6,-6 c -0.1,-1 -0.9,-1.7 -1.9,-1.7 h -5.2 c -1,0 -1.8,0.7 -1.9,1.7 l -0.6,6 c 0,0.2 -0.2,0.4 -0.4,0.5 -0.7,0.2 -1.3,0.5 -2,0.8 -0.2,0.1 -0.4,0.1 -0.6,-0.1 l -4.7,-3.8 c -0.8,-0.6 -1.9,-0.6 -2.5,0.1 l -3.7,3.7 c -0.7,0.7 -0.7,1.8 -0.1,2.5 l 3.8,4.7 c 0.1,0.2 0.2,0.4 0.1,0.6 -0.3,0.6 -0.6,1.3 -0.8,2 -0.1,0.2 -0.3,0.4 -0.5,0.4 l -6,0.6 c -1,0.1 -1.7,0.9 -1.7,1.9 v 5.2 c 0,1 0.7,1.8 1.7,1.9 l 6,0.6 c 0.2,0 0.4,0.2 0.5,0.4 0.2,0.7 0.5,1.3 0.8,2 0.1,0.2 0.1,0.4 -0.1,0.6 l -3.8,4.7 c -0.6,0.8 -0.6,1.9 0.1,2.5 l 3.7,3.7 c 0.7,0.7 1.8,0.7 2.5,0.1 l 4.7,-3.8 c 0.2,-0.1 0.4,-0.2 0.6,-0.1 0.6,0.3 1.3,0.6 2,0.8 0.2,0.1 0.4,0.3 0.4,0.5 l 0.6,6 c 0.1,1 0.9,1.7 1.9,1.7 h 5.2 c 1,0.1 1.8,-0.6 1.9,-1.6 z m -13.8,-22.6 c 0,-5.2 4.2,-9.3 9.3,-9.3 5.2,0 9.3,4.2 9.3,9.3 0,5.1 -4.2,9.3 -9.3,9.3 -5.2,0 -9.3,-4.1 -9.3,-9.3 z"
     style="fill:#ffffff" /></svg>