<?xml version="1.0" encoding="UTF-8" standalone="no"?>
<svg
   xmlns:dc="http://purl.org/dc/elements/1.1/"
   xmlns:cc="http://creativecommons.org/ns#"
   xmlns:rdf="http://www.w3.org/1999/02/22-rdf-syntax-ns#"
   xmlns:svg="http://www.w3.org/2000/svg"
   xmlns="http://www.w3.org/2000/svg"
   xmlns:sodipodi="http://sodipodi.sourceforge.net/DTD/sodipodi-0.dtd"
   xmlns:inkscape="http://www.inkscape.org/namespaces/inkscape"
   version="1.1"
   x="0px"
   y="0px"
   viewBox="0 0 91.300003 91.199997"
   enable-background="new 0 0 100 100"
   xml:space="preserve"
   id="svg34"
   sodipodi:docname="stack_icon.svg"
   width="91.300003"
   height="91.199997"
   inkscape:version="0.92.5 (2060ec1f9f, 2020-04-08)"><metadata
     id="metadata40"><rdf:RDF><cc:Work
         rdf:about=""><dc:format>image/svg+xml</dc:format><dc:type
           rdf:resource="http://purl.org/dc/dcmitype/StillImage" /><dc:title></dc:title></cc:Work></rdf:RDF></metadata><defs
     id="defs38" /><sodipodi:namedview
     pagecolor="#ffffff"
     bordercolor="#666666"
     borderopacity="1"
     objecttolerance="10"
     gridtolerance="10"
     guidetolerance="10"
     inkscape:pageopacity="0"
     inkscape:pageshadow="2"
     inkscape:window-width="1920"
     inkscape:window-height="1016"
     id="namedview36"
     showgrid="false"
     fit-margin-top="0"
     fit-margin-left="0"
     fit-margin-right="0"
     fit-margin-bottom="0"
     inkscape:zoom="1.888"
     inkscape:cx="45"
     inkscape:cy="32.2"
     inkscape:window-x="0"
     inkscape:window-y="27"
     inkscape:window-maximized="1"
     inkscape:current-layer="svg34" /><path
     d="M 20,15.5 V 4.5 C 20,2 18,0 15.5,0 H 4.5 C 2,0 0,2 0,4.5 v 11 C 0,18 2,20 4.5,20 h 11 C 18,20 20,18 20,15.5 Z m -17,0 V 4.5 C 3,3.7 3.7,3 4.5,3 h 11 C 16.3,3 17,3.7 17,4.5 v 11 C 17,16.3 16.3,17 15.5,17 H 4.5 C 3.7,17 3,16.3 3,15.5 Z"
     id="path20"
     inkscape:connector-curvature="0"
     style="fill:#ffffff" /><path
     d="m 86.8,0 h -11 c -2.5,0 -4.5,2 -4.5,4.5 v 11 c 0,2.5 2,4.5 4.5,4.5 h 11 c 2.5,0 4.5,-2 4.5,-4.5 V 4.5 C 91.3,2 89.2,0 86.8,0 Z m 1.5,15.5 c 0,0.8 -0.7,1.5 -1.5,1.5 h -11 C 75,17 74.3,16.3 74.3,15.5 V 4.5 C 74.3,3.7 75,3 75.8,3 h 11 c 0.8,0 1.5,0.7 1.5,1.5 z"
     id="path22"
     inkscape:connector-curvature="0"
     style="fill:#ffffff" /><path
     d="m 50.5,37.2 h -11 c -2.5,0 -4.5,2 -4.5,4.5 v 12.5 3 14 3 12.5 c 0,2.5 2,4.5 4.5,4.5 h 10.9 c 2.5,0 4.5,-2 4.5,-4.5 v -12.5 -3 -14 -3 -12.4 C 55,39.3 53,37.2 50.5,37.2 Z M 52,86.7 c 0,0.9 -0.7,1.5 -1.5,1.5 h -11 C 38.6,88.2 38,87.5 38,86.7 V 74.2 H 52 Z M 52,71.2 H 38 v -14 H 52 Z M 38,54.2 V 41.8 c 0,-0.9 0.7,-1.5 1.5,-1.5 h 10.9 c 0.9,0 1.5,0.7 1.5,1.5 V 54.3 H 38 Z"
     id="path24"
     inkscape:connector-curvature="0"
     style="fill:#ffffff" /><path
     d="m 21.2,45.3 c -9,-1.2 -9.7,-4.9 -9.7,-20.9 h -3 c 0,15.5 0.5,22.3 12.6,23.9 l -0.2,4.5 10.6,-5.5 -10.1,-6.4 z"
     id="path26"
     inkscape:connector-curvature="0"
     style="fill:#ffffff" /><path
     d="m 81.2,24.3 -6.3,10.2 4.5,0.1 c -0.8,9.6 -4,11.1 -19.7,11.1 v 3 c 16.3,0 21.6,-1.9 22.7,-14 l 4.4,0.1 z"
     id="path28"
     inkscape:connector-curvature="0"
     style="fill:#ffffff" /></svg>