<?xml version="1.0" encoding="UTF-8" standalone="no"?>
<svg
   xmlns:dc="http://purl.org/dc/elements/1.1/"
   xmlns:cc="http://creativecommons.org/ns#"
   xmlns:rdf="http://www.w3.org/1999/02/22-rdf-syntax-ns#"
   xmlns:svg="http://www.w3.org/2000/svg"
   xmlns="http://www.w3.org/2000/svg"
   xmlns:sodipodi="http://sodipodi.sourceforge.net/DTD/sodipodi-0.dtd"
   xmlns:inkscape="http://www.inkscape.org/namespaces/inkscape"
   xml:space="preserve"
   version="1.1"
   style="clip-rule:evenodd;fill-rule:evenodd;image-rendering:optimizeQuality;shape-rendering:geometricPrecision;text-rendering:geometricPrecision"
   viewBox="0 0 415 415"
   x="0px"
   y="0px"
   id="svg16"
   sodipodi:docname="tag.svg"
   width="415"
   height="415"
   inkscape:version="0.92.5 (2060ec1f9f, 2020-04-08)"><metadata
     id="metadata20"><rdf:RDF><cc:Work
         rdf:about=""><dc:format>image/svg+xml</dc:format><dc:type
           rdf:resource="http://purl.org/dc/dcmitype/StillImage" /><dc:title></dc:title></cc:Work></rdf:RDF></metadata><sodipodi:namedview
     pagecolor="#ffffff"
     bordercolor="#666666"
     borderopacity="1"
     objecttolerance="10"
     gridtolerance="10"
     guidetolerance="10"
     inkscape:pageopacity="0"
     inkscape:pageshadow="2"
     inkscape:window-width="1920"
     inkscape:window-height="1016"
     id="namedview18"
     showgrid="false"
     fit-margin-top="0"
     fit-margin-left="0"
     fit-margin-right="0"
     fit-margin-bottom="0"
     inkscape:zoom="0.45493976"
     inkscape:cx="207.5"
     inkscape:cy="155.375"
     inkscape:window-x="0"
     inkscape:window-y="27"
     inkscape:window-maximized="1"
     inkscape:current-layer="svg16" /><defs
     id="defs4"><style
       type="text/css"
       id="style2">
   
    .fil0 {fill:black;fill-rule:nonzero}
   
  </style></defs><g
     id="g10"
     transform="translate(0,0.25)"
     style="fill:#ffffff"><path
       class="fil0"
       d="m 415,42 v 138 c 0,11 -5,22 -13,30 L 210,402 c -17,17 -43,17 -60,0 L 12,265 C -4,248 -4,221 12,205 L 205,12 C 213,4 223,0 235,0 h 138 c 23,0 42,19 42,42 z M 55,198 217,359 384,192 c 4,-3 5,-7 5,-12 V 42 c 0,-9 -7,-17 -16,-17 H 235 c -5,0 -9,2 -12,5 z M 202,374 40,213 30,223 c -6,7 -6,17 0,24 l 138,138 c 7,6 17,6 24,0 z"
       id="path6"
       inkscape:connector-curvature="0"
       style="fill:#ffffff;fill-rule:nonzero" /><path
       class="fil0"
       d="m 332,83 c 14,14 14,37 0,51 -14,14 -37,14 -51,0 -14,-14 -14,-37 0,-51 14,-15 37,-15 51,0 z m -15,15 c -6,-6 -15,-6 -21,0 -6,5 -6,15 0,21 6,6 15,6 21,0 6,-6 6,-16 0,-21 z"
       id="path8"
       inkscape:connector-curvature="0"
       style="fill:#ffffff;fill-rule:nonzero" /></g></svg>